<?xml version="1.0" encoding="UTF-8" standalone="no"?>
<svg
   inkscape:export-ydpi="300"
   inkscape:export-xdpi="300"
   inkscape:export-filename="/home/noah/google_drive/plant_cell/logo.png"
   inkscape:version="1.1.2 (0a00cf5339, 2022-02-04, custom)"
   inkscape:label="Background"
   sodipodi:docname="logo.svg"
   id="svg1341"
   style="clip-rule:evenodd;fill-rule:evenodd;stroke-linecap:round;stroke-linejoin:round;stroke-miterlimit:1.5"
   xml:space="preserve"
   version="1.1"
   viewBox="0 0 213.70702 413.43613"
   height="4.3065834in"
   width="2.2260926in"
   xmlns:inkscape="http://www.inkscape.org/namespaces/inkscape"
   xmlns:sodipodi="http://sodipodi.sourceforge.net/DTD/sodipodi-0.dtd"
   xmlns:xlink="http://www.w3.org/1999/xlink"
   xmlns="http://www.w3.org/2000/svg"
   xmlns:svg="http://www.w3.org/2000/svg"
   xmlns:rdf="http://www.w3.org/1999/02/22-rdf-syntax-ns#"
   xmlns:cc="http://creativecommons.org/ns#"
   xmlns:dc="http://purl.org/dc/elements/1.1/"><metadata
   id="metadata1347"><rdf:RDF><cc:Work
       rdf:about=""><dc:format>image/svg+xml</dc:format><dc:type
         rdf:resource="http://purl.org/dc/dcmitype/StillImage" /></cc:Work></rdf:RDF></metadata><defs
   id="defs1345"><linearGradient
   id="linearGradient4245"
   inkscape:swatch="solid"><stop
     style="stop-color:#999999;stop-opacity:1;"
     offset="0"
     id="stop4243" /></linearGradient><pattern
   patternTransform="matrix(6.7056901,-7.4184717,7.4184717,6.7056901,1.977175,-0.58467235)"
   id="pattern3229"
   xlink:href="#pattern3066-3"
   inkscape:collect="always" /><pattern
   patternTransform="matrix(6.7056901,-7.4184718,7.4184718,6.7056901,-19.370327,0)"
   id="pattern3066"
   xlink:href="#Strips1_1white"
   inkscape:collect="always" /><pattern
   inkscape:collect="always"
   patternUnits="userSpaceOnUse"
   width="2"
   height="1"
   patternTransform="translate(0,0) scale(10,10)"
   id="Strips1_1white"
   inkscape:stockid="Stripes 1:1 white"
   inkscape:isstock="true"><rect
     style="fill:white;stroke:none"
     x="0"
     y="-0.5"
     width="1"
     height="2"
     id="rect2026" /></pattern><rect
   x="662.86572"
   y="1460.9774"
   width="510.11688"
   height="292.80841"
   id="rect5357" /><marker
   inkscape:isstock="true"
   style="overflow:visible"
   id="TriangleOutS"
   refX="0"
   refY="0"
   orient="auto"
   inkscape:stockid="TriangleOutS"><path
     transform="scale(0.2)"
     style="fill:#000000;fill-opacity:1;fill-rule:evenodd;stroke:#000000;stroke-width:1pt;stroke-opacity:1"
     d="M 5.77,0 -2.88,5 V -5 Z"
     id="path1945" /></marker><linearGradient
   id="linearGradient1421"
   inkscape:swatch="solid"><stop
     id="stop1419"
     offset="0"
     style="stop-color:#4caf50;stop-opacity:1;" /></linearGradient>

        <clipPath
   id="_clip1">
            <rect
   x="0"
   y="692.84003"
   width="4724.4102"
   height="1955.21"
   id="rect1111" />
        </clipPath>

































                <marker
   inkscape:stockid="TriangleOutS"
   orient="auto"
   refY="0"
   refX="0"
   id="TriangleOutS-5"
   style="overflow:visible"
   inkscape:isstock="true"><path
     id="path1945-5"
     d="M 5.77,0 -2.88,5 V -5 Z"
     style="fill:#000000;fill-opacity:1;fill-rule:evenodd;stroke:#000000;stroke-width:1pt;stroke-opacity:1"
     transform="scale(0.2)" /></marker><marker
   inkscape:isstock="true"
   style="overflow:visible"
   id="TriangleOutS-5-7"
   refX="0"
   refY="0"
   orient="auto"
   inkscape:stockid="TriangleOutS"><path
     transform="scale(0.2)"
     style="fill:#000000;fill-opacity:1;fill-rule:evenodd;stroke:#000000;stroke-width:1pt;stroke-opacity:1"
     d="M 5.77,0 -2.88,5 V -5 Z"
     id="path1945-5-6" /></marker><marker
   inkscape:stockid="TriangleOutS"
   orient="auto"
   refY="0"
   refX="0"
   id="TriangleOutS-6"
   style="overflow:visible"
   inkscape:isstock="true"><path
     id="path1945-9"
     d="M 5.77,0 -2.88,5 V -5 Z"
     style="fill:#000000;fill-opacity:1;fill-rule:evenodd;stroke:#000000;stroke-width:1pt;stroke-opacity:1"
     transform="scale(0.2)" /></marker><marker
   inkscape:isstock="true"
   style="overflow:visible"
   id="TriangleOutS-5-3"
   refX="0"
   refY="0"
   orient="auto"
   inkscape:stockid="TriangleOutS"><path
     transform="scale(0.2)"
     style="fill:#000000;fill-opacity:1;fill-rule:evenodd;stroke:#000000;stroke-width:1pt;stroke-opacity:1"
     d="M 5.77,0 -2.88,5 V -5 Z"
     id="path1945-5-7" /></marker><marker
   inkscape:stockid="TriangleOutS"
   orient="auto"
   refY="0"
   refX="0"
   id="TriangleOutS-5-7-4"
   style="overflow:visible"
   inkscape:isstock="true"><path
     id="path1945-5-6-5"
     d="M 5.77,0 -2.88,5 V -5 Z"
     style="fill:#000000;fill-opacity:1;fill-rule:evenodd;stroke:#000000;stroke-width:1pt;stroke-opacity:1"
     transform="scale(0.2)" /></marker><marker
   inkscape:stockid="TriangleOutS"
   orient="auto"
   refY="0"
   refX="0"
   id="TriangleOutS-4"
   style="overflow:visible"
   inkscape:isstock="true"><path
     id="path1945-4"
     d="M 5.77,0 -2.88,5 V -5 Z"
     style="fill:#000000;fill-opacity:1;fill-rule:evenodd;stroke:#000000;stroke-width:1pt;stroke-opacity:1"
     transform="scale(0.2)" /></marker><marker
   inkscape:isstock="true"
   style="overflow:visible"
   id="TriangleOutS-5-76"
   refX="0"
   refY="0"
   orient="auto"
   inkscape:stockid="TriangleOutS"><path
     transform="scale(0.2)"
     style="fill:#000000;fill-opacity:1;fill-rule:evenodd;stroke:#000000;stroke-width:1pt;stroke-opacity:1"
     d="M 5.77,0 -2.88,5 V -5 Z"
     id="path1945-5-3" /></marker><marker
   inkscape:stockid="TriangleOutS"
   orient="auto"
   refY="0"
   refX="0"
   id="TriangleOutS-5-7-1"
   style="overflow:visible"
   inkscape:isstock="true"><path
     id="path1945-5-6-7"
     d="M 5.77,0 -2.88,5 V -5 Z"
     style="fill:#000000;fill-opacity:1;fill-rule:evenodd;stroke:#000000;stroke-width:1pt;stroke-opacity:1"
     transform="scale(0.2)" /></marker><marker
   inkscape:isstock="true"
   style="overflow:visible"
   id="TriangleOutS-6-5"
   refX="0"
   refY="0"
   orient="auto"
   inkscape:stockid="TriangleOutS"><path
     transform="scale(0.2)"
     style="fill:#000000;fill-opacity:1;fill-rule:evenodd;stroke:#000000;stroke-width:1pt;stroke-opacity:1"
     d="M 5.77,0 -2.88,5 V -5 Z"
     id="path1945-9-9" /></marker><marker
   inkscape:stockid="TriangleOutS"
   orient="auto"
   refY="0"
   refX="0"
   id="TriangleOutS-5-3-6"
   style="overflow:visible"
   inkscape:isstock="true"><path
     id="path1945-5-7-2"
     d="M 5.77,0 -2.88,5 V -5 Z"
     style="fill:#000000;fill-opacity:1;fill-rule:evenodd;stroke:#000000;stroke-width:1pt;stroke-opacity:1"
     transform="scale(0.2)" /></marker><marker
   inkscape:isstock="true"
   style="overflow:visible"
   id="TriangleOutS-5-7-4-1"
   refX="0"
   refY="0"
   orient="auto"
   inkscape:stockid="TriangleOutS"><path
     transform="scale(0.2)"
     style="fill:#000000;fill-opacity:1;fill-rule:evenodd;stroke:#000000;stroke-width:1pt;stroke-opacity:1"
     d="M 5.77,0 -2.88,5 V -5 Z"
     id="path1945-5-6-5-7" /></marker><marker
   inkscape:stockid="TriangleOutS"
   orient="auto"
   refY="0"
   refX="0"
   id="TriangleOutS-9"
   style="overflow:visible"
   inkscape:isstock="true"><path
     id="path1945-0"
     d="M 5.77,0 -2.88,5 V -5 Z"
     style="fill:#000000;fill-opacity:1;fill-rule:evenodd;stroke:#000000;stroke-width:1pt;stroke-opacity:1"
     transform="scale(0.2)" /></marker><marker
   inkscape:isstock="true"
   style="overflow:visible"
   id="TriangleOutS-5-2"
   refX="0"
   refY="0"
   orient="auto"
   inkscape:stockid="TriangleOutS"><path
     transform="scale(0.2)"
     style="fill:#000000;fill-opacity:1;fill-rule:evenodd;stroke:#000000;stroke-width:1pt;stroke-opacity:1"
     d="M 5.77,0 -2.88,5 V -5 Z"
     id="path1945-5-8" /></marker><marker
   inkscape:stockid="TriangleOutS"
   orient="auto"
   refY="0"
   refX="0"
   id="TriangleOutS-5-7-3"
   style="overflow:visible"
   inkscape:isstock="true"><path
     id="path1945-5-6-8"
     d="M 5.77,0 -2.88,5 V -5 Z"
     style="fill:#000000;fill-opacity:1;fill-rule:evenodd;stroke:#000000;stroke-width:1pt;stroke-opacity:1"
     transform="scale(0.2)" /></marker><marker
   inkscape:isstock="true"
   style="overflow:visible"
   id="TriangleOutS-6-0"
   refX="0"
   refY="0"
   orient="auto"
   inkscape:stockid="TriangleOutS"><path
     transform="scale(0.2)"
     style="fill:#000000;fill-opacity:1;fill-rule:evenodd;stroke:#000000;stroke-width:1pt;stroke-opacity:1"
     d="M 5.77,0 -2.88,5 V -5 Z"
     id="path1945-9-4" /></marker><marker
   inkscape:stockid="TriangleOutS"
   orient="auto"
   refY="0"
   refX="0"
   id="TriangleOutS-5-3-0"
   style="overflow:visible"
   inkscape:isstock="true"><path
     id="path1945-5-7-9"
     d="M 5.77,0 -2.88,5 V -5 Z"
     style="fill:#000000;fill-opacity:1;fill-rule:evenodd;stroke:#000000;stroke-width:1pt;stroke-opacity:1"
     transform="scale(0.2)" /></marker><marker
   inkscape:isstock="true"
   style="overflow:visible"
   id="TriangleOutS-5-7-4-19"
   refX="0"
   refY="0"
   orient="auto"
   inkscape:stockid="TriangleOutS"><path
     transform="scale(0.2)"
     style="fill:#000000;fill-opacity:1;fill-rule:evenodd;stroke:#000000;stroke-width:1pt;stroke-opacity:1"
     d="M 5.77,0 -2.88,5 V -5 Z"
     id="path1945-5-6-5-6" /></marker><pattern
   inkscape:collect="always"
   xlink:href="#Strips1_1white-6"
   id="pattern3066-3"
   patternTransform="matrix(6.7056901,-7.4184717,7.4184717,6.7056901,-36.567106,65.306563)" /><pattern
   inkscape:isstock="true"
   inkscape:stockid="Stripes 1:1 white"
   id="Strips1_1white-6"
   patternTransform="translate(0,0) scale(10,10)"
   height="1"
   width="2"
   patternUnits="userSpaceOnUse"
   inkscape:collect="always"><rect
     id="rect2026-7"
     height="2"
     width="1"
     y="-0.5"
     x="0"
     style="fill:white;stroke:none" /></pattern><pattern
   patternUnits="userSpaceOnUse"
   height="16.85490399216455"
   width="16.85490399216455"
   y="0"
   x="0"
   inkscape:stockid="Hatch 3.4 x 45°"
   id="Hatch3.4x045"><path
     id="path135"
     d="M -3.5433070866141736,3.5433070866141736 3.5433070866141736,-3.5433070866141736"
     style="stroke:#000000;stroke-width:0.25mm" /><path
     id="path137"
     d="M -3.5433070866141736,20.398211078778726 20.398211078778726,-3.5433070866141736"
     style="stroke:#000000;stroke-width:0.25mm" /><path
     id="path139"
     d="M 13.311596905550378,20.398211078778726 20.398211078778726,13.311596905550378"
     style="stroke:#000000;stroke-width:0.25mm" /></pattern><clipPath
   id="p4c3a50b4a4"><rect
     id="rect702"
     y="19.5345"
     x="64.806747"
     width="381.07318"
     height="217.44" /></clipPath><pattern
   y="0"
   x="0"
   width="72"
   patternUnits="userSpaceOnUse"
   id="ha7f08587e3"
   height="72"><rect
     id="rect710"
     y="0"
     x="0"
     width="73"
     height="73"
     fill="#999999" /><path
     id="path712"
     style="fill:#ffffff;stroke:#ffffff;stroke-linecap:butt;stroke-linejoin:miter;stroke-width:1.5;"
     d="M -36 36  L 36 -36  M -30 42  L 42 -30  M -24 48  L 48 -24  M -18 54  L 54 -18  M -12 60  L 60 -12  M -6 66  L 66 -6  M 0 72  L 72 0  M 6 78  L 78 6  M 12 84  L 84 12  M 18 90  L 90 18  M 24 96  L 96 24  M 30 102  L 102 30  M 36 108  L 108 36  " /></pattern><clipPath
   id="p4c3a50b4a4-3"><rect
     id="rect702-6"
     y="19.5345"
     x="64.806747"
     width="381.07318"
     height="217.44" /></clipPath><pattern
   y="0"
   x="0"
   width="72"
   patternUnits="userSpaceOnUse"
   id="h22f384af74"
   height="72"><rect
     id="rect715"
     y="0"
     x="0"
     width="73"
     height="73"
     fill="#ff7043" /><path
     id="path717"
     style="fill:#ffffff;stroke:#ffffff;stroke-linecap:butt;stroke-linejoin:miter;stroke-width:1.5;"
     d="M -36 36  L 36 -36  M -30 42  L 42 -30  M -24 48  L 48 -24  M -18 54  L 54 -18  M -12 60  L 60 -12  M -6 66  L 66 -6  M 0 72  L 72 0  M 6 78  L 78 6  M 12 84  L 84 12  M 18 90  L 90 18  M 24 96  L 96 24  M 30 102  L 102 30  M 36 108  L 108 36  " /></pattern><clipPath
   id="p4c3a50b4a4-7"><rect
     id="rect702-5"
     y="19.5345"
     x="64.806747"
     width="381.07318"
     height="217.44" /></clipPath><pattern
   height="72"
   id="h22f384af74-3"
   patternUnits="userSpaceOnUse"
   width="72"
   x="0"
   y="0"><rect
     fill="#ff7043"
     height="73"
     width="73"
     x="0"
     y="0"
     id="rect715-5" /><path
     d="M -36 36  L 36 -36  M -30 42  L 42 -30  M -24 48  L 48 -24  M -18 54  L 54 -18  M -12 60  L 60 -12  M -6 66  L 66 -6  M 0 72  L 72 0  M 6 78  L 78 6  M 12 84  L 84 12  M 18 90  L 90 18  M 24 96  L 96 24  M 30 102  L 102 30  M 36 108  L 108 36  "
     style="fill:#ffffff;stroke:#ffffff;stroke-linecap:butt;stroke-linejoin:miter;stroke-width:1.5;"
     id="path717-6" /></pattern><clipPath
   id="p4c3a50b4a4-7-2"><rect
     height="217.44"
     width="381.07318"
     x="64.806747"
     y="19.5345"
     id="rect702-5-9" /></clipPath><pattern
   y="0"
   x="0"
   width="72"
   patternUnits="userSpaceOnUse"
   id="h22f384af74-7"
   height="72"><rect
     id="rect715-0"
     y="0"
     x="0"
     width="73"
     height="73"
     fill="#ff7043" /><path
     id="path717-9"
     style="fill:#ffffff;stroke:#ffffff;stroke-linecap:butt;stroke-linejoin:miter;stroke-width:1.5;"
     d="M -36 36  L 36 -36  M -30 42  L 42 -30  M -24 48  L 48 -24  M -18 54  L 54 -18  M -12 60  L 60 -12  M -6 66  L 66 -6  M 0 72  L 72 0  M 6 78  L 78 6  M 12 84  L 84 12  M 18 90  L 90 18  M 24 96  L 96 24  M 30 102  L 102 30  M 36 108  L 108 36  " /></pattern><clipPath
   id="p4c3a50b4a4-36"><rect
     id="rect702-0"
     y="19.5345"
     x="64.806747"
     width="381.07318"
     height="217.44" /></clipPath><pattern
   y="0"
   x="0"
   width="72"
   patternUnits="userSpaceOnUse"
   id="h22f384af74-6"
   height="72"><rect
     id="rect715-1"
     y="0"
     x="0"
     width="73"
     height="73"
     fill="#ff7043" /><path
     id="path717-8"
     style="fill:#ffffff;stroke:#ffffff;stroke-linecap:butt;stroke-linejoin:miter;stroke-width:1.5;"
     d="M -36 36  L 36 -36  M -30 42  L 42 -30  M -24 48  L 48 -24  M -18 54  L 54 -18  M -12 60  L 60 -12  M -6 66  L 66 -6  M 0 72  L 72 0  M 6 78  L 78 6  M 12 84  L 84 12  M 18 90  L 90 18  M 24 96  L 96 24  M 30 102  L 102 30  M 36 108  L 108 36  " /></pattern><clipPath
   id="p4c3a50b4a4-79"><rect
     id="rect702-2"
     y="19.5345"
     x="64.806747"
     width="381.07318"
     height="217.44" /></clipPath><pattern
   height="72"
   id="h22f384af74-6-2"
   patternUnits="userSpaceOnUse"
   width="72"
   x="0"
   y="0"><rect
     fill="#ff7043"
     height="73"
     width="73"
     x="0"
     y="0"
     id="rect715-1-3" /><path
     d="M -36 36  L 36 -36  M -30 42  L 42 -30  M -24 48  L 48 -24  M -18 54  L 54 -18  M -12 60  L 60 -12  M -6 66  L 66 -6  M 0 72  L 72 0  M 6 78  L 78 6  M 12 84  L 84 12  M 18 90  L 90 18  M 24 96  L 96 24  M 30 102  L 102 30  M 36 108  L 108 36  "
     style="fill:#ffffff;stroke:#ffffff;stroke-linecap:butt;stroke-linejoin:miter;stroke-width:1.5;"
     id="path717-8-7" /></pattern><clipPath
   id="p4c3a50b4a4-79-5"><rect
     height="217.44"
     width="381.07318"
     x="64.806747"
     y="19.5345"
     id="rect702-2-9" /></clipPath><clipPath
   id="p4c3a50b4a4-2"><rect
     id="rect702-8"
     y="19.5345"
     x="64.806747"
     width="381.07318"
     height="217.44" /></clipPath><pattern
   y="0"
   x="0"
   width="72"
   patternUnits="userSpaceOnUse"
   id="ha7f08587e3-9"
   height="72"><rect
     id="rect710-7"
     y="0"
     x="0"
     width="73"
     height="73"
     fill="#999999" /><path
     id="path712-3"
     style="fill:#ffffff;stroke:#ffffff;stroke-linecap:butt;stroke-linejoin:miter;stroke-width:1.5;"
     d="M -36 36  L 36 -36  M -30 42  L 42 -30  M -24 48  L 48 -24  M -18 54  L 54 -18  M -12 60  L 60 -12  M -6 66  L 66 -6  M 0 72  L 72 0  M 6 78  L 78 6  M 12 84  L 84 12  M 18 90  L 90 18  M 24 96  L 96 24  M 30 102  L 102 30  M 36 108  L 108 36  " /></pattern><clipPath
   id="p4c3a50b4a4-6"><rect
     id="rect702-1"
     y="19.5345"
     x="64.806747"
     width="381.07318"
     height="217.44" /></clipPath><pattern
   height="72"
   id="ha7f08587e3-9-2"
   patternUnits="userSpaceOnUse"
   width="72"
   x="0"
   y="0"><rect
     fill="#999999"
     height="73"
     width="73"
     x="0"
     y="0"
     id="rect710-7-9" /><path
     d="M -36 36  L 36 -36  M -30 42  L 42 -30  M -24 48  L 48 -24  M -18 54  L 54 -18  M -12 60  L 60 -12  M -6 66  L 66 -6  M 0 72  L 72 0  M 6 78  L 78 6  M 12 84  L 84 12  M 18 90  L 90 18  M 24 96  L 96 24  M 30 102  L 102 30  M 36 108  L 108 36  "
     style="fill:#ffffff;stroke:#ffffff;stroke-linecap:butt;stroke-linejoin:miter;stroke-width:1.5;"
     id="path712-3-3" /></pattern><clipPath
   id="p4c3a50b4a4-6-1"><rect
     height="217.44"
     width="381.07318"
     x="64.806747"
     y="19.5345"
     id="rect702-1-9" /></clipPath><pattern
   patternUnits="userSpaceOnUse"
   width="17.995905"
   height="57.9898"
   patternTransform="translate(307.82648,120.12002)"
   id="pattern4231"><path
     id="path317-4"
     style="clip-rule:evenodd;opacity:1;fill:url(#ha7f08587e3-9-2);fill-rule:evenodd;stroke:#666666;stroke-linecap:butt;stroke-linejoin:miter;stroke-miterlimit:1.5;stroke-opacity:1"
     d="M 92.169712,231.67108 H 104.74885 V 189.18299 H 92.169712 Z"
     clip-path="url(#p4c3a50b4a4-6-1)"
     transform="matrix(1.3252612,0,0,1.333464,-121.48631,-251.60197)"
     sodipodi:nodetypes="ccccc"
     inkscape:label="EoN_hatched" /></pattern><pattern
   y="0"
   x="0"
   width="72"
   patternUnits="userSpaceOnUse"
   id="ha7f08587e3-8"
   height="72"><rect
     id="rect710-4"
     y="0"
     x="0"
     width="73"
     height="73"
     fill="#999999" /><path
     id="path712-5"
     style="fill:#ffffff;stroke:#ffffff;stroke-linecap:butt;stroke-linejoin:miter;stroke-width:1.5;"
     d="M -36 36  L 36 -36  M -30 42  L 42 -30  M -24 48  L 48 -24  M -18 54  L 54 -18  M -12 60  L 60 -12  M -6 66  L 66 -6  M 0 72  L 72 0  M 6 78  L 78 6  M 12 84  L 84 12  M 18 90  L 90 18  M 24 96  L 96 24  M 30 102  L 102 30  M 36 108  L 108 36  " /></pattern><clipPath
   id="p4c3a50b4a4-0"><rect
     id="rect702-3"
     y="19.5345"
     x="64.806747"
     width="381.07318"
     height="217.44" /></clipPath><pattern
   y="0"
   x="0"
   width="72"
   patternUnits="userSpaceOnUse"
   id="ha7f08587e3-1"
   height="72"><rect
     id="rect710-0"
     y="0"
     x="0"
     width="73"
     height="73"
     fill="#999999" /><path
     id="path712-6"
     style="fill:#ffffff;stroke:#ffffff;stroke-linecap:butt;stroke-linejoin:miter;stroke-width:1.5;"
     d="M -36 36  L 36 -36  M -30 42  L 42 -30  M -24 48  L 48 -24  M -18 54  L 54 -18  M -12 60  L 60 -12  M -6 66  L 66 -6  M 0 72  L 72 0  M 6 78  L 78 6  M 12 84  L 84 12  M 18 90  L 90 18  M 24 96  L 96 24  M 30 102  L 102 30  M 36 108  L 108 36  " /></pattern><clipPath
   id="p4c3a50b4a4-32"><rect
     id="rect702-06"
     y="19.5345"
     x="64.806747"
     width="381.07318"
     height="217.44" /></clipPath><pattern
   height="72"
   id="ha7f08587e3-1-5"
   patternUnits="userSpaceOnUse"
   width="72"
   x="0"
   y="0"><rect
     fill="#999999"
     height="73"
     width="73"
     x="0"
     y="0"
     id="rect710-0-5" /><path
     d="M -36 36  L 36 -36  M -30 42  L 42 -30  M -24 48  L 48 -24  M -18 54  L 54 -18  M -12 60  L 60 -12  M -6 66  L 66 -6  M 0 72  L 72 0  M 6 78  L 78 6  M 12 84  L 84 12  M 18 90  L 90 18  M 24 96  L 96 24  M 30 102  L 102 30  M 36 108  L 108 36  "
     style="fill:#ffffff;stroke:#ffffff;stroke-linecap:butt;stroke-linejoin:miter;stroke-width:1.5;"
     id="path712-6-4" /></pattern><clipPath
   id="p4c3a50b4a4-32-7"><rect
     height="217.44"
     width="381.07318"
     x="64.806747"
     y="19.5345"
     id="rect702-06-6" /></clipPath><clipPath
   id="p4c3a50b4a4-69"><rect
     id="rect702-37"
     y="19.5345"
     x="64.806747"
     width="381.07318"
     height="217.44" /></clipPath><clipPath
   id="clipPath822"><rect
     id="rect820"
     y="19.5345"
     x="64.806747"
     width="381.07318"
     height="217.44" /></clipPath><clipPath
   id="clipPath826"><rect
     id="rect824"
     y="19.5345"
     x="64.806747"
     width="381.07318"
     height="217.44" /></clipPath><clipPath
   id="clipPath830"><rect
     id="rect828"
     y="19.5345"
     x="64.806747"
     width="381.07318"
     height="217.44" /></clipPath><clipPath
   id="clipPath834"><rect
     id="rect832"
     y="19.5345"
     x="64.806747"
     width="381.07318"
     height="217.44" /></clipPath><clipPath
   id="clipPath838"><rect
     id="rect836"
     y="19.5345"
     x="64.806747"
     width="381.07318"
     height="217.44" /></clipPath><clipPath
   id="clipPath842"><rect
     id="rect840"
     y="19.5345"
     x="64.806747"
     width="381.07318"
     height="217.44" /></clipPath><clipPath
   id="clipPath846"><rect
     id="rect844"
     y="19.5345"
     x="64.806747"
     width="381.07318"
     height="217.44" /></clipPath><clipPath
   id="clipPath850"><rect
     id="rect848"
     y="19.5345"
     x="64.806747"
     width="381.07318"
     height="217.44" /></clipPath><clipPath
   id="clipPath854"><rect
     id="rect852"
     y="19.5345"
     x="64.806747"
     width="381.07318"
     height="217.44" /></clipPath><clipPath
   id="clipPath858"><rect
     id="rect856"
     y="19.5345"
     x="64.806747"
     width="381.07318"
     height="217.44" /></clipPath><clipPath
   id="clipPath862"><rect
     id="rect860"
     y="19.5345"
     x="64.806747"
     width="381.07318"
     height="217.44" /></clipPath><clipPath
   id="clipPath866"><rect
     id="rect864"
     y="19.5345"
     x="64.806747"
     width="381.07318"
     height="217.44" /></clipPath><clipPath
   id="clipPath870"><rect
     id="rect868"
     y="19.5345"
     x="64.806747"
     width="381.07318"
     height="217.44" /></clipPath><clipPath
   id="clipPath874"><rect
     id="rect872"
     y="19.5345"
     x="64.806747"
     width="381.07318"
     height="217.44" /></clipPath><clipPath
   id="clipPath878"><rect
     id="rect876"
     y="19.5345"
     x="64.806747"
     width="381.07318"
     height="217.44" /></clipPath><clipPath
   id="clipPath882"><rect
     id="rect880"
     y="19.5345"
     x="64.806747"
     width="381.07318"
     height="217.44" /></clipPath><clipPath
   id="clipPath886"><rect
     id="rect884"
     y="19.5345"
     x="64.806747"
     width="381.07318"
     height="217.44" /></clipPath><clipPath
   id="clipPath890"><rect
     id="rect888"
     y="19.5345"
     x="64.806747"
     width="381.07318"
     height="217.44" /></clipPath><clipPath
   id="clipPath894"><rect
     id="rect892"
     y="19.5345"
     x="64.806747"
     width="381.07318"
     height="217.44" /></clipPath><pattern
   y="0"
   x="0"
   width="72"
   patternUnits="userSpaceOnUse"
   id="ha7f08587e3-4"
   height="72"><rect
     id="rect710-5"
     y="0"
     x="0"
     width="73"
     height="73"
     fill="#999999" /><path
     id="path712-2"
     style="fill:#ffffff;stroke:#ffffff;stroke-linecap:butt;stroke-linejoin:miter;stroke-width:1.5;"
     d="M -36 36  L 36 -36  M -30 42  L 42 -30  M -24 48  L 48 -24  M -18 54  L 54 -18  M -12 60  L 60 -12  M -6 66  L 66 -6  M 0 72  L 72 0  M 6 78  L 78 6  M 12 84  L 84 12  M 18 90  L 90 18  M 24 96  L 96 24  M 30 102  L 102 30  M 36 108  L 108 36  " /></pattern><clipPath
   id="clipPath901"><rect
     id="rect899"
     y="19.5345"
     x="64.806747"
     width="381.07318"
     height="217.44" /></clipPath><pattern
   y="0"
   x="0"
   width="72"
   patternUnits="userSpaceOnUse"
   id="pattern907"
   height="72"><rect
     id="rect903"
     y="0"
     x="0"
     width="73"
     height="73"
     fill="#999999" /><path
     id="path905"
     style="fill:#ffffff;stroke:#ffffff;stroke-linecap:butt;stroke-linejoin:miter;stroke-width:1.5;"
     d="M -36 36  L 36 -36  M -30 42  L 42 -30  M -24 48  L 48 -24  M -18 54  L 54 -18  M -12 60  L 60 -12  M -6 66  L 66 -6  M 0 72  L 72 0  M 6 78  L 78 6  M 12 84  L 84 12  M 18 90  L 90 18  M 24 96  L 96 24  M 30 102  L 102 30  M 36 108  L 108 36  " /></pattern><clipPath
   id="clipPath911"><rect
     id="rect909"
     y="19.5345"
     x="64.806747"
     width="381.07318"
     height="217.44" /></clipPath><pattern
   y="0"
   x="0"
   width="72"
   patternUnits="userSpaceOnUse"
   id="pattern917"
   height="72"><rect
     id="rect913"
     y="0"
     x="0"
     width="73"
     height="73"
     fill="#999999" /><path
     id="path915"
     style="fill:#ffffff;stroke:#ffffff;stroke-linecap:butt;stroke-linejoin:miter;stroke-width:1.5;"
     d="M -36 36  L 36 -36  M -30 42  L 42 -30  M -24 48  L 48 -24  M -18 54  L 54 -18  M -12 60  L 60 -12  M -6 66  L 66 -6  M 0 72  L 72 0  M 6 78  L 78 6  M 12 84  L 84 12  M 18 90  L 90 18  M 24 96  L 96 24  M 30 102  L 102 30  M 36 108  L 108 36  " /></pattern><clipPath
   id="clipPath921"><rect
     id="rect919"
     y="19.5345"
     x="64.806747"
     width="381.07318"
     height="217.44" /></clipPath><pattern
   y="0"
   x="0"
   width="72"
   patternUnits="userSpaceOnUse"
   id="pattern927"
   height="72"><rect
     id="rect923"
     y="0"
     x="0"
     width="73"
     height="73"
     fill="#999999" /><path
     id="path925"
     style="fill:#ffffff;stroke:#ffffff;stroke-linecap:butt;stroke-linejoin:miter;stroke-width:1.5;"
     d="M -36 36  L 36 -36  M -30 42  L 42 -30  M -24 48  L 48 -24  M -18 54  L 54 -18  M -12 60  L 60 -12  M -6 66  L 66 -6  M 0 72  L 72 0  M 6 78  L 78 6  M 12 84  L 84 12  M 18 90  L 90 18  M 24 96  L 96 24  M 30 102  L 102 30  M 36 108  L 108 36  " /></pattern><clipPath
   id="clipPath931"><rect
     id="rect929"
     y="19.5345"
     x="64.806747"
     width="381.07318"
     height="217.44" /></clipPath><pattern
   y="0"
   x="0"
   width="72"
   patternUnits="userSpaceOnUse"
   id="pattern937"
   height="72"><rect
     id="rect933"
     y="0"
     x="0"
     width="73"
     height="73"
     fill="#999999" /><path
     id="path935"
     style="fill:#ffffff;stroke:#ffffff;stroke-linecap:butt;stroke-linejoin:miter;stroke-width:1.5;"
     d="M -36 36  L 36 -36  M -30 42  L 42 -30  M -24 48  L 48 -24  M -18 54  L 54 -18  M -12 60  L 60 -12  M -6 66  L 66 -6  M 0 72  L 72 0  M 6 78  L 78 6  M 12 84  L 84 12  M 18 90  L 90 18  M 24 96  L 96 24  M 30 102  L 102 30  M 36 108  L 108 36  " /></pattern><clipPath
   id="clipPath941"><rect
     id="rect939"
     y="19.5345"
     x="64.806747"
     width="381.07318"
     height="217.44" /></clipPath><pattern
   y="0"
   x="0"
   width="72"
   patternUnits="userSpaceOnUse"
   id="pattern947"
   height="72"><rect
     id="rect943"
     y="0"
     x="0"
     width="73"
     height="73"
     fill="#999999" /><path
     id="path945"
     style="fill:#ffffff;stroke:#ffffff;stroke-linecap:butt;stroke-linejoin:miter;stroke-width:1.5;"
     d="M -36 36  L 36 -36  M -30 42  L 42 -30  M -24 48  L 48 -24  M -18 54  L 54 -18  M -12 60  L 60 -12  M -6 66  L 66 -6  M 0 72  L 72 0  M 6 78  L 78 6  M 12 84  L 84 12  M 18 90  L 90 18  M 24 96  L 96 24  M 30 102  L 102 30  M 36 108  L 108 36  " /></pattern><clipPath
   id="clipPath951"><rect
     id="rect949"
     y="19.5345"
     x="64.806747"
     width="381.07318"
     height="217.44" /></clipPath><pattern
   y="0"
   x="0"
   width="72"
   patternUnits="userSpaceOnUse"
   id="pattern957"
   height="72"><rect
     id="rect953"
     y="0"
     x="0"
     width="73"
     height="73"
     fill="#999999" /><path
     id="path955"
     style="fill:#ffffff;stroke:#ffffff;stroke-linecap:butt;stroke-linejoin:miter;stroke-width:1.5;"
     d="M -36 36  L 36 -36  M -30 42  L 42 -30  M -24 48  L 48 -24  M -18 54  L 54 -18  M -12 60  L 60 -12  M -6 66  L 66 -6  M 0 72  L 72 0  M 6 78  L 78 6  M 12 84  L 84 12  M 18 90  L 90 18  M 24 96  L 96 24  M 30 102  L 102 30  M 36 108  L 108 36  " /></pattern><clipPath
   id="clipPath961"><rect
     id="rect959"
     y="19.5345"
     x="64.806747"
     width="381.07318"
     height="217.44" /></clipPath><clipPath
   id="clipPath965"><rect
     id="rect963"
     y="19.5345"
     x="64.806747"
     width="381.07318"
     height="217.44" /></clipPath><clipPath
   id="clipPath969"><rect
     id="rect967"
     y="19.5345"
     x="64.806747"
     width="381.07318"
     height="217.44" /></clipPath><clipPath
   id="clipPath973"><rect
     id="rect971"
     y="19.5345"
     x="64.806747"
     width="381.07318"
     height="217.44" /></clipPath><clipPath
   id="clipPath977"><rect
     id="rect975"
     y="19.5345"
     x="64.806747"
     width="381.07318"
     height="217.44" /></clipPath><clipPath
   id="clipPath981"><rect
     id="rect979"
     y="19.5345"
     x="64.806747"
     width="381.07318"
     height="217.44" /></clipPath><clipPath
   id="clipPath985"><rect
     id="rect983"
     y="19.5345"
     x="64.806747"
     width="381.07318"
     height="217.44" /></clipPath><clipPath
   id="clipPath989"><rect
     id="rect987"
     y="19.5345"
     x="64.806747"
     width="381.07318"
     height="217.44" /></clipPath><clipPath
   id="clipPath993"><rect
     id="rect991"
     y="19.5345"
     x="64.806747"
     width="381.07318"
     height="217.44" /></clipPath><clipPath
   id="clipPath997"><rect
     id="rect995"
     y="19.5345"
     x="64.806747"
     width="381.07318"
     height="217.44" /></clipPath><clipPath
   id="clipPath1001"><rect
     id="rect999"
     y="19.5345"
     x="64.806747"
     width="381.07318"
     height="217.44" /></clipPath><clipPath
   id="clipPath1005"><rect
     id="rect1003"
     y="19.5345"
     x="64.806747"
     width="381.07318"
     height="217.44" /></clipPath><clipPath
   id="clipPath1009"><rect
     id="rect1007"
     y="19.5345"
     x="64.806747"
     width="381.07318"
     height="217.44" /></clipPath><clipPath
   id="clipPath1013"><rect
     id="rect1011"
     y="19.5345"
     x="64.806747"
     width="381.07318"
     height="217.44" /></clipPath><clipPath
   id="clipPath1017"><rect
     id="rect1015"
     y="19.5345"
     x="64.806747"
     width="381.07318"
     height="217.44" /></clipPath><pattern
   y="0"
   x="0"
   width="72"
   patternUnits="userSpaceOnUse"
   id="h22f384af74-5"
   height="72"><rect
     id="rect715-4"
     y="0"
     x="0"
     width="73"
     height="73"
     fill="#ff7043" /><path
     id="path717-7"
     style="fill:#ffffff;stroke:#ffffff;stroke-linecap:butt;stroke-linejoin:miter;stroke-width:1.5;"
     d="M -36 36  L 36 -36  M -30 42  L 42 -30  M -24 48  L 48 -24  M -18 54  L 54 -18  M -12 60  L 60 -12  M -6 66  L 66 -6  M 0 72  L 72 0  M 6 78  L 78 6  M 12 84  L 84 12  M 18 90  L 90 18  M 24 96  L 96 24  M 30 102  L 102 30  M 36 108  L 108 36  " /></pattern><clipPath
   id="clipPath1024"><rect
     id="rect1022"
     y="19.5345"
     x="64.806747"
     width="381.07318"
     height="217.44" /></clipPath><pattern
   y="0"
   x="0"
   width="72"
   patternUnits="userSpaceOnUse"
   id="pattern1030"
   height="72"><rect
     id="rect1026"
     y="0"
     x="0"
     width="73"
     height="73"
     fill="#ff7043" /><path
     id="path1028"
     style="fill:#ffffff;stroke:#ffffff;stroke-linecap:butt;stroke-linejoin:miter;stroke-width:1.5;"
     d="M -36 36  L 36 -36  M -30 42  L 42 -30  M -24 48  L 48 -24  M -18 54  L 54 -18  M -12 60  L 60 -12  M -6 66  L 66 -6  M 0 72  L 72 0  M 6 78  L 78 6  M 12 84  L 84 12  M 18 90  L 90 18  M 24 96  L 96 24  M 30 102  L 102 30  M 36 108  L 108 36  " /></pattern><clipPath
   id="clipPath1034"><rect
     id="rect1032"
     y="19.5345"
     x="64.806747"
     width="381.07318"
     height="217.44" /></clipPath><pattern
   y="0"
   x="0"
   width="72"
   patternUnits="userSpaceOnUse"
   id="pattern1040"
   height="72"><rect
     id="rect1036"
     y="0"
     x="0"
     width="73"
     height="73"
     fill="#ff7043" /><path
     id="path1038"
     style="fill:#ffffff;stroke:#ffffff;stroke-linecap:butt;stroke-linejoin:miter;stroke-width:1.5;"
     d="M -36 36  L 36 -36  M -30 42  L 42 -30  M -24 48  L 48 -24  M -18 54  L 54 -18  M -12 60  L 60 -12  M -6 66  L 66 -6  M 0 72  L 72 0  M 6 78  L 78 6  M 12 84  L 84 12  M 18 90  L 90 18  M 24 96  L 96 24  M 30 102  L 102 30  M 36 108  L 108 36  " /></pattern><clipPath
   id="clipPath1044"><rect
     id="rect1042"
     y="19.5345"
     x="64.806747"
     width="381.07318"
     height="217.44" /></clipPath><pattern
   y="0"
   x="0"
   width="72"
   patternUnits="userSpaceOnUse"
   id="pattern1050"
   height="72"><rect
     id="rect1046"
     y="0"
     x="0"
     width="73"
     height="73"
     fill="#ff7043" /><path
     id="path1048"
     style="fill:#ffffff;stroke:#ffffff;stroke-linecap:butt;stroke-linejoin:miter;stroke-width:1.5;"
     d="M -36 36  L 36 -36  M -30 42  L 42 -30  M -24 48  L 48 -24  M -18 54  L 54 -18  M -12 60  L 60 -12  M -6 66  L 66 -6  M 0 72  L 72 0  M 6 78  L 78 6  M 12 84  L 84 12  M 18 90  L 90 18  M 24 96  L 96 24  M 30 102  L 102 30  M 36 108  L 108 36  " /></pattern><clipPath
   id="clipPath1054"><rect
     id="rect1052"
     y="19.5345"
     x="64.806747"
     width="381.07318"
     height="217.44" /></clipPath><pattern
   y="0"
   x="0"
   width="72"
   patternUnits="userSpaceOnUse"
   id="pattern1060"
   height="72"><rect
     id="rect1056"
     y="0"
     x="0"
     width="73"
     height="73"
     fill="#ff7043" /><path
     id="path1058"
     style="fill:#ffffff;stroke:#ffffff;stroke-linecap:butt;stroke-linejoin:miter;stroke-width:1.5;"
     d="M -36 36  L 36 -36  M -30 42  L 42 -30  M -24 48  L 48 -24  M -18 54  L 54 -18  M -12 60  L 60 -12  M -6 66  L 66 -6  M 0 72  L 72 0  M 6 78  L 78 6  M 12 84  L 84 12  M 18 90  L 90 18  M 24 96  L 96 24  M 30 102  L 102 30  M 36 108  L 108 36  " /></pattern><clipPath
   id="clipPath1064"><rect
     id="rect1062"
     y="19.5345"
     x="64.806747"
     width="381.07318"
     height="217.44" /></clipPath><pattern
   y="0"
   x="0"
   width="72"
   patternUnits="userSpaceOnUse"
   id="pattern1070"
   height="72"><rect
     id="rect1066"
     y="0"
     x="0"
     width="73"
     height="73"
     fill="#ff7043" /><path
     id="path1068"
     style="fill:#ffffff;stroke:#ffffff;stroke-linecap:butt;stroke-linejoin:miter;stroke-width:1.5;"
     d="M -36 36  L 36 -36  M -30 42  L 42 -30  M -24 48  L 48 -24  M -18 54  L 54 -18  M -12 60  L 60 -12  M -6 66  L 66 -6  M 0 72  L 72 0  M 6 78  L 78 6  M 12 84  L 84 12  M 18 90  L 90 18  M 24 96  L 96 24  M 30 102  L 102 30  M 36 108  L 108 36  " /></pattern><clipPath
   id="clipPath1074"><rect
     id="rect1072"
     y="19.5345"
     x="64.806747"
     width="381.07318"
     height="217.44" /></clipPath><pattern
   y="0"
   x="0"
   width="72"
   patternUnits="userSpaceOnUse"
   id="pattern1080"
   height="72"><rect
     id="rect1076"
     y="0"
     x="0"
     width="73"
     height="73"
     fill="#ff7043" /><path
     id="path1078"
     style="fill:#ffffff;stroke:#ffffff;stroke-linecap:butt;stroke-linejoin:miter;stroke-width:1.5;"
     d="M -36 36  L 36 -36  M -30 42  L 42 -30  M -24 48  L 48 -24  M -18 54  L 54 -18  M -12 60  L 60 -12  M -6 66  L 66 -6  M 0 72  L 72 0  M 6 78  L 78 6  M 12 84  L 84 12  M 18 90  L 90 18  M 24 96  L 96 24  M 30 102  L 102 30  M 36 108  L 108 36  " /></pattern><clipPath
   id="clipPath1084"><rect
     id="rect1082"
     y="19.5345"
     x="64.806747"
     width="381.07318"
     height="217.44" /></clipPath><clipPath
   id="clipPath1088"><rect
     id="rect1086"
     y="19.5345"
     x="64.806747"
     width="381.07318"
     height="217.44" /></clipPath><clipPath
   id="clipPath1092"><rect
     id="rect1090"
     y="19.5345"
     x="64.806747"
     width="381.07318"
     height="217.44" /></clipPath><clipPath
   id="clipPath1096"><rect
     id="rect1094"
     y="19.5345"
     x="64.806747"
     width="381.07318"
     height="217.44" /></clipPath><clipPath
   id="clipPath1100"><rect
     id="rect1098"
     y="19.5345"
     x="64.806747"
     width="381.07318"
     height="217.44" /></clipPath><clipPath
   id="clipPath1104"><rect
     id="rect1102"
     y="19.5345"
     x="64.806747"
     width="381.07318"
     height="217.44" /></clipPath><clipPath
   id="clipPath1108"><rect
     id="rect1106"
     y="19.5345"
     x="64.806747"
     width="381.07318"
     height="217.44" /></clipPath><clipPath
   id="clipPath1112"><rect
     id="rect1110"
     y="19.5345"
     x="64.806747"
     width="381.07318"
     height="217.44" /></clipPath><pattern
   y="0"
   x="0"
   width="72"
   patternUnits="userSpaceOnUse"
   id="pattern1118"
   height="72"><rect
     id="rect1114"
     y="0"
     x="0"
     width="73"
     height="73"
     fill="#999999" /><path
     id="path1116"
     style="fill:#ffffff;stroke:#ffffff;stroke-linecap:butt;stroke-linejoin:miter;stroke-width:1.5;"
     d="M -36 36  L 36 -36  M -30 42  L 42 -30  M -24 48  L 48 -24  M -18 54  L 54 -18  M -12 60  L 60 -12  M -6 66  L 66 -6  M 0 72  L 72 0  M 6 78  L 78 6  M 12 84  L 84 12  M 18 90  L 90 18  M 24 96  L 96 24  M 30 102  L 102 30  M 36 108  L 108 36  " /></pattern><pattern
   y="0"
   x="0"
   width="72"
   patternUnits="userSpaceOnUse"
   id="pattern1124"
   height="72"><rect
     id="rect1120"
     y="0"
     x="0"
     width="73"
     height="73"
     fill="#ff7043" /><path
     id="path1122"
     style="fill:#ffffff;stroke:#ffffff;stroke-linecap:butt;stroke-linejoin:miter;stroke-width:1.5;"
     d="M -36 36  L 36 -36  M -30 42  L 42 -30  M -24 48  L 48 -24  M -18 54  L 54 -18  M -12 60  L 60 -12  M -6 66  L 66 -6  M 0 72  L 72 0  M 6 78  L 78 6  M 12 84  L 84 12  M 18 90  L 90 18  M 24 96  L 96 24  M 30 102  L 102 30  M 36 108  L 108 36  " /></pattern><clipPath
   id="pa172238075"><rect
     id="rect705"
     y="19.5345"
     x="456.76773"
     width="54.439026"
     height="217.44" /></clipPath><clipPath
   id="clipPath1130"><rect
     id="rect1128"
     y="19.5345"
     x="456.76773"
     width="54.439026"
     height="217.44" /></clipPath><clipPath
   id="clipPath1134"><rect
     id="rect1132"
     y="19.5345"
     x="456.76773"
     width="54.439026"
     height="217.44" /></clipPath><clipPath
   id="clipPath1138"><rect
     id="rect1136"
     y="19.5345"
     x="456.76773"
     width="54.439026"
     height="217.44" /></clipPath><clipPath
   id="clipPath1142"><rect
     id="rect1140"
     y="19.5345"
     x="456.76773"
     width="54.439026"
     height="217.44" /></clipPath><clipPath
   id="clipPath1146"><rect
     id="rect1144"
     y="19.5345"
     x="456.76773"
     width="54.439026"
     height="217.44" /></clipPath><clipPath
   id="clipPath1150"><rect
     id="rect1148"
     y="19.5345"
     x="456.76773"
     width="54.439026"
     height="217.44" /></clipPath><pattern
   y="0"
   x="0"
   width="72"
   patternUnits="userSpaceOnUse"
   id="pattern1156"
   height="72"><rect
     id="rect1152"
     y="0"
     x="0"
     width="73"
     height="73"
     fill="#999999" /><path
     id="path1154"
     style="fill:#ffffff;stroke:#ffffff;stroke-linecap:butt;stroke-linejoin:miter;stroke-width:1.5;"
     d="M -36 36  L 36 -36  M -30 42  L 42 -30  M -24 48  L 48 -24  M -18 54  L 54 -18  M -12 60  L 60 -12  M -6 66  L 66 -6  M 0 72  L 72 0  M 6 78  L 78 6  M 12 84  L 84 12  M 18 90  L 90 18  M 24 96  L 96 24  M 30 102  L 102 30  M 36 108  L 108 36  " /></pattern><clipPath
   id="clipPath1160"><rect
     id="rect1158"
     y="19.5345"
     x="456.76773"
     width="54.439026"
     height="217.44" /></clipPath><clipPath
   id="clipPath1164"><rect
     id="rect1162"
     y="19.5345"
     x="456.76773"
     width="54.439026"
     height="217.44" /></clipPath><clipPath
   id="clipPath1168"><rect
     id="rect1166"
     y="19.5345"
     x="456.76773"
     width="54.439026"
     height="217.44" /></clipPath><pattern
   y="0"
   x="0"
   width="72"
   patternUnits="userSpaceOnUse"
   id="pattern1174"
   height="72"><rect
     id="rect1170"
     y="0"
     x="0"
     width="73"
     height="73"
     fill="#ff7043" /><path
     id="path1172"
     style="fill:#ffffff;stroke:#ffffff;stroke-linecap:butt;stroke-linejoin:miter;stroke-width:1.5;"
     d="M -36 36  L 36 -36  M -30 42  L 42 -30  M -24 48  L 48 -24  M -18 54  L 54 -18  M -12 60  L 60 -12  M -6 66  L 66 -6  M 0 72  L 72 0  M 6 78  L 78 6  M 12 84  L 84 12  M 18 90  L 90 18  M 24 96  L 96 24  M 30 102  L 102 30  M 36 108  L 108 36  " /></pattern><clipPath
   id="clipPath1178"><rect
     id="rect1176"
     y="19.5345"
     x="456.76773"
     width="54.439026"
     height="217.44" /></clipPath><clipPath
   id="clipPath1182"><rect
     id="rect1180"
     y="19.5345"
     x="456.76773"
     width="54.439026"
     height="217.44" /></clipPath><path
   id="DejaVuSans-Bold-75"
   d="M 9.1875,72.90625 H 27.984375 V 46.296875 L 55.078125,72.90625 H 76.90625 L 41.796875,38.375 80.515625,0 h -23.53125 l -29,28.71875 V 0 H 9.1875 Z" /><path
   id="DejaVuSans-Bold-67"
   d="m 67,4 q -5.1875,-2.6875 -10.796875,-4.046875 -5.609375,-1.375 -11.71875,-1.375 -18.21875,0 -28.859375,10.1875 Q 4.984375,18.953125 4.984375,36.375 q 0,17.484375 10.640625,27.65625 10.640625,10.1875 28.859375,10.1875 6.109375,0 11.71875,-1.375 Q 61.8125,71.484375 67,68.796875 V 53.71875 Q 61.765625,57.28125 56.6875,58.9375 51.609375,60.59375 46,60.59375 q -10.0625,0 -15.828125,-6.453125 -5.75,-6.4375 -5.75,-17.765625 0,-11.28125 5.75,-17.734375 5.765625,-6.4375 15.828125,-6.4375 5.609375,0 10.6875,1.65625 Q 61.765625,15.53125 67,19.09375 Z" /><path
   id="DejaVuSans-Bold-108"
   d="M 8.40625,75.984375 H 25.875 V 0 H 8.40625 Z" /><path
   id="DejaVuSans-Bold-77"
   d="M 9.1875,72.90625 H 33.109375 L 49.703125,33.890625 66.40625,72.90625 h 23.875 V 0 H 72.515625 V 53.328125 L 55.71875,14.015625 H 43.796875 L 27,53.328125 V 0 H 9.1875 Z" /><path
   id="DejaVuSans-Bold-97"
   d="m 32.90625,24.609375 q -5.46875,0 -8.234375,-1.859375 -2.75,-1.84375 -2.75,-5.46875 0,-3.3125 2.21875,-5.203125 2.234375,-1.875 6.1875,-1.875 4.921875,0 8.296875,3.53125 3.375,3.546875 3.375,8.875 v 2 z M 59.625,31.203125 V 0 H 42 V 8.109375 Q 38.484375,3.125 34.078125,0.84375 29.6875,-1.421875 23.390625,-1.421875 q -8.5,0 -13.796875,4.953125 -5.296875,4.96875 -5.296875,12.875 0,9.625 6.609375,14.109375 6.625,4.5 20.78125,4.5 H 42 V 36.375 q 0,4.15625 -3.28125,6.078125 -3.265625,1.9375 -10.203125,1.9375 -5.609375,0 -10.453125,-1.125 -4.828125,-1.125 -8.984375,-3.375 V 53.21875 q 5.625,1.375 11.28125,2.078125 Q 26.03125,56 31.6875,56 46.484375,56 53.046875,50.171875 59.625,44.34375 59.625,31.203125 Z" /><path
   id="DejaVuSans-Bold-83"
   d="m 59.90625,70.609375 v -15.4375 q -6,2.6875 -11.71875,4.046875 -5.703125,1.375 -10.78125,1.375 -6.734375,0 -9.96875,-1.859375 -3.21875,-1.84375 -3.21875,-5.75 0,-2.9375 2.171875,-4.578125 2.171875,-1.625 7.890625,-2.796875 l 8,-1.609375 q 12.15625,-2.453125 17.28125,-7.4375 5.140625,-4.96875 5.140625,-14.15625 0,-12.046875 -7.15625,-17.9375 -7.15625,-5.890625 -21.859375,-5.890625 -6.921875,0 -13.90625,1.328125 Q 14.796875,1.21875 7.8125,3.8125 v 15.859375 q 6.984375,-3.703125 13.5,-5.59375 6.515625,-1.875 12.578125,-1.875 6.15625,0 9.421875,2.046875 3.265625,2.0625 3.265625,5.875 0,3.40625 -2.21875,5.265625 Q 42.140625,27.25 35.5,28.71875 l -7.28125,1.609375 q -10.9375,2.34375 -16,7.46875 -5.046875,5.125 -5.046875,13.8125 0,10.890625 7.03125,16.75 7.03125,5.859375 20.21875,5.859375 6.015625,0 12.359375,-0.90625 6.34375,-0.90625 13.125,-2.703125 z" /><path
   id="DejaVuSans-Bold-117"
   d="M 7.8125,21.296875 V 54.6875 h 17.578125 v -5.46875 q 0,-4.4375 -0.04687,-11.15625 -0.04687,-6.71875 -0.04687,-8.953125 0,-6.59375 0.34375,-9.5 0.34375,-2.90625 1.171875,-4.234375 1.0625,-1.703125 2.796875,-2.640625 1.734375,-0.921875 3.984375,-0.921875 5.46875,0 8.59375,4.203125 3.125,4.203125 3.125,11.671875 v 27 H 62.796875 V 0 H 45.3125 v 7.90625 q -3.953125,-4.78125 -8.375,-7.0625 -4.421875,-2.265625 -9.734375,-2.265625 -9.484375,0 -14.4375,5.8125 -4.953125,5.8125 -4.953125,16.90625 z" /><path
   id="DejaVuSans-Bold-99"
   d="M 52.59375,52.984375 V 38.71875 q -3.5625,2.4375 -7.15625,3.609375 Q 41.84375,43.5 37.984375,43.5 q -7.3125,0 -11.390625,-4.265625 -4.078125,-4.265625 -4.078125,-11.9375 0,-7.671875 4.078125,-11.953125 4.078125,-4.265625 11.390625,-4.265625 4.109375,0 7.796875,1.21875 3.6875,1.234375 6.8125,3.625 V 1.609375 Q 48.484375,0.09375 44.265625,-0.65625 q -4.21875,-0.765625 -8.46875,-0.765625 -14.796875,0 -23.15625,7.59375 -8.34375,7.59375 -8.34375,21.125 0,13.53125 8.34375,21.109375 Q 21,56 35.796875,56 40.09375,56 44.265625,55.25 48.4375,54.5 52.59375,52.984375 Z" /><path
   id="DejaVuSans-Bold-71"
   d="M 74.703125,5.421875 Q 67.671875,2 60.109375,0.28125 q -7.5625,-1.703125 -15.625,-1.703125 -18.21875,0 -28.859375,10.1875 Q 4.984375,18.953125 4.984375,36.375 4.984375,54 15.8125,64.109375 26.65625,74.21875 45.515625,74.21875 q 7.265625,0 13.921875,-1.375 6.671875,-1.359375 12.578125,-4.046875 V 53.71875 q -6.09375,3.453125 -12.125,5.15625 -6.03125,1.71875 -12.09375,1.71875 -11.21875,0 -17.296875,-6.28125 -6.078125,-6.265625 -6.078125,-17.9375 0,-11.5625 5.859375,-17.875 5.859375,-6.296875 16.640625,-6.296875 2.9375,0 5.453125,0.359375 2.515625,0.375 4.515625,1.15625 V 27.875 H 45.40625 v 12.609375 h 29.296875 z" /><path
   id="DejaVuSans-Bold-70"
   d="M 9.1875,72.90625 H 59.90625 V 58.6875 H 27.984375 V 45.125 h 30.03125 V 30.90625 H 27.984375 V 0 H 9.1875 Z" /><path
   id="DejaVuSans-Bold-114"
   d="M 49.03125,39.796875 Q 46.734375,40.875 44.453125,41.375 q -2.265625,0.515625 -4.5625,0.515625 -6.734375,0 -10.375,-4.328125 Q 25.875,33.25 25.875,25.203125 V 0 H 8.40625 V 54.6875 H 25.875 v -8.984375 q 3.375,5.375 7.734375,7.828125 Q 37.984375,56 44.09375,56 q 0.875,0 1.890625,-0.07813 1.03125,-0.0625 2.984375,-0.3125 z" /><path
   id="DejaVuSans-Bold-78"
   d="m 9.1875,72.90625 h 20.984375 l 26.515625,-50 v 50 H 74.515625 V 0 h -21 L 27,50 V 0 H 9.1875 Z" /><path
   id="DejaVuSans-Bold-105"
   d="M 8.40625,54.6875 H 25.875 V 0 H 8.40625 Z m 0,21.296875 H 25.875 V 61.71875 H 8.40625 Z" /><path
   id="DejaVuSans-Bold-116"
   d="M 27.484375,70.21875 V 54.6875 h 18.03125 v -12.5 H 27.484375 V 19 Q 27.484375,15.1875 29,13.84375 30.515625,12.5 35.015625,12.5 H 44 V 0 H 29 Q 18.65625,0 14.328125,4.3125 10.015625,8.640625 10.015625,19 V 42.1875 H 1.3125 v 12.5 h 8.703125 v 15.53125 z" /><path
   id="DejaVuSans-Bold-101"
   d="m 62.984375,27.484375 v -4.96875 H 22.125 q 0.625,-6.15625 4.4375,-9.234375 3.8125,-3.078125 10.640625,-3.078125 5.515625,0 11.296875,1.640625 5.796875,1.640625 11.90625,4.953125 V 3.328125 Q 54.203125,0.984375 48,-0.21875 41.796875,-1.421875 35.59375,-1.421875 q -14.84375,0 -23.078125,7.546875 -8.21875,7.546875 -8.21875,21.171875 0,13.375 8.078125,21.03125 Q 20.453125,56 34.625,56 q 12.890625,0 20.625,-7.765625 7.734375,-7.75 7.734375,-20.75 z m -17.96875,5.8125 q 0,4.984375 -2.90625,8.03125 -2.90625,3.0625 -7.59375,3.0625 -5.078125,0 -8.25,-2.859375 Q 23.09375,38.671875 22.3125,33.296875 Z" /><path
   id="DejaVuSans-Bold-48"
   d="m 46,36.53125 q 0,13.671875 -2.5625,19.25 -2.5625,5.59375 -8.625,5.59375 -6.046875,0 -8.640625,-5.59375 -2.59375,-5.578125 -2.59375,-19.25 0,-13.828125 2.59375,-19.5 2.59375,-5.65625 8.640625,-5.65625 6.015625,0 8.59375,5.65625 Q 46,22.703125 46,36.53125 Z M 64.796875,36.375 q 0,-18.109375 -7.8125,-27.953125 -7.8125,-9.84375 -22.171875,-9.84375 -14.40625,0 -22.21875,9.84375 -7.8125,9.84375 -7.8125,27.953125 0,18.171875 7.8125,28 7.8125,9.84375 22.21875,9.84375 14.359375,0 22.171875,-9.84375 7.8125,-9.828125 7.8125,-28 z" /><path
   id="DejaVuSans-Bold-50"
   d="M 28.8125,13.8125 H 60.890625 V 0 H 7.90625 v 13.8125 l 26.609375,23.5 q 3.578125,3.21875 5.28125,6.296875 Q 41.5,46.6875 41.5,50 q 0,5.125 -3.4375,8.25 -3.4375,3.125 -9.15625,3.125 -4.390625,0 -9.625,-1.875 Q 14.0625,57.625 8.109375,53.90625 v 16.015625 q 6.34375,2.09375 12.546875,3.1875 6.203125,1.109375 12.15625,1.109375 13.09375,0 20.34375,-5.765625 7.25,-5.75 7.25,-16.0625 0,-5.953125 -3.078125,-11.109375 Q 54.25,36.140625 44.390625,27.484375 Z" /><path
   id="DejaVuSans-Bold-52"
   d="M 36.8125,57.421875 16.21875,26.90625 H 36.8125 Z m -3.125,15.484375 h 20.90625 v -46 h 10.390625 v -13.625 H 54.59375 V 0 H 36.8125 V 13.28125 H 4.5 v 16.109375 z" /><path
   id="DejaVuSans-Bold-54"
   d="m 36.1875,35.984375 q -4.9375,0 -7.40625,-3.203125 -2.46875,-3.1875 -2.46875,-9.59375 0,-6.390625 2.46875,-9.59375 2.46875,-3.1875 7.40625,-3.1875 4.96875,0 7.4375,3.1875 2.46875,3.203125 2.46875,9.59375 0,6.40625 -2.46875,9.59375 -2.46875,3.203125 -7.4375,3.203125 z M 59.421875,71 V 57.515625 q -4.640625,2.203125 -8.75,3.25 -4.09375,1.046875 -8,1.046875 -8.390625,0 -13.078125,-4.671875 -4.6875,-4.65625 -5.46875,-13.828125 3.21875,2.390625 6.96875,3.578125 3.765625,1.203125 8.21875,1.203125 11.171875,0 18.03125,-6.546875 6.859375,-6.53125 6.859375,-17.125 0,-11.71875 -7.671875,-18.78125 -7.65625,-7.0625 -20.546875,-7.0625 -14.203125,0 -22,9.59375 -7.78125,9.609375 -7.78125,27.234375 0,18.0625 9.109375,28.390625 Q 24.421875,74.125 40.28125,74.125 q 5.03125,0 9.765625,-0.78125 Q 54.78125,72.5625 59.421875,71 Z" /><path
   id="DejaVuSans-Bold-56"
   d="m 34.8125,32.625 q -5.265625,0 -8.109375,-2.890625 -2.828125,-2.875 -2.828125,-8.25 0,-5.375 2.828125,-8.234375 2.84375,-2.84375 8.109375,-2.84375 5.234375,0 8.015625,2.84375 2.78125,2.859375 2.78125,8.234375 0,5.421875 -2.78125,8.28125 Q 40.046875,32.625 34.8125,32.625 Z M 21.09375,38.8125 Q 14.453125,40.828125 11.078125,44.96875 7.71875,49.125 7.71875,55.328125 q 0,9.21875 6.875,14.046875 6.890625,4.84375 20.21875,4.84375 13.234375,0 20.109375,-4.8125 Q 61.8125,64.59375 61.8125,55.328125 61.8125,49.125 58.421875,44.96875 55.03125,40.828125 48.390625,38.8125 55.8125,36.765625 59.59375,32.15625 63.375,27.546875 63.375,20.515625 63.375,9.671875 56.171875,4.125 48.96875,-1.421875 34.8125,-1.421875 q -14.203125,0 -21.453125,5.546875 -7.25,5.546875 -7.25,16.390625 0,7.03125 3.78125,11.640625 3.78125,4.609375 11.203125,6.65625 z m 4.390625,14.609375 q 0,-4.34375 2.421875,-6.6875 2.421875,-2.34375 6.90625,-2.34375 4.390625,0 6.78125,2.34375 Q 44,49.078125 44,53.421875 q 0,4.34375 -2.40625,6.65625 -2.390625,2.328125 -6.78125,2.328125 -4.484375,0 -6.90625,-2.34375 -2.421875,-2.34375 -2.421875,-6.640625 z" /><path
   id="DejaVuSans-Bold-49"
   d="m 11.71875,12.984375 h 16.609375 v 47.125 L 11.28125,56.59375 v 12.796875 l 16.9375,3.515625 h 17.875 V 12.984375 H 62.703125 V 0 H 11.71875 Z" /><path
   id="DejaVuSans-Bold-79"
   d="m 42.484375,60.59375 q -8.59375,0 -13.328125,-6.34375 -4.734375,-6.34375 -4.734375,-17.875 0,-11.46875 4.734375,-17.828125 4.734375,-6.34375 13.328125,-6.34375 8.640625,0 13.375,6.34375 4.734375,6.359375 4.734375,17.828125 0,11.53125 -4.734375,17.875 -4.734375,6.34375 -13.375,6.34375 z m 0,13.625 q 17.578125,0 27.53125,-10.0625 9.96875,-10.046875 9.96875,-27.78125 0,-17.671875 -9.96875,-27.734375 -9.953125,-10.0625 -27.53125,-10.0625 -17.53125,0 -27.515625,10.0625 -9.984375,10.0625 -9.984375,27.734375 0,17.734375 9.984375,27.78125 9.984375,10.0625 27.515625,10.0625 z" /><path
   id="DejaVuSans-Bold-115"
   d="m 51.125,52.984375 v -13.28125 q -5.609375,2.34375 -10.84375,3.515625 -5.21875,1.171875 -9.859375,1.171875 -4.984375,0 -7.40625,-1.25 -2.40625,-1.25 -2.40625,-3.828125 0,-2.109375 1.828125,-3.234375 Q 24.265625,34.96875 29,34.421875 l 3.078125,-0.4375 q 13.4375,-1.703125 18.0625,-5.609375 4.640625,-3.90625 4.640625,-12.265625 0,-8.734375 -6.453125,-13.140625 -6.4375,-4.390625 -19.21875,-4.390625 -5.421875,0 -11.21875,0.859375 Q 12.109375,0.296875 6,2 v 13.28125 q 5.234375,-2.53125 10.71875,-3.8125 5.5,-1.265625 11.15625,-1.265625 5.140625,0 7.71875,1.40625 2.59375,1.421875 2.59375,4.21875 0,2.34375 -1.78125,3.484375 -1.78125,1.140625 -7.109375,1.78125 l -3.078125,0.390625 q -11.671875,1.46875 -16.359375,5.421875 -4.6875,3.953125 -4.6875,12.015625 0,8.6875 5.953125,12.875 Q 17.09375,56 29.390625,56 34.234375,56 39.546875,55.265625 44.875,54.546875 51.125,52.984375 Z" /><path
   id="DejaVuSans-Bold-109"
   d="M 59.078125,45.609375 Q 62.40625,50.6875 66.96875,53.34375 71.53125,56 77,56 q 9.421875,0 14.359375,-5.8125 4.9375,-5.796875 4.9375,-16.890625 V 0 H 78.71875 v 28.515625 q 0.04687,0.640625 0.0625,1.3125 0.03125,0.6875 0.03125,1.953125 0,5.8125 -1.71875,8.421875 -1.703125,2.625 -5.515625,2.625 -4.96875,0 -7.6875,-4.109375 Q 61.1875,34.625 61.078125,26.859375 V 0 H 43.5 v 28.515625 q 0,9.078125 -1.5625,11.6875 -1.5625,2.625 -5.5625,2.625 -5.03125,0 -7.765625,-4.125 Q 25.875,34.578125 25.875,26.90625 V 0 H 8.296875 V 54.6875 H 25.875 v -8 q 3.234375,4.625 7.40625,6.96875 Q 37.453125,56 42.484375,56 q 5.65625,0 10,-2.734375 4.359375,-2.734375 6.59375,-7.65625 z" /><path
   id="DejaVuSans-Bold-111"
   d="m 34.421875,43.5 q -5.8125,0 -8.859375,-4.171875 -3.046875,-4.171875 -3.046875,-12.03125 0,-7.859375 3.046875,-12.046875 3.046875,-4.171875 8.859375,-4.171875 5.71875,0 8.734375,4.171875 3.03125,4.1875 3.03125,12.046875 0,7.859375 -3.03125,12.03125 Q 40.140625,43.5 34.421875,43.5 Z m 0,12.5 q 14.109375,0 22.046875,-7.625 7.9375,-7.609375 7.9375,-21.078125 0,-13.484375 -7.9375,-21.109375 -7.9375,-7.609375 -22.046875,-7.609375 -14.15625,0 -22.140625,7.609375 -7.984375,7.625 -7.984375,21.109375 0,13.46875 7.984375,21.078125 Q 20.265625,56 34.421875,56 Z" /><path
   id="DejaVuSans-Bold-121"
   d="M 1.21875,54.6875 H 18.703125 L 33.40625,17.578125 45.90625,54.6875 H 63.375 l -23,-59.859375 Q 36.921875,-14.3125 32.296875,-17.9375 27.6875,-21.578125 20.125,-21.578125 H 10.015625 v 11.46875 h 5.46875 q 4.4375,0 6.453125,1.421875 2.03125,1.40625 3.15625,5.078125 l 0.5,1.515625 z" /><path
   id="DejaVuSans-Bold-32"
   d="" /><path
   id="DejaVuSans-Bold-110"
   d="M 63.375,33.296875 V 0 H 45.796875 v 5.421875 20.0625 q 0,7.078125 -0.3125,9.765625 -0.3125,2.6875 -1.09375,3.953125 -1.03125,1.71875 -2.796875,2.671875 -1.75,0.953125 -4,0.953125 Q 32.125,42.828125 29,38.59375 25.875,34.375 25.875,26.90625 V 0 H 8.40625 V 54.6875 H 25.875 v -8 q 3.953125,4.78125 8.390625,7.046875 Q 38.71875,56 44.09375,56 53.5625,56 58.46875,50.1875 63.375,44.390625 63.375,33.296875 Z" /><path
   id="DejaVuSans-Bold-40"
   d="M 37.703125,-13.1875 H 23.1875 Q 15.71875,-1.125 12.15625,9.734375 q -3.5625,10.875 -3.5625,21.5625 0,10.703125 3.578125,21.65625 3.59375,10.96875 11.015625,22.921875 h 14.515625 q -6.25,-11.5625 -9.375,-22.625 -3.125,-11.0625 -3.125,-21.859375 0,-10.78125 3.09375,-21.875 3.09375,-11.078125 9.40625,-22.703125 z" /><path
   id="DejaVuSans-Bold-41"
   d="m 8.015625,-13.1875 q 6.25,11.625 9.375,22.703125 3.125,11.09375 3.125,21.875 0,10.796875 -3.125,21.859375 -3.125,11.0625 -9.375,22.625 h 14.5 q 7.421875,-11.953125 11,-22.921875 3.59375,-10.953125 3.59375,-21.65625 0,-10.6875 -3.5625,-21.5625 Q 29.984375,-1.125 22.515625,-13.1875 Z" /><path
   id="DejaVuSans-Bold-69"
   d="M 9.1875,72.90625 H 59.90625 V 58.6875 H 27.984375 V 45.125 h 30.03125 V 30.90625 H 27.984375 V 14.203125 h 33 V 0 H 9.1875 Z" /><path
   id="DejaVuSans-Bold-87"
   d="M 2.984375,72.90625 H 21 l 12.59375,-52.984375 12.5,52.984375 h 18.109375 l 12.5,-52.984375 L 89.3125,72.90625 h 17.85938 L 89.984375,0 H 68.3125 L 55.078125,55.421875 42,0 H 20.3125 Z" /><path
   id="DejaVuSans-Bold-84"
   d="m 0.484375,72.90625 h 67.1875 V 58.6875 H 43.5 V 0 H 24.703125 V 58.6875 H 0.484375 Z" /><path
   id="DejaVuSans-Bold-45"
   d="m 5.421875,35.890625 h 30.65625 V 21.6875 H 5.421875 Z" /><path
   id="DejaVuSans-Bold-104"
   d="M 63.375,33.296875 V 0 H 45.796875 v 5.421875 19.96875 q 0,7.171875 -0.3125,9.859375 -0.3125,2.6875 -1.09375,3.953125 -1.03125,1.71875 -2.796875,2.671875 -1.75,0.953125 -4,0.953125 Q 32.125,42.828125 29,38.59375 25.875,34.375 25.875,26.90625 V 0 H 8.40625 V 75.984375 H 25.875 V 46.6875 q 3.953125,4.78125 8.390625,7.046875 Q 38.71875,56 44.09375,56 53.5625,56 58.46875,50.1875 63.375,44.390625 63.375,33.296875 Z" /><path
   id="DejaVuSans-Bold-51"
   d="m 46.578125,39.3125 q 7.375,-1.90625 11.203125,-6.625 3.84375,-4.703125 3.84375,-11.984375 0,-10.84375 -8.3125,-16.484375 -8.296875,-5.640625 -24.203125,-5.640625 -5.625,0 -11.265625,0.90625 -5.640625,0.90625 -11.15625,2.71875 v 14.5 Q 11.96875,14.0625 17.15625,12.71875 22.359375,11.375 27.390625,11.375 q 7.46875,0 11.453125,2.578125 3.984375,2.59375 3.984375,7.4375 0,4.984375 -4.078125,7.546875 Q 34.671875,31.5 26.703125,31.5 H 19.1875 v 12.109375 h 7.90625 q 7.09375,0 10.546875,2.21875 3.46875,2.21875 3.46875,6.765625 0,4.1875 -3.375,6.484375 Q 34.375,61.375 28.21875,61.375 23.6875,61.375 19.046875,60.34375 14.40625,59.328125 9.8125,57.328125 V 71.09375 q 5.5625,1.5625 11.03125,2.34375 5.46875,0.78125 10.75,0.78125 14.203125,0 21.25,-4.671875 7.0625,-4.65625 7.0625,-14.03125 0,-6.390625 -3.375,-10.46875 Q 53.171875,40.96875 46.578125,39.3125 Z" /><path
   id="DejaVuSans-Bold-65"
   d="M 53.421875,13.28125 H 24.03125 L 19.390625,0 H 0.484375 l 27,72.90625 H 49.90625 L 76.90625,0 H 58.015625 Z M 28.71875,26.8125 H 48.6875 l -9.96875,29 z" /><path
   id="DejaVuSans-BoldOblique-956"
   d="M -2.6875,-20.90625 12.015625,54.6875 H 29.59375 L 23.390625,22.90625 Q 23.1875,21.875 23.09375,20.890625 23,19.921875 23,19.09375 q 0,-3.5625 2.09375,-5.46875 2.109375,-1.90625 6.109375,-1.90625 4.984375,0 7.90625,2.734375 2.9375,2.734375 4.109375,8.453125 L 49.421875,54.6875 H 67 L 59.90625,18.109375 q -0.1875,-1.015625 -0.296875,-1.875 -0.09375,-0.859375 -0.09375,-1.53125 0,-1.421875 0.65625,-2.109375 0.671875,-0.671875 2.03125,-0.671875 0.828125,0 1.78125,0.265625 0.953125,0.265625 1.9375,0.796875 L 63.484375,0.78125 Q 60.6875,-0.34375 58.296875,-0.875 55.90625,-1.421875 53.71875,-1.421875 49.421875,-1.421875 47,0.4375 44.578125,2.296875 43.609375,6.296875 40.578125,2.4375 36.890625,0.5 q -3.6875,-1.921875 -7.984375,-1.921875 -3.609375,0 -5.890625,1.15625 Q 20.75,0.875 19.671875,3.21875 l -4.6875,-24.125 z" /><marker
   style="overflow:visible"
   id="marker1876-6-3"
   refX="-0.34999999"
   refY="0"
   orient="auto"
   inkscape:stockid="TriangleOutS"
   inkscape:isstock="true"><path
     transform="scale(0.11)"
     style="fill:context-stroke;fill-rule:evenodd;stroke:context-stroke;stroke-width:1pt"
     d="M 10,0 -2.88,15 v -30 z"
     id="path1763-2-6" /></marker><marker
   style="overflow:visible"
   id="marker8833"
   refX="-0.34999999"
   refY="0"
   orient="auto"
   inkscape:stockid="TriangleOutS"
   inkscape:isstock="true"><path
     transform="scale(0.11)"
     style="fill:context-stroke;fill-rule:evenodd;stroke:context-stroke;stroke-width:1pt"
     d="M 10,0 -2.88,15 v -30 z"
     id="path8831" /></marker><marker
   style="overflow:visible"
   id="marker1876-6-3-3"
   refX="-0.34999999"
   refY="0"
   orient="auto"
   inkscape:stockid="TriangleOutS"
   inkscape:isstock="true"><path
     transform="scale(0.11)"
     style="fill:context-stroke;fill-rule:evenodd;stroke:context-stroke;stroke-width:1pt"
     d="M 10,0 -2.88,15 v -30 z"
     id="path1763-2-6-5" /></marker><marker
   style="overflow:visible"
   id="marker9504"
   refX="-0.34999999"
   refY="0"
   orient="auto"
   inkscape:stockid="TriangleOutS"
   inkscape:isstock="true"><path
     transform="scale(0.11)"
     style="fill:context-stroke;fill-rule:evenodd;stroke:context-stroke;stroke-width:1pt"
     d="M 10,0 -2.88,15 v -30 z"
     id="path9502" /></marker><pattern
   y="0"
   x="0"
   width="72"
   patternUnits="userSpaceOnUse"
   id="ha7f08587e3-1-53"
   height="72"><rect
     id="rect710-0-56"
     y="0"
     x="0"
     width="73"
     height="73"
     fill="#999999" /><path
     id="path712-6-2"
     style="fill:#ffffff;stroke:#ffffff;stroke-linecap:butt;stroke-linejoin:miter;stroke-width:1.5;"
     d="M -36 36  L 36 -36  M -30 42  L 42 -30  M -24 48  L 48 -24  M -18 54  L 54 -18  M -12 60  L 60 -12  M -6 66  L 66 -6  M 0 72  L 72 0  M 6 78  L 78 6  M 12 84  L 84 12  M 18 90  L 90 18  M 24 96  L 96 24  M 30 102  L 102 30  M 36 108  L 108 36  " /></pattern><pattern
   y="0"
   x="0"
   width="72"
   patternUnits="userSpaceOnUse"
   id="h22f384af74-6-7"
   height="72"><rect
     id="rect715-1-0"
     y="0"
     x="0"
     width="73"
     height="73"
     fill="#ff7043" /><path
     id="path717-8-9"
     style="fill:#ffffff;stroke:#ffffff;stroke-linecap:butt;stroke-linejoin:miter;stroke-width:1.5;"
     d="M -36 36  L 36 -36  M -30 42  L 42 -30  M -24 48  L 48 -24  M -18 54  L 54 -18  M -12 60  L 60 -12  M -6 66  L 66 -6  M 0 72  L 72 0  M 6 78  L 78 6  M 12 84  L 84 12  M 18 90  L 90 18  M 24 96  L 96 24  M 30 102  L 102 30  M 36 108  L 108 36  " /></pattern></defs><sodipodi:namedview
   inkscape:document-rotation="0"
   units="in"
   inkscape:current-layer="g58016"
   inkscape:window-maximized="1"
   inkscape:window-y="52"
   inkscape:window-x="12"
   inkscape:cy="251.5989"
   inkscape:cx="361.10308"
   inkscape:zoom="1.150641"
   showborder="true"
   showgrid="false"
   id="namedview1343"
   inkscape:window-height="1012"
   inkscape:window-width="1892"
   inkscape:pageshadow="2"
   inkscape:pageopacity="0"
   guidetolerance="10"
   gridtolerance="10"
   objecttolerance="10"
   borderopacity="1"
   bordercolor="#666666"
   pagecolor="#ffffff"
   scale-x="1.00001"
   lock-margins="true"
   fit-margin-top="0.1"
   fit-margin-left="0.1"
   fit-margin-right="0.1"
   fit-margin-bottom="0.1"
   inkscape:pagecheckerboard="0"
   inkscape:document-units="in"
   showguides="false"
   inkscape:snap-global="true" />

<g
   transform="matrix(0.98298572,0,0,0.98298572,-70.570704,-128.61707)"
   inkscape:label="condition"
   id="g7246"><g
     style="opacity:1"
     inkscape:label="genotype"
     id="g58016"
     transform="translate(42.941678,-22.82631)"><g
       transform="matrix(0.69214595,0,0,1,0.18614903,0)"
       style="display:inline;opacity:1"
       inkscape:label="Background"
       id="g57804"><path
         id="path57796"
         style="fill:#e8f5e9;stroke:#4caf50;stroke-width:2.98534;stroke-miterlimit:1.5;stroke-dasharray:none"
         d="m 302.6038,165.45979 c 62.64021,0.36483 27.46851,89.03108 27.46851,198.69266 0,109.66157 35.17165,198.23447 -27.46851,198.68992 C 29.583115,564.82746 60.963025,551.04592 60.444505,365.15598 59.858065,154.91668 10.942175,163.76109 302.6038,165.45979 Z"
         sodipodi:nodetypes="sssss" /><path
         sodipodi:nodetypes="sssss"
         d="m 328.82681,451.90606 c 3.36725,31.43614 21.67717,105.91751 -25.24542,106.0034 -261.539035,0.47877 -239.191655,-12.76621 -238.909615,-150.1743 0.025,-12.18207 224.737865,-10.56654 254.351835,-5.91016 7.43146,1.16849 6.00053,14.57989 9.8032,50.08106 z"
         style="clip-rule:evenodd;fill:#bbdefb;fill-opacity:1;fill-rule:evenodd;stroke:#64b5f6;stroke-width:2.84869;stroke-linecap:round;stroke-linejoin:round;stroke-miterlimit:1.5;stroke-dasharray:none"
         id="path57798" /></g><text
       xml:space="preserve"
       style="font-size:29.8414px;line-height:1.25;font-family:'Liberation Sans';-inkscape-font-specification:'Liberation Sans, Normal';letter-spacing:0px;word-spacing:0px;stroke-width:1.01732"
       x="60.306839"
       y="386.06265"
       id="text107528"><tspan
         sodipodi:role="line"
         id="tspan107526"
         style="font-size:29.8414px;stroke-width:1.01732"
         x="60.306839"
         y="386.06265"><tspan
   style="font-weight:bold;font-size:33.9106px"
   id="tspan107524"><tspan
   style="font-weight:normal"
   id="tspan6073">i</tspan>N</tspan>tegrated</tspan></text><g
       id="g13598"
       inkscape:label="Chloroplast"><path
         id="path57800"
         style="fill:#a5d6a7;stroke:#4caf50;stroke-width:3.05743;stroke-miterlimit:1.5;stroke-dasharray:none"
         d="M 73.872426,184.03955 H 185.1452 c 9.93755,0 17.93782,9.52744 17.93782,18.34111 V 219.595 c 0,8.81367 -8.00027,15.90915 -17.93782,15.90915 H 73.872426 c -9.937554,0 -17.937823,-7.09548 -17.937823,-15.90915 v -17.21434 c 0,-8.81367 8.000269,-18.34111 17.937823,-18.34111 z"
         sodipodi:nodetypes="sssssssss"
         inkscape:label="plastid" /></g><text
       xml:space="preserve"
       style="font-size:29.6126px;line-height:1.25;font-family:'Liberation Sans';-inkscape-font-specification:'Liberation Sans';letter-spacing:0px;word-spacing:0px;stroke-width:1.48063"
       x="66.510025"
       y="263.99591"
       id="text28797"><tspan
         sodipodi:role="line"
         id="tspan28795"
         style="font-size:29.8414px;stroke-width:1.48063"
         x="66.510025"
         y="263.99591"><tspan
   style="font-weight:bold;font-size:33.9106px"
   id="tspan73630">M</tspan>ulti-phase</tspan><tspan
         sodipodi:role="line"
         style="font-size:29.8414px;stroke-width:1.48063"
         x="66.510025"
         y="306.38416"
         id="tspan28799"><tspan
   style="font-weight:bold;font-size:33.9106px"
   id="tspan74426">M</tspan>etabolic</tspan><tspan
         sodipodi:role="line"
         style="font-size:29.8414px;stroke-width:1.48063"
         x="66.510025"
         y="348.7724"
         id="tspan28801"><tspan
   style="font-weight:bold;font-size:33.9106px"
   id="tspan75494">O</tspan>smotic</tspan><tspan
         sodipodi:role="line"
         style="font-size:29.8414px;stroke-width:1.48063"
         x="66.510025"
         y="387.28922"
         id="tspan28811" /></text><flowRoot
       xml:space="preserve"
       transform="matrix(1.0173189,0,0,1.0173189,-2.3755526,123.27877)"
       style="font-size:20px;line-height:1.25;font-family:'Liberation Sans';-inkscape-font-specification:'Liberation Sans, Normal';letter-spacing:0px;word-spacing:0px"
       id="flowRoot55360"><flowRegion
         id="flowRegion55362"><rect
           id="rect55364"
           width="47.068699"
           height="109.84676"
           x="-158.9787"
           y="144.50453" /></flowRegion><flowPara
         id="flowPara55366" /></flowRoot><text
       xml:space="preserve"
       style="font-size:29.8414px;line-height:1.25;font-family:'Liberation Sans';-inkscape-font-specification:'Liberation Sans, Normal';letter-spacing:0px;word-spacing:0px;stroke-width:1.01732"
       x="66.510025"
       y="439.27151"
       id="text61495"><tspan
         sodipodi:role="line"
         id="tspan61493"
         style="font-size:29.8414px;stroke-width:1.01732"
         x="66.510025"
         y="439.27151"><tspan
   style="font-weight:bold;font-size:33.9106px"
   id="tspan76684">G</tspan>uard</tspan><tspan
         sodipodi:role="line"
         style="font-size:29.8414px;stroke-width:1.01732"
         x="66.510025"
         y="481.65976"
         id="tspan61499"><tspan
   style="font-weight:bold;font-size:33.9106px"
   id="tspan77370">C</tspan>ell</tspan><tspan
         sodipodi:role="line"
         style="font-size:29.8414px;stroke-width:1.01732"
         x="66.510025"
         y="524.04803"
         id="tspan61503"><tspan
   style="font-weight:bold;font-size:33.9106px"
   id="tspan78076">M</tspan>odel</tspan></text></g></g></svg>
