<?xml version="1.0" encoding="utf-8" standalone="no"?>
<!DOCTYPE svg PUBLIC "-//W3C//DTD SVG 1.1//EN"
  "http://www.w3.org/Graphics/SVG/1.1/DTD/svg11.dtd">
<svg xmlns:xlink="http://www.w3.org/1999/xlink" width="668.502pt" height="273.567375pt" viewBox="0 0 668.502 273.567375" xmlns="http://www.w3.org/2000/svg" version="1.1">
 <metadata>
  <rdf:RDF xmlns:dc="http://purl.org/dc/elements/1.1/" xmlns:cc="http://creativecommons.org/ns#" xmlns:rdf="http://www.w3.org/1999/02/22-rdf-syntax-ns#">
   <cc:Work>
    <dc:type rdf:resource="http://purl.org/dc/dcmitype/StillImage"/>
    <dc:date>2023-03-09T13:02:31.138615</dc:date>
    <dc:format>image/svg+xml</dc:format>
    <dc:creator>
     <cc:Agent>
      <dc:title>Matplotlib v3.7.1, https://matplotlib.org/</dc:title>
     </cc:Agent>
    </dc:creator>
   </cc:Work>
  </rdf:RDF>
 </metadata>
 <defs>
  <style type="text/css">*{stroke-linejoin: round; stroke-linecap: butt}</style>
 </defs>
 <g id="figure_1">
  <g id="patch_1">
   <path d="M 0 273.567375 
L 668.502 273.567375 
L 668.502 0 
L 0 0 
z
" style="fill: #ffffff"/>
  </g>
  <g id="axes_1">
   <g id="patch_2">
    <path d="M 54.7875 234.430875 
L 531.128963 234.430875 
L 531.128963 12.670875 
L 54.7875 12.670875 
z
" style="fill: #ffffff"/>
   </g>
   <g id="matplotlib.axis_1">
    <g id="xtick_1">
     <g id="text_1">
      <!-- K$^+$ -->
      <g style="fill: #262626" transform="translate(76.57189 263.372625) scale(0.144 -0.144)">
       <defs>
        <path id="DejaVuSans-Bold-4b" d="M 588 4666 
L 1791 4666 
L 1791 2963 
L 3525 4666 
L 4922 4666 
L 2675 2456 
L 5153 0 
L 3647 0 
L 1791 1838 
L 1791 0 
L 588 0 
L 588 4666 
z
" transform="scale(0.015625)"/>
        <path id="DejaVuSans-Bold-2b" d="M 3053 4013 
L 3053 2375 
L 4684 2375 
L 4684 1638 
L 3053 1638 
L 3053 0 
L 2309 0 
L 2309 1638 
L 678 1638 
L 678 2375 
L 2309 2375 
L 2309 4013 
L 3053 4013 
z
" transform="scale(0.015625)"/>
       </defs>
       <use xlink:href="#DejaVuSans-Bold-4b" transform="translate(0 0.826562)"/>
       <use xlink:href="#DejaVuSans-Bold-2b" transform="translate(93.035156 39.107812) scale(0.7)"/>
      </g>
     </g>
    </g>
    <g id="xtick_2">
     <g id="text_2">
      <!-- Cl$^-$ -->
      <g style="fill: #262626" transform="translate(142.460671 263.372625) scale(0.144 -0.144)">
       <defs>
        <path id="DejaVuSans-Bold-43" d="M 4288 256 
Q 3956 84 3597 -3 
Q 3238 -91 2847 -91 
Q 1681 -91 1000 561 
Q 319 1213 319 2328 
Q 319 3447 1000 4098 
Q 1681 4750 2847 4750 
Q 3238 4750 3597 4662 
Q 3956 4575 4288 4403 
L 4288 3438 
Q 3953 3666 3628 3772 
Q 3303 3878 2944 3878 
Q 2300 3878 1931 3465 
Q 1563 3053 1563 2328 
Q 1563 1606 1931 1193 
Q 2300 781 2944 781 
Q 3303 781 3628 887 
Q 3953 994 4288 1222 
L 4288 256 
z
" transform="scale(0.015625)"/>
        <path id="DejaVuSans-Bold-6c" d="M 538 4863 
L 1656 4863 
L 1656 0 
L 538 0 
L 538 4863 
z
" transform="scale(0.015625)"/>
        <path id="DejaVuSans-Bold-2212" d="M 678 2375 
L 4684 2375 
L 4684 1638 
L 678 1638 
L 678 2375 
z
" transform="scale(0.015625)"/>
       </defs>
       <use xlink:href="#DejaVuSans-Bold-43" transform="translate(0 0.015625)"/>
       <use xlink:href="#DejaVuSans-Bold-6c" transform="translate(73.388672 0.015625)"/>
       <use xlink:href="#DejaVuSans-Bold-2212" transform="translate(123.210938 38.296875) scale(0.7)"/>
      </g>
     </g>
    </g>
    <g id="xtick_3">
     <g id="text_3">
      <!-- Suc -->
      <g style="fill: #262626" transform="translate(210.330576 263.372625) scale(0.144 -0.144)">
       <defs>
        <path id="DejaVuSans-Bold-53" d="M 3834 4519 
L 3834 3531 
Q 3450 3703 3084 3790 
Q 2719 3878 2394 3878 
Q 1963 3878 1756 3759 
Q 1550 3641 1550 3391 
Q 1550 3203 1689 3098 
Q 1828 2994 2194 2919 
L 2706 2816 
Q 3484 2659 3812 2340 
Q 4141 2022 4141 1434 
Q 4141 663 3683 286 
Q 3225 -91 2284 -91 
Q 1841 -91 1394 -6 
Q 947 78 500 244 
L 500 1259 
Q 947 1022 1364 901 
Q 1781 781 2169 781 
Q 2563 781 2772 912 
Q 2981 1044 2981 1288 
Q 2981 1506 2839 1625 
Q 2697 1744 2272 1838 
L 1806 1941 
Q 1106 2091 782 2419 
Q 459 2747 459 3303 
Q 459 4000 909 4375 
Q 1359 4750 2203 4750 
Q 2588 4750 2994 4692 
Q 3400 4634 3834 4519 
z
" transform="scale(0.015625)"/>
        <path id="DejaVuSans-Bold-75" d="M 500 1363 
L 500 3500 
L 1625 3500 
L 1625 3150 
Q 1625 2866 1622 2436 
Q 1619 2006 1619 1863 
Q 1619 1441 1641 1255 
Q 1663 1069 1716 984 
Q 1784 875 1895 815 
Q 2006 756 2150 756 
Q 2500 756 2700 1025 
Q 2900 1294 2900 1772 
L 2900 3500 
L 4019 3500 
L 4019 0 
L 2900 0 
L 2900 506 
Q 2647 200 2364 54 
Q 2081 -91 1741 -91 
Q 1134 -91 817 281 
Q 500 653 500 1363 
z
" transform="scale(0.015625)"/>
        <path id="DejaVuSans-Bold-63" d="M 3366 3391 
L 3366 2478 
Q 3138 2634 2908 2709 
Q 2678 2784 2431 2784 
Q 1963 2784 1702 2511 
Q 1441 2238 1441 1747 
Q 1441 1256 1702 982 
Q 1963 709 2431 709 
Q 2694 709 2930 787 
Q 3166 866 3366 1019 
L 3366 103 
Q 3103 6 2833 -42 
Q 2563 -91 2291 -91 
Q 1344 -91 809 395 
Q 275 881 275 1747 
Q 275 2613 809 3098 
Q 1344 3584 2291 3584 
Q 2566 3584 2833 3536 
Q 3100 3488 3366 3391 
z
" transform="scale(0.015625)"/>
       </defs>
       <use xlink:href="#DejaVuSans-Bold-53"/>
       <use xlink:href="#DejaVuSans-Bold-75" x="72.021484"/>
       <use xlink:href="#DejaVuSans-Bold-63" x="143.212891"/>
      </g>
     </g>
    </g>
    <g id="xtick_4">
     <g id="text_4">
      <!-- Glc -->
      <g style="fill: #262626" transform="translate(280.312107 263.372625) scale(0.144 -0.144)">
       <defs>
        <path id="DejaVuSans-Bold-47" d="M 4781 347 
Q 4331 128 3847 18 
Q 3363 -91 2847 -91 
Q 1681 -91 1000 561 
Q 319 1213 319 2328 
Q 319 3456 1012 4103 
Q 1706 4750 2913 4750 
Q 3378 4750 3804 4662 
Q 4231 4575 4609 4403 
L 4609 3438 
Q 4219 3659 3833 3768 
Q 3447 3878 3059 3878 
Q 2341 3878 1952 3476 
Q 1563 3075 1563 2328 
Q 1563 1588 1938 1184 
Q 2313 781 3003 781 
Q 3191 781 3352 804 
Q 3513 828 3641 878 
L 3641 1784 
L 2906 1784 
L 2906 2591 
L 4781 2591 
L 4781 347 
z
" transform="scale(0.015625)"/>
       </defs>
       <use xlink:href="#DejaVuSans-Bold-47"/>
       <use xlink:href="#DejaVuSans-Bold-6c" x="82.080078"/>
       <use xlink:href="#DejaVuSans-Bold-63" x="116.357422"/>
      </g>
     </g>
    </g>
    <g id="xtick_5">
     <g id="text_5">
      <!-- Fru -->
      <g style="fill: #262626" transform="translate(347.871512 263.372625) scale(0.144 -0.144)">
       <defs>
        <path id="DejaVuSans-Bold-46" d="M 588 4666 
L 3834 4666 
L 3834 3756 
L 1791 3756 
L 1791 2888 
L 3713 2888 
L 3713 1978 
L 1791 1978 
L 1791 0 
L 588 0 
L 588 4666 
z
" transform="scale(0.015625)"/>
        <path id="DejaVuSans-Bold-72" d="M 3138 2547 
Q 2991 2616 2845 2648 
Q 2700 2681 2553 2681 
Q 2122 2681 1889 2404 
Q 1656 2128 1656 1613 
L 1656 0 
L 538 0 
L 538 3500 
L 1656 3500 
L 1656 2925 
Q 1872 3269 2151 3426 
Q 2431 3584 2822 3584 
Q 2878 3584 2943 3579 
Q 3009 3575 3134 3559 
L 3138 2547 
z
" transform="scale(0.015625)"/>
       </defs>
       <use xlink:href="#DejaVuSans-Bold-46"/>
       <use xlink:href="#DejaVuSans-Bold-72" x="61.935547"/>
       <use xlink:href="#DejaVuSans-Bold-75" x="111.251953"/>
      </g>
     </g>
    </g>
    <g id="xtick_6">
     <g id="text_6">
      <!-- Mal -->
      <g style="fill: #262626" transform="translate(414.563543 263.372625) scale(0.144 -0.144)">
       <defs>
        <path id="DejaVuSans-Bold-4d" d="M 588 4666 
L 2119 4666 
L 3181 2169 
L 4250 4666 
L 5778 4666 
L 5778 0 
L 4641 0 
L 4641 3413 
L 3566 897 
L 2803 897 
L 1728 3413 
L 1728 0 
L 588 0 
L 588 4666 
z
" transform="scale(0.015625)"/>
        <path id="DejaVuSans-Bold-61" d="M 2106 1575 
Q 1756 1575 1579 1456 
Q 1403 1338 1403 1106 
Q 1403 894 1545 773 
Q 1688 653 1941 653 
Q 2256 653 2472 879 
Q 2688 1106 2688 1447 
L 2688 1575 
L 2106 1575 
z
M 3816 1997 
L 3816 0 
L 2688 0 
L 2688 519 
Q 2463 200 2181 54 
Q 1900 -91 1497 -91 
Q 953 -91 614 226 
Q 275 544 275 1050 
Q 275 1666 698 1953 
Q 1122 2241 2028 2241 
L 2688 2241 
L 2688 2328 
Q 2688 2594 2478 2717 
Q 2269 2841 1825 2841 
Q 1466 2841 1156 2769 
Q 847 2697 581 2553 
L 581 3406 
Q 941 3494 1303 3539 
Q 1666 3584 2028 3584 
Q 2975 3584 3395 3211 
Q 3816 2838 3816 1997 
z
" transform="scale(0.015625)"/>
       </defs>
       <use xlink:href="#DejaVuSans-Bold-4d"/>
       <use xlink:href="#DejaVuSans-Bold-61" x="99.511719"/>
       <use xlink:href="#DejaVuSans-Bold-6c" x="166.992188"/>
      </g>
     </g>
    </g>
    <g id="xtick_7">
     <g id="text_7">
      <!-- Cit -->
      <g style="fill: #262626" transform="translate(485.910823 263.372625) scale(0.144 -0.144)">
       <defs>
        <path id="DejaVuSans-Bold-69" d="M 538 3500 
L 1656 3500 
L 1656 0 
L 538 0 
L 538 3500 
z
M 538 4863 
L 1656 4863 
L 1656 3950 
L 538 3950 
L 538 4863 
z
" transform="scale(0.015625)"/>
        <path id="DejaVuSans-Bold-74" d="M 1759 4494 
L 1759 3500 
L 2913 3500 
L 2913 2700 
L 1759 2700 
L 1759 1216 
Q 1759 972 1856 886 
Q 1953 800 2241 800 
L 2816 800 
L 2816 0 
L 1856 0 
Q 1194 0 917 276 
Q 641 553 641 1216 
L 641 2700 
L 84 2700 
L 84 3500 
L 641 3500 
L 641 4494 
L 1759 4494 
z
" transform="scale(0.015625)"/>
       </defs>
       <use xlink:href="#DejaVuSans-Bold-43"/>
       <use xlink:href="#DejaVuSans-Bold-69" x="73.388672"/>
       <use xlink:href="#DejaVuSans-Bold-74" x="107.666016"/>
      </g>
     </g>
    </g>
   </g>
   <g id="matplotlib.axis_2">
    <g id="ytick_1">
     <g id="line2d_1">
      <defs>
       <path id="m433b529790" d="M 0 0 
L -6 0 
" style="stroke: #262626; stroke-width: 1.25"/>
      </defs>
      <g>
       <use xlink:href="#m433b529790" x="54.7875" y="234.06189" style="fill: #262626; stroke: #262626; stroke-width: 1.25"/>
      </g>
     </g>
     <g id="text_8">
      <!-- 0 -->
      <g style="fill: #262626" transform="translate(35.26825 239.532765) scale(0.144 -0.144)">
       <defs>
        <path id="DejaVuSans-Bold-30" d="M 2944 2338 
Q 2944 3213 2780 3570 
Q 2616 3928 2228 3928 
Q 1841 3928 1675 3570 
Q 1509 3213 1509 2338 
Q 1509 1453 1675 1090 
Q 1841 728 2228 728 
Q 2613 728 2778 1090 
Q 2944 1453 2944 2338 
z
M 4147 2328 
Q 4147 1169 3647 539 
Q 3147 -91 2228 -91 
Q 1306 -91 806 539 
Q 306 1169 306 2328 
Q 306 3491 806 4120 
Q 1306 4750 2228 4750 
Q 3147 4750 3647 4120 
Q 4147 3491 4147 2328 
z
" transform="scale(0.015625)"/>
       </defs>
       <use xlink:href="#DejaVuSans-Bold-30"/>
      </g>
     </g>
    </g>
    <g id="ytick_2">
     <g id="line2d_2">
      <g>
       <use xlink:href="#m433b529790" x="54.7875" y="197.163387" style="fill: #262626; stroke: #262626; stroke-width: 1.25"/>
      </g>
     </g>
     <g id="text_9">
      <!-- 10 -->
      <g style="fill: #262626" transform="translate(25.249 202.634262) scale(0.144 -0.144)">
       <defs>
        <path id="DejaVuSans-Bold-31" d="M 750 831 
L 1813 831 
L 1813 3847 
L 722 3622 
L 722 4441 
L 1806 4666 
L 2950 4666 
L 2950 831 
L 4013 831 
L 4013 0 
L 750 0 
L 750 831 
z
" transform="scale(0.015625)"/>
       </defs>
       <use xlink:href="#DejaVuSans-Bold-31"/>
       <use xlink:href="#DejaVuSans-Bold-30" x="69.580078"/>
      </g>
     </g>
    </g>
    <g id="ytick_3">
     <g id="line2d_3">
      <g>
       <use xlink:href="#m433b529790" x="54.7875" y="160.264885" style="fill: #262626; stroke: #262626; stroke-width: 1.25"/>
      </g>
     </g>
     <g id="text_10">
      <!-- 20 -->
      <g style="fill: #262626" transform="translate(25.249 165.73576) scale(0.144 -0.144)">
       <defs>
        <path id="DejaVuSans-Bold-32" d="M 1844 884 
L 3897 884 
L 3897 0 
L 506 0 
L 506 884 
L 2209 2388 
Q 2438 2594 2547 2791 
Q 2656 2988 2656 3200 
Q 2656 3528 2436 3728 
Q 2216 3928 1850 3928 
Q 1569 3928 1234 3808 
Q 900 3688 519 3450 
L 519 4475 
Q 925 4609 1322 4679 
Q 1719 4750 2100 4750 
Q 2938 4750 3402 4381 
Q 3866 4013 3866 3353 
Q 3866 2972 3669 2642 
Q 3472 2313 2841 1759 
L 1844 884 
z
" transform="scale(0.015625)"/>
       </defs>
       <use xlink:href="#DejaVuSans-Bold-32"/>
       <use xlink:href="#DejaVuSans-Bold-30" x="69.580078"/>
      </g>
     </g>
    </g>
    <g id="ytick_4">
     <g id="line2d_4">
      <g>
       <use xlink:href="#m433b529790" x="54.7875" y="123.366382" style="fill: #262626; stroke: #262626; stroke-width: 1.25"/>
      </g>
     </g>
     <g id="text_11">
      <!-- 30 -->
      <g style="fill: #262626" transform="translate(25.249 128.837257) scale(0.144 -0.144)">
       <defs>
        <path id="DejaVuSans-Bold-33" d="M 2981 2516 
Q 3453 2394 3698 2092 
Q 3944 1791 3944 1325 
Q 3944 631 3412 270 
Q 2881 -91 1863 -91 
Q 1503 -91 1142 -33 
Q 781 25 428 141 
L 428 1069 
Q 766 900 1098 814 
Q 1431 728 1753 728 
Q 2231 728 2486 893 
Q 2741 1059 2741 1369 
Q 2741 1688 2480 1852 
Q 2219 2016 1709 2016 
L 1228 2016 
L 1228 2791 
L 1734 2791 
Q 2188 2791 2409 2933 
Q 2631 3075 2631 3366 
Q 2631 3634 2415 3781 
Q 2200 3928 1806 3928 
Q 1516 3928 1219 3862 
Q 922 3797 628 3669 
L 628 4550 
Q 984 4650 1334 4700 
Q 1684 4750 2022 4750 
Q 2931 4750 3382 4451 
Q 3834 4153 3834 3553 
Q 3834 3144 3618 2883 
Q 3403 2622 2981 2516 
z
" transform="scale(0.015625)"/>
       </defs>
       <use xlink:href="#DejaVuSans-Bold-33"/>
       <use xlink:href="#DejaVuSans-Bold-30" x="69.580078"/>
      </g>
     </g>
    </g>
    <g id="ytick_5">
     <g id="line2d_5">
      <g>
       <use xlink:href="#m433b529790" x="54.7875" y="86.46788" style="fill: #262626; stroke: #262626; stroke-width: 1.25"/>
      </g>
     </g>
     <g id="text_12">
      <!-- 40 -->
      <g style="fill: #262626" transform="translate(25.249 91.938755) scale(0.144 -0.144)">
       <defs>
        <path id="DejaVuSans-Bold-34" d="M 2356 3675 
L 1038 1722 
L 2356 1722 
L 2356 3675 
z
M 2156 4666 
L 3494 4666 
L 3494 1722 
L 4159 1722 
L 4159 850 
L 3494 850 
L 3494 0 
L 2356 0 
L 2356 850 
L 288 850 
L 288 1881 
L 2156 4666 
z
" transform="scale(0.015625)"/>
       </defs>
       <use xlink:href="#DejaVuSans-Bold-34"/>
       <use xlink:href="#DejaVuSans-Bold-30" x="69.580078"/>
      </g>
     </g>
    </g>
    <g id="ytick_6">
     <g id="line2d_6">
      <g>
       <use xlink:href="#m433b529790" x="54.7875" y="49.569377" style="fill: #262626; stroke: #262626; stroke-width: 1.25"/>
      </g>
     </g>
     <g id="text_13">
      <!-- 50 -->
      <g style="fill: #262626" transform="translate(25.249 55.040252) scale(0.144 -0.144)">
       <defs>
        <path id="DejaVuSans-Bold-35" d="M 678 4666 
L 3669 4666 
L 3669 3781 
L 1638 3781 
L 1638 3059 
Q 1775 3097 1914 3117 
Q 2053 3138 2203 3138 
Q 3056 3138 3531 2711 
Q 4006 2284 4006 1522 
Q 4006 766 3489 337 
Q 2972 -91 2053 -91 
Q 1656 -91 1267 -14 
Q 878 63 494 219 
L 494 1166 
Q 875 947 1217 837 
Q 1559 728 1863 728 
Q 2300 728 2551 942 
Q 2803 1156 2803 1522 
Q 2803 1891 2551 2103 
Q 2300 2316 1863 2316 
Q 1603 2316 1309 2248 
Q 1016 2181 678 2041 
L 678 4666 
z
" transform="scale(0.015625)"/>
       </defs>
       <use xlink:href="#DejaVuSans-Bold-35"/>
       <use xlink:href="#DejaVuSans-Bold-30" x="69.580078"/>
      </g>
     </g>
    </g>
    <g id="ytick_7">
     <g id="line2d_7">
      <g>
       <use xlink:href="#m433b529790" x="54.7875" y="12.670875" style="fill: #262626; stroke: #262626; stroke-width: 1.25"/>
      </g>
     </g>
     <g id="text_14">
      <!-- 60 -->
      <g style="fill: #262626" transform="translate(25.249 18.14175) scale(0.144 -0.144)">
       <defs>
        <path id="DejaVuSans-Bold-36" d="M 2316 2303 
Q 2000 2303 1842 2098 
Q 1684 1894 1684 1484 
Q 1684 1075 1842 870 
Q 2000 666 2316 666 
Q 2634 666 2792 870 
Q 2950 1075 2950 1484 
Q 2950 1894 2792 2098 
Q 2634 2303 2316 2303 
z
M 3803 4544 
L 3803 3681 
Q 3506 3822 3243 3889 
Q 2981 3956 2731 3956 
Q 2194 3956 1894 3657 
Q 1594 3359 1544 2772 
Q 1750 2925 1990 3001 
Q 2231 3078 2516 3078 
Q 3231 3078 3670 2659 
Q 4109 2241 4109 1563 
Q 4109 813 3618 361 
Q 3128 -91 2303 -91 
Q 1394 -91 895 523 
Q 397 1138 397 2266 
Q 397 3422 980 4083 
Q 1563 4744 2578 4744 
Q 2900 4744 3203 4694 
Q 3506 4644 3803 4544 
z
" transform="scale(0.015625)"/>
       </defs>
       <use xlink:href="#DejaVuSans-Bold-36"/>
       <use xlink:href="#DejaVuSans-Bold-30" x="69.580078"/>
      </g>
     </g>
    </g>
    <g id="text_15">
     <!-- Osmolyte concentration (mM) -->
     <g style="fill: #262626" transform="translate(18.14175 244.605375) rotate(-90) scale(0.144 -0.144)">
      <defs>
       <path id="DejaVuSans-Bold-4f" d="M 2719 3878 
Q 2169 3878 1866 3472 
Q 1563 3066 1563 2328 
Q 1563 1594 1866 1187 
Q 2169 781 2719 781 
Q 3272 781 3575 1187 
Q 3878 1594 3878 2328 
Q 3878 3066 3575 3472 
Q 3272 3878 2719 3878 
z
M 2719 4750 
Q 3844 4750 4481 4106 
Q 5119 3463 5119 2328 
Q 5119 1197 4481 553 
Q 3844 -91 2719 -91 
Q 1597 -91 958 553 
Q 319 1197 319 2328 
Q 319 3463 958 4106 
Q 1597 4750 2719 4750 
z
" transform="scale(0.015625)"/>
       <path id="DejaVuSans-Bold-73" d="M 3272 3391 
L 3272 2541 
Q 2913 2691 2578 2766 
Q 2244 2841 1947 2841 
Q 1628 2841 1473 2761 
Q 1319 2681 1319 2516 
Q 1319 2381 1436 2309 
Q 1553 2238 1856 2203 
L 2053 2175 
Q 2913 2066 3209 1816 
Q 3506 1566 3506 1031 
Q 3506 472 3093 190 
Q 2681 -91 1863 -91 
Q 1516 -91 1145 -36 
Q 775 19 384 128 
L 384 978 
Q 719 816 1070 734 
Q 1422 653 1784 653 
Q 2113 653 2278 743 
Q 2444 834 2444 1013 
Q 2444 1163 2330 1236 
Q 2216 1309 1875 1350 
L 1678 1375 
Q 931 1469 631 1722 
Q 331 1975 331 2491 
Q 331 3047 712 3315 
Q 1094 3584 1881 3584 
Q 2191 3584 2531 3537 
Q 2872 3491 3272 3391 
z
" transform="scale(0.015625)"/>
       <path id="DejaVuSans-Bold-6d" d="M 3781 2919 
Q 3994 3244 4286 3414 
Q 4578 3584 4928 3584 
Q 5531 3584 5847 3212 
Q 6163 2841 6163 2131 
L 6163 0 
L 5038 0 
L 5038 1825 
Q 5041 1866 5042 1909 
Q 5044 1953 5044 2034 
Q 5044 2406 4934 2573 
Q 4825 2741 4581 2741 
Q 4263 2741 4089 2478 
Q 3916 2216 3909 1719 
L 3909 0 
L 2784 0 
L 2784 1825 
Q 2784 2406 2684 2573 
Q 2584 2741 2328 2741 
Q 2006 2741 1831 2477 
Q 1656 2213 1656 1722 
L 1656 0 
L 531 0 
L 531 3500 
L 1656 3500 
L 1656 2988 
Q 1863 3284 2130 3434 
Q 2397 3584 2719 3584 
Q 3081 3584 3359 3409 
Q 3638 3234 3781 2919 
z
" transform="scale(0.015625)"/>
       <path id="DejaVuSans-Bold-6f" d="M 2203 2784 
Q 1831 2784 1636 2517 
Q 1441 2250 1441 1747 
Q 1441 1244 1636 976 
Q 1831 709 2203 709 
Q 2569 709 2762 976 
Q 2956 1244 2956 1747 
Q 2956 2250 2762 2517 
Q 2569 2784 2203 2784 
z
M 2203 3584 
Q 3106 3584 3614 3096 
Q 4122 2609 4122 1747 
Q 4122 884 3614 396 
Q 3106 -91 2203 -91 
Q 1297 -91 786 396 
Q 275 884 275 1747 
Q 275 2609 786 3096 
Q 1297 3584 2203 3584 
z
" transform="scale(0.015625)"/>
       <path id="DejaVuSans-Bold-79" d="M 78 3500 
L 1197 3500 
L 2138 1125 
L 2938 3500 
L 4056 3500 
L 2584 -331 
Q 2363 -916 2067 -1148 
Q 1772 -1381 1288 -1381 
L 641 -1381 
L 641 -647 
L 991 -647 
Q 1275 -647 1404 -556 
Q 1534 -466 1606 -231 
L 1638 -134 
L 78 3500 
z
" transform="scale(0.015625)"/>
       <path id="DejaVuSans-Bold-65" d="M 4031 1759 
L 4031 1441 
L 1416 1441 
Q 1456 1047 1700 850 
Q 1944 653 2381 653 
Q 2734 653 3104 758 
Q 3475 863 3866 1075 
L 3866 213 
Q 3469 63 3072 -14 
Q 2675 -91 2278 -91 
Q 1328 -91 801 392 
Q 275 875 275 1747 
Q 275 2603 792 3093 
Q 1309 3584 2216 3584 
Q 3041 3584 3536 3087 
Q 4031 2591 4031 1759 
z
M 2881 2131 
Q 2881 2450 2695 2645 
Q 2509 2841 2209 2841 
Q 1884 2841 1681 2658 
Q 1478 2475 1428 2131 
L 2881 2131 
z
" transform="scale(0.015625)"/>
       <path id="DejaVuSans-Bold-20" transform="scale(0.015625)"/>
       <path id="DejaVuSans-Bold-6e" d="M 4056 2131 
L 4056 0 
L 2931 0 
L 2931 347 
L 2931 1631 
Q 2931 2084 2911 2256 
Q 2891 2428 2841 2509 
Q 2775 2619 2662 2680 
Q 2550 2741 2406 2741 
Q 2056 2741 1856 2470 
Q 1656 2200 1656 1722 
L 1656 0 
L 538 0 
L 538 3500 
L 1656 3500 
L 1656 2988 
Q 1909 3294 2193 3439 
Q 2478 3584 2822 3584 
Q 3428 3584 3742 3212 
Q 4056 2841 4056 2131 
z
" transform="scale(0.015625)"/>
       <path id="DejaVuSans-Bold-28" d="M 2413 -844 
L 1484 -844 
Q 1006 -72 778 623 
Q 550 1319 550 2003 
Q 550 2688 779 3389 
Q 1009 4091 1484 4856 
L 2413 4856 
Q 2013 4116 1813 3408 
Q 1613 2700 1613 2009 
Q 1613 1319 1811 609 
Q 2009 -100 2413 -844 
z
" transform="scale(0.015625)"/>
       <path id="DejaVuSans-Bold-29" d="M 513 -844 
Q 913 -100 1113 609 
Q 1313 1319 1313 2009 
Q 1313 2700 1113 3408 
Q 913 4116 513 4856 
L 1441 4856 
Q 1916 4091 2145 3389 
Q 2375 2688 2375 2003 
Q 2375 1319 2147 623 
Q 1919 -72 1441 -844 
L 513 -844 
z
" transform="scale(0.015625)"/>
      </defs>
      <use xlink:href="#DejaVuSans-Bold-4f"/>
      <use xlink:href="#DejaVuSans-Bold-73" x="85.009766"/>
      <use xlink:href="#DejaVuSans-Bold-6d" x="144.53125"/>
      <use xlink:href="#DejaVuSans-Bold-6f" x="248.730469"/>
      <use xlink:href="#DejaVuSans-Bold-6c" x="317.431641"/>
      <use xlink:href="#DejaVuSans-Bold-79" x="351.708984"/>
      <use xlink:href="#DejaVuSans-Bold-74" x="416.894531"/>
      <use xlink:href="#DejaVuSans-Bold-65" x="464.697266"/>
      <use xlink:href="#DejaVuSans-Bold-20" x="532.519531"/>
      <use xlink:href="#DejaVuSans-Bold-63" x="567.333984"/>
      <use xlink:href="#DejaVuSans-Bold-6f" x="626.611328"/>
      <use xlink:href="#DejaVuSans-Bold-6e" x="695.3125"/>
      <use xlink:href="#DejaVuSans-Bold-63" x="766.503906"/>
      <use xlink:href="#DejaVuSans-Bold-65" x="825.78125"/>
      <use xlink:href="#DejaVuSans-Bold-6e" x="893.603516"/>
      <use xlink:href="#DejaVuSans-Bold-74" x="964.794922"/>
      <use xlink:href="#DejaVuSans-Bold-72" x="1012.597656"/>
      <use xlink:href="#DejaVuSans-Bold-61" x="1061.914062"/>
      <use xlink:href="#DejaVuSans-Bold-74" x="1129.394531"/>
      <use xlink:href="#DejaVuSans-Bold-69" x="1177.197266"/>
      <use xlink:href="#DejaVuSans-Bold-6f" x="1211.474609"/>
      <use xlink:href="#DejaVuSans-Bold-6e" x="1280.175781"/>
      <use xlink:href="#DejaVuSans-Bold-20" x="1351.367188"/>
      <use xlink:href="#DejaVuSans-Bold-28" x="1386.181641"/>
      <use xlink:href="#DejaVuSans-Bold-6d" x="1431.884766"/>
      <use xlink:href="#DejaVuSans-Bold-4d" x="1536.083984"/>
      <use xlink:href="#DejaVuSans-Bold-29" x="1635.595703"/>
     </g>
    </g>
   </g>
   <g id="patch_3">
    <path d="M 70.098476 234.06189 
L 59.891159 234.06189 
L 59.891159 152.024058 
L 70.098476 152.024058 
z
" clip-path="url(#pc08aaa996c)" style="fill: #999999; stroke: #999999; stroke-linejoin: miter"/>
   </g>
   <g id="patch_4">
    <path d="M 138.147256 234.06189 
L 127.939939 234.06189 
L 127.939939 198.374481 
L 138.147256 198.374481 
z
" clip-path="url(#pc08aaa996c)" style="fill: #999999; stroke: #999999; stroke-linejoin: miter"/>
   </g>
   <g id="patch_5">
    <path d="M 206.196037 234.06189 
L 195.98872 234.06189 
L 195.98872 234.06189 
L 206.196037 234.06189 
z
" clip-path="url(#pc08aaa996c)" style="fill: #999999; stroke: #999999; stroke-linejoin: miter"/>
   </g>
   <g id="patch_6">
    <path d="M 274.244817 234.06189 
L 264.0375 234.06189 
L 264.0375 234.06189 
L 274.244817 234.06189 
z
" clip-path="url(#pc08aaa996c)" style="fill: #999999; stroke: #999999; stroke-linejoin: miter"/>
   </g>
   <g id="patch_7">
    <path d="M 342.293598 234.06189 
L 332.08628 234.06189 
L 332.08628 234.06189 
L 342.293598 234.06189 
z
" clip-path="url(#pc08aaa996c)" style="fill: #999999; stroke: #999999; stroke-linejoin: miter"/>
   </g>
   <g id="patch_8">
    <path d="M 410.342378 234.06189 
L 400.135061 234.06189 
L 400.135061 184.028551 
L 410.342378 184.028551 
z
" clip-path="url(#pc08aaa996c)" style="fill: #999999; stroke: #999999; stroke-linejoin: miter"/>
   </g>
   <g id="patch_9">
    <path d="M 478.391159 234.06189 
L 468.183841 234.06189 
L 468.183841 234.06189 
L 478.391159 234.06189 
z
" clip-path="url(#pc08aaa996c)" style="fill: #999999; stroke: #999999; stroke-linejoin: miter"/>
   </g>
   <g id="patch_10">
    <path d="M 73.500915 234.06189 
L 83.708232 234.06189 
L 83.708232 50.157483 
L 73.500915 50.157483 
z
" clip-path="url(#pc08aaa996c)" style="fill: #ff7043; stroke: #ff7043; stroke-linejoin: miter"/>
   </g>
   <g id="patch_11">
    <path d="M 141.549695 234.06189 
L 151.757012 234.06189 
L 151.757012 90.416136 
L 141.549695 90.416136 
z
" clip-path="url(#pc08aaa996c)" style="fill: #ff7043; stroke: #ff7043; stroke-linejoin: miter"/>
   </g>
   <g id="patch_12">
    <path d="M 209.598476 234.06189 
L 219.805793 234.06189 
L 219.805793 226.534143 
L 209.598476 226.534143 
z
" clip-path="url(#pc08aaa996c)" style="fill: #ff7043; stroke: #ff7043; stroke-linejoin: miter"/>
   </g>
   <g id="patch_13">
    <path d="M 277.647256 234.06189 
L 287.854573 234.06189 
L 287.854573 234.06189 
L 277.647256 234.06189 
z
" clip-path="url(#pc08aaa996c)" style="fill: #ff7043; stroke: #ff7043; stroke-linejoin: miter"/>
   </g>
   <g id="patch_14">
    <path d="M 345.696037 234.06189 
L 355.903354 234.06189 
L 355.903354 234.06189 
L 345.696037 234.06189 
z
" clip-path="url(#pc08aaa996c)" style="fill: #ff7043; stroke: #ff7043; stroke-linejoin: miter"/>
   </g>
   <g id="patch_15">
    <path d="M 413.744817 234.06189 
L 423.952134 234.06189 
L 423.952134 197.12299 
L 413.744817 197.12299 
z
" clip-path="url(#pc08aaa996c)" style="fill: #ff7043; stroke: #ff7043; stroke-linejoin: miter"/>
   </g>
   <g id="patch_16">
    <path d="M 481.793598 234.06189 
L 492.000915 234.06189 
L 492.000915 234.06189 
L 481.793598 234.06189 
z
" clip-path="url(#pc08aaa996c)" style="fill: #ff7043; stroke: #ff7043; stroke-linejoin: miter"/>
   </g>
   <g id="patch_17">
    <path d="M 104.122866 234.06189 
L 93.915549 234.06189 
L 93.915549 152.024058 
L 104.122866 152.024058 
z
" clip-path="url(#pc08aaa996c)" style="fill: url(#he3ff46e55a); stroke: #ffffff; stroke-linejoin: miter"/>
   </g>
   <g id="patch_18">
    <path d="M 172.171646 234.06189 
L 161.964329 234.06189 
L 161.964329 198.374524 
L 172.171646 198.374524 
z
" clip-path="url(#pc08aaa996c)" style="fill: url(#he3ff46e55a); stroke: #ffffff; stroke-linejoin: miter"/>
   </g>
   <g id="patch_19">
    <path d="M 240.220427 234.06189 
L 230.01311 234.06189 
L 230.01311 234.06189 
L 240.220427 234.06189 
z
" clip-path="url(#pc08aaa996c)" style="fill: url(#he3ff46e55a); stroke: #ffffff; stroke-linejoin: miter"/>
   </g>
   <g id="patch_20">
    <path d="M 308.269207 234.06189 
L 298.06189 234.06189 
L 298.06189 234.06189 
L 308.269207 234.06189 
z
" clip-path="url(#pc08aaa996c)" style="fill: url(#he3ff46e55a); stroke: #ffffff; stroke-linejoin: miter"/>
   </g>
   <g id="patch_21">
    <path d="M 376.317988 234.06189 
L 366.110671 234.06189 
L 366.110671 234.06189 
L 376.317988 234.06189 
z
" clip-path="url(#pc08aaa996c)" style="fill: url(#he3ff46e55a); stroke: #ffffff; stroke-linejoin: miter"/>
   </g>
   <g id="patch_22">
    <path d="M 444.366768 234.06189 
L 434.159451 234.06189 
L 434.159451 184.028584 
L 444.366768 184.028584 
z
" clip-path="url(#pc08aaa996c)" style="fill: url(#he3ff46e55a); stroke: #ffffff; stroke-linejoin: miter"/>
   </g>
   <g id="patch_23">
    <path d="M 512.415549 234.06189 
L 502.208232 234.06189 
L 502.208232 234.06189 
L 512.415549 234.06189 
z
" clip-path="url(#pc08aaa996c)" style="fill: url(#he3ff46e55a); stroke: #ffffff; stroke-linejoin: miter"/>
   </g>
   <g id="patch_24">
    <path d="M 107.525305 234.06189 
L 117.732622 234.06189 
L 117.732622 50.157485 
L 107.525305 50.157485 
z
" clip-path="url(#pc08aaa996c)" style="fill: url(#hec320d5816); stroke: #ffffff; stroke-linejoin: miter"/>
   </g>
   <g id="patch_25">
    <path d="M 175.574085 234.06189 
L 185.781402 234.06189 
L 185.781402 90.416175 
L 175.574085 90.416175 
z
" clip-path="url(#pc08aaa996c)" style="fill: url(#hec320d5816); stroke: #ffffff; stroke-linejoin: miter"/>
   </g>
   <g id="patch_26">
    <path d="M 243.622866 234.06189 
L 253.830183 234.06189 
L 253.830183 226.534144 
L 243.622866 226.534144 
z
" clip-path="url(#pc08aaa996c)" style="fill: url(#hec320d5816); stroke: #ffffff; stroke-linejoin: miter"/>
   </g>
   <g id="patch_27">
    <path d="M 311.671646 234.06189 
L 321.878963 234.06189 
L 321.878963 234.06189 
L 311.671646 234.06189 
z
" clip-path="url(#pc08aaa996c)" style="fill: url(#hec320d5816); stroke: #ffffff; stroke-linejoin: miter"/>
   </g>
   <g id="patch_28">
    <path d="M 379.720427 234.06189 
L 389.927744 234.06189 
L 389.927744 234.06189 
L 379.720427 234.06189 
z
" clip-path="url(#pc08aaa996c)" style="fill: url(#hec320d5816); stroke: #ffffff; stroke-linejoin: miter"/>
   </g>
   <g id="patch_29">
    <path d="M 447.769207 234.06189 
L 457.976524 234.06189 
L 457.976524 197.123015 
L 447.769207 197.123015 
z
" clip-path="url(#pc08aaa996c)" style="fill: url(#hec320d5816); stroke: #ffffff; stroke-linejoin: miter"/>
   </g>
   <g id="patch_30">
    <path d="M 515.817988 234.06189 
L 526.025305 234.06189 
L 526.025305 234.06189 
L 515.817988 234.06189 
z
" clip-path="url(#pc08aaa996c)" style="fill: url(#hec320d5816); stroke: #ffffff; stroke-linejoin: miter"/>
   </g>
   <g id="patch_31">
    <path d="M 104.122866 234.06189 
L 93.915549 234.06189 
L 93.915549 152.024058 
L 104.122866 152.024058 
L 104.122866 234.06189 
z
" clip-path="url(#pc08aaa996c)" style="fill: none; stroke: #999999; stroke-linejoin: miter"/>
   </g>
   <g id="patch_32">
    <path d="M 172.171646 234.06189 
L 161.964329 234.06189 
L 161.964329 198.374524 
L 172.171646 198.374524 
L 172.171646 234.06189 
z
" clip-path="url(#pc08aaa996c)" style="fill: none; stroke: #999999; stroke-linejoin: miter"/>
   </g>
   <g id="patch_33">
    <path d="M 240.220427 234.06189 
L 230.01311 234.06189 
L 230.01311 234.06189 
L 240.220427 234.06189 
L 240.220427 234.06189 
z
" clip-path="url(#pc08aaa996c)" style="fill: none; stroke: #999999; stroke-linejoin: miter"/>
   </g>
   <g id="patch_34">
    <path d="M 308.269207 234.06189 
L 298.06189 234.06189 
L 298.06189 234.06189 
L 308.269207 234.06189 
L 308.269207 234.06189 
z
" clip-path="url(#pc08aaa996c)" style="fill: none; stroke: #999999; stroke-linejoin: miter"/>
   </g>
   <g id="patch_35">
    <path d="M 376.317988 234.06189 
L 366.110671 234.06189 
L 366.110671 234.06189 
L 376.317988 234.06189 
L 376.317988 234.06189 
z
" clip-path="url(#pc08aaa996c)" style="fill: none; stroke: #999999; stroke-linejoin: miter"/>
   </g>
   <g id="patch_36">
    <path d="M 444.366768 234.06189 
L 434.159451 234.06189 
L 434.159451 184.028584 
L 444.366768 184.028584 
L 444.366768 234.06189 
z
" clip-path="url(#pc08aaa996c)" style="fill: none; stroke: #999999; stroke-linejoin: miter"/>
   </g>
   <g id="patch_37">
    <path d="M 512.415549 234.06189 
L 502.208232 234.06189 
L 502.208232 234.06189 
L 512.415549 234.06189 
L 512.415549 234.06189 
z
" clip-path="url(#pc08aaa996c)" style="fill: none; stroke: #999999; stroke-linejoin: miter"/>
   </g>
   <g id="patch_38">
    <path d="M 107.525305 234.06189 
L 117.732622 234.06189 
L 117.732622 50.157485 
L 107.525305 50.157485 
L 107.525305 234.06189 
z
" clip-path="url(#pc08aaa996c)" style="fill: none; stroke: #ff7043; stroke-linejoin: miter"/>
   </g>
   <g id="patch_39">
    <path d="M 175.574085 234.06189 
L 185.781402 234.06189 
L 185.781402 90.416175 
L 175.574085 90.416175 
L 175.574085 234.06189 
z
" clip-path="url(#pc08aaa996c)" style="fill: none; stroke: #ff7043; stroke-linejoin: miter"/>
   </g>
   <g id="patch_40">
    <path d="M 243.622866 234.06189 
L 253.830183 234.06189 
L 253.830183 226.534144 
L 243.622866 226.534144 
L 243.622866 234.06189 
z
" clip-path="url(#pc08aaa996c)" style="fill: none; stroke: #ff7043; stroke-linejoin: miter"/>
   </g>
   <g id="patch_41">
    <path d="M 311.671646 234.06189 
L 321.878963 234.06189 
L 321.878963 234.06189 
L 311.671646 234.06189 
L 311.671646 234.06189 
z
" clip-path="url(#pc08aaa996c)" style="fill: none; stroke: #ff7043; stroke-linejoin: miter"/>
   </g>
   <g id="patch_42">
    <path d="M 379.720427 234.06189 
L 389.927744 234.06189 
L 389.927744 234.06189 
L 379.720427 234.06189 
L 379.720427 234.06189 
z
" clip-path="url(#pc08aaa996c)" style="fill: none; stroke: #ff7043; stroke-linejoin: miter"/>
   </g>
   <g id="patch_43">
    <path d="M 447.769207 234.06189 
L 457.976524 234.06189 
L 457.976524 197.123015 
L 447.769207 197.123015 
L 447.769207 234.06189 
z
" clip-path="url(#pc08aaa996c)" style="fill: none; stroke: #ff7043; stroke-linejoin: miter"/>
   </g>
   <g id="patch_44">
    <path d="M 515.817988 234.06189 
L 526.025305 234.06189 
L 526.025305 234.06189 
L 515.817988 234.06189 
L 515.817988 234.06189 
z
" clip-path="url(#pc08aaa996c)" style="fill: none; stroke: #ff7043; stroke-linejoin: miter"/>
   </g>
   <g id="LineCollection_1">
    <path d="M 58.189939 247.714336 
L 119.433841 247.714336 
" style="fill: none; stroke: #000000; stroke-opacity: 0.9; stroke-width: 1.5"/>
   </g>
   <g id="LineCollection_2">
    <path d="M 126.23872 247.714336 
L 187.482622 247.714336 
" style="fill: none; stroke: #000000; stroke-opacity: 0.9; stroke-width: 1.5"/>
   </g>
   <g id="LineCollection_3">
    <path d="M 194.2875 247.714336 
L 255.531402 247.714336 
" style="fill: none; stroke: #000000; stroke-opacity: 0.9; stroke-width: 1.5"/>
   </g>
   <g id="LineCollection_4">
    <path d="M 262.33628 247.714336 
L 323.580183 247.714336 
" style="fill: none; stroke: #000000; stroke-opacity: 0.9; stroke-width: 1.5"/>
   </g>
   <g id="LineCollection_5">
    <path d="M 330.385061 247.714336 
L 391.628963 247.714336 
" style="fill: none; stroke: #000000; stroke-opacity: 0.9; stroke-width: 1.5"/>
   </g>
   <g id="LineCollection_6">
    <path d="M 398.433841 247.714336 
L 459.677744 247.714336 
" style="fill: none; stroke: #000000; stroke-opacity: 0.9; stroke-width: 1.5"/>
   </g>
   <g id="LineCollection_7">
    <path d="M 466.482622 247.714336 
L 527.726524 247.714336 
" style="fill: none; stroke: #000000; stroke-opacity: 0.9; stroke-width: 1.5"/>
   </g>
   <g id="patch_45">
    <path d="M 54.7875 234.430875 
L 54.7875 12.670875 
" style="fill: none; stroke: #262626; stroke-width: 1.25; stroke-linejoin: miter; stroke-linecap: square"/>
   </g>
   <g id="patch_46">
    <path d="M 54.7875 234.430875 
L 531.128963 234.430875 
" style="fill: none; stroke: #262626; stroke-width: 1.25; stroke-linejoin: miter; stroke-linecap: square"/>
   </g>
   <g id="text_16">
    <!-- WT -->
    <g style="fill: #262626" transform="translate(62.877484 244.199862) scale(0.09996 -0.09996)">
     <defs>
      <path id="DejaVuSans-Bold-57" d="M 191 4666 
L 1344 4666 
L 2150 1275 
L 2950 4666 
L 4109 4666 
L 4909 1275 
L 5716 4666 
L 6859 4666 
L 5759 0 
L 4372 0 
L 3525 3547 
L 2688 0 
L 1300 0 
L 191 4666 
z
" transform="scale(0.015625)"/>
      <path id="DejaVuSans-Bold-54" d="M 31 4666 
L 4331 4666 
L 4331 3756 
L 2784 3756 
L 2784 0 
L 1581 0 
L 1581 3756 
L 31 3756 
L 31 4666 
z
" transform="scale(0.015625)"/>
     </defs>
     <use xlink:href="#DejaVuSans-Bold-57"/>
     <use xlink:href="#DejaVuSans-Bold-54" x="110.302734"/>
    </g>
   </g>
   <g id="text_17">
    <!-- KO -->
    <g style="fill: #262626" transform="translate(97.927245 244.199862) scale(0.09996 -0.09996)">
     <use xlink:href="#DejaVuSans-Bold-4b"/>
     <use xlink:href="#DejaVuSans-Bold-4f" x="72.990234"/>
    </g>
   </g>
   <g id="text_18">
    <!-- WT -->
    <g style="fill: #262626" transform="translate(130.926265 244.199862) scale(0.09996 -0.09996)">
     <use xlink:href="#DejaVuSans-Bold-57"/>
     <use xlink:href="#DejaVuSans-Bold-54" x="110.302734"/>
    </g>
   </g>
   <g id="text_19">
    <!-- KO -->
    <g style="fill: #262626" transform="translate(165.976026 244.199862) scale(0.09996 -0.09996)">
     <use xlink:href="#DejaVuSans-Bold-4b"/>
     <use xlink:href="#DejaVuSans-Bold-4f" x="72.990234"/>
    </g>
   </g>
   <g id="text_20">
    <!-- WT -->
    <g style="fill: #262626" transform="translate(198.975045 244.199862) scale(0.09996 -0.09996)">
     <use xlink:href="#DejaVuSans-Bold-57"/>
     <use xlink:href="#DejaVuSans-Bold-54" x="110.302734"/>
    </g>
   </g>
   <g id="text_21">
    <!-- KO -->
    <g style="fill: #262626" transform="translate(234.024806 244.199862) scale(0.09996 -0.09996)">
     <use xlink:href="#DejaVuSans-Bold-4b"/>
     <use xlink:href="#DejaVuSans-Bold-4f" x="72.990234"/>
    </g>
   </g>
   <g id="text_22">
    <!-- WT -->
    <g style="fill: #262626" transform="translate(267.023826 244.199862) scale(0.09996 -0.09996)">
     <use xlink:href="#DejaVuSans-Bold-57"/>
     <use xlink:href="#DejaVuSans-Bold-54" x="110.302734"/>
    </g>
   </g>
   <g id="text_23">
    <!-- KO -->
    <g style="fill: #262626" transform="translate(302.073587 244.199862) scale(0.09996 -0.09996)">
     <use xlink:href="#DejaVuSans-Bold-4b"/>
     <use xlink:href="#DejaVuSans-Bold-4f" x="72.990234"/>
    </g>
   </g>
   <g id="text_24">
    <!-- WT -->
    <g style="fill: #262626" transform="translate(335.072606 244.199862) scale(0.09996 -0.09996)">
     <use xlink:href="#DejaVuSans-Bold-57"/>
     <use xlink:href="#DejaVuSans-Bold-54" x="110.302734"/>
    </g>
   </g>
   <g id="text_25">
    <!-- KO -->
    <g style="fill: #262626" transform="translate(370.122367 244.199862) scale(0.09996 -0.09996)">
     <use xlink:href="#DejaVuSans-Bold-4b"/>
     <use xlink:href="#DejaVuSans-Bold-4f" x="72.990234"/>
    </g>
   </g>
   <g id="text_26">
    <!-- WT -->
    <g style="fill: #262626" transform="translate(403.121387 244.199862) scale(0.09996 -0.09996)">
     <use xlink:href="#DejaVuSans-Bold-57"/>
     <use xlink:href="#DejaVuSans-Bold-54" x="110.302734"/>
    </g>
   </g>
   <g id="text_27">
    <!-- KO -->
    <g style="fill: #262626" transform="translate(438.171148 244.199862) scale(0.09996 -0.09996)">
     <use xlink:href="#DejaVuSans-Bold-4b"/>
     <use xlink:href="#DejaVuSans-Bold-4f" x="72.990234"/>
    </g>
   </g>
   <g id="text_28">
    <!-- WT -->
    <g style="fill: #262626" transform="translate(471.170167 244.199862) scale(0.09996 -0.09996)">
     <use xlink:href="#DejaVuSans-Bold-57"/>
     <use xlink:href="#DejaVuSans-Bold-54" x="110.302734"/>
    </g>
   </g>
   <g id="text_29">
    <!-- KO -->
    <g style="fill: #262626" transform="translate(506.219928 244.199862) scale(0.09996 -0.09996)">
     <use xlink:href="#DejaVuSans-Bold-4b"/>
     <use xlink:href="#DejaVuSans-Bold-4f" x="72.990234"/>
    </g>
   </g>
  </g>
  <g id="axes_2">
   <g id="patch_47">
    <path d="M 544.73872 234.430875 
L 612.7875 234.430875 
L 612.7875 12.670875 
L 544.73872 12.670875 
z
" style="fill: #ffffff"/>
   </g>
   <g id="matplotlib.axis_3">
    <g id="xtick_8">
     <g id="text_30">
      <!-- Starch -->
      <g style="fill: #262626" transform="translate(550.705524 263.372625) scale(0.144 -0.144)">
       <defs>
        <path id="DejaVuSans-Bold-68" d="M 4056 2131 
L 4056 0 
L 2931 0 
L 2931 347 
L 2931 1625 
Q 2931 2084 2911 2256 
Q 2891 2428 2841 2509 
Q 2775 2619 2662 2680 
Q 2550 2741 2406 2741 
Q 2056 2741 1856 2470 
Q 1656 2200 1656 1722 
L 1656 0 
L 538 0 
L 538 4863 
L 1656 4863 
L 1656 2988 
Q 1909 3294 2193 3439 
Q 2478 3584 2822 3584 
Q 3428 3584 3742 3212 
Q 4056 2841 4056 2131 
z
" transform="scale(0.015625)"/>
       </defs>
       <use xlink:href="#DejaVuSans-Bold-53"/>
       <use xlink:href="#DejaVuSans-Bold-74" x="72.021484"/>
       <use xlink:href="#DejaVuSans-Bold-61" x="119.824219"/>
       <use xlink:href="#DejaVuSans-Bold-72" x="187.304688"/>
       <use xlink:href="#DejaVuSans-Bold-63" x="236.621094"/>
       <use xlink:href="#DejaVuSans-Bold-68" x="295.898438"/>
      </g>
     </g>
    </g>
   </g>
   <g id="matplotlib.axis_4">
    <g id="ytick_8">
     <g id="line2d_8">
      <defs>
       <path id="mbd5de2628f" d="M 0 0 
L 6 0 
" style="stroke: #262626; stroke-width: 1.25"/>
      </defs>
      <g>
       <use xlink:href="#mbd5de2628f" x="612.7875" y="234.06189" style="fill: #262626; stroke: #262626; stroke-width: 1.25"/>
      </g>
     </g>
     <g id="text_31">
      <!-- 0 -->
      <g style="fill: #262626" transform="translate(622.2875 239.532765) scale(0.144 -0.144)">
       <use xlink:href="#DejaVuSans-Bold-30"/>
      </g>
     </g>
    </g>
    <g id="ytick_9">
     <g id="line2d_9">
      <g>
       <use xlink:href="#mbd5de2628f" x="612.7875" y="202.434602" style="fill: #262626; stroke: #262626; stroke-width: 1.25"/>
      </g>
     </g>
     <g id="text_32">
      <!-- 2 -->
      <g style="fill: #262626" transform="translate(622.2875 207.905477) scale(0.144 -0.144)">
       <use xlink:href="#DejaVuSans-Bold-32"/>
      </g>
     </g>
    </g>
    <g id="ytick_10">
     <g id="line2d_10">
      <g>
       <use xlink:href="#mbd5de2628f" x="612.7875" y="170.807314" style="fill: #262626; stroke: #262626; stroke-width: 1.25"/>
      </g>
     </g>
     <g id="text_33">
      <!-- 4 -->
      <g style="fill: #262626" transform="translate(622.2875 176.278189) scale(0.144 -0.144)">
       <use xlink:href="#DejaVuSans-Bold-34"/>
      </g>
     </g>
    </g>
    <g id="ytick_11">
     <g id="line2d_11">
      <g>
       <use xlink:href="#mbd5de2628f" x="612.7875" y="139.180026" style="fill: #262626; stroke: #262626; stroke-width: 1.25"/>
      </g>
     </g>
     <g id="text_34">
      <!-- 6 -->
      <g style="fill: #262626" transform="translate(622.2875 144.650901) scale(0.144 -0.144)">
       <use xlink:href="#DejaVuSans-Bold-36"/>
      </g>
     </g>
    </g>
    <g id="ytick_12">
     <g id="line2d_12">
      <g>
       <use xlink:href="#mbd5de2628f" x="612.7875" y="107.552739" style="fill: #262626; stroke: #262626; stroke-width: 1.25"/>
      </g>
     </g>
     <g id="text_35">
      <!-- 8 -->
      <g style="fill: #262626" transform="translate(622.2875 113.023614) scale(0.144 -0.144)">
       <defs>
        <path id="DejaVuSans-Bold-38" d="M 2228 2088 
Q 1891 2088 1709 1903 
Q 1528 1719 1528 1375 
Q 1528 1031 1709 848 
Q 1891 666 2228 666 
Q 2563 666 2741 848 
Q 2919 1031 2919 1375 
Q 2919 1722 2741 1905 
Q 2563 2088 2228 2088 
z
M 1350 2484 
Q 925 2613 709 2878 
Q 494 3144 494 3541 
Q 494 4131 934 4440 
Q 1375 4750 2228 4750 
Q 3075 4750 3515 4442 
Q 3956 4134 3956 3541 
Q 3956 3144 3739 2878 
Q 3522 2613 3097 2484 
Q 3572 2353 3814 2058 
Q 4056 1763 4056 1313 
Q 4056 619 3595 264 
Q 3134 -91 2228 -91 
Q 1319 -91 855 264 
Q 391 619 391 1313 
Q 391 1763 633 2058 
Q 875 2353 1350 2484 
z
M 1631 3419 
Q 1631 3141 1786 2991 
Q 1941 2841 2228 2841 
Q 2509 2841 2662 2991 
Q 2816 3141 2816 3419 
Q 2816 3697 2662 3845 
Q 2509 3994 2228 3994 
Q 1941 3994 1786 3844 
Q 1631 3694 1631 3419 
z
" transform="scale(0.015625)"/>
       </defs>
       <use xlink:href="#DejaVuSans-Bold-38"/>
      </g>
     </g>
    </g>
    <g id="ytick_13">
     <g id="line2d_13">
      <g>
       <use xlink:href="#mbd5de2628f" x="612.7875" y="75.925451" style="fill: #262626; stroke: #262626; stroke-width: 1.25"/>
      </g>
     </g>
     <g id="text_36">
      <!-- 10 -->
      <g style="fill: #262626" transform="translate(622.2875 81.396326) scale(0.144 -0.144)">
       <use xlink:href="#DejaVuSans-Bold-31"/>
       <use xlink:href="#DejaVuSans-Bold-30" x="69.580078"/>
      </g>
     </g>
    </g>
    <g id="ytick_14">
     <g id="line2d_14">
      <g>
       <use xlink:href="#mbd5de2628f" x="612.7875" y="44.298163" style="fill: #262626; stroke: #262626; stroke-width: 1.25"/>
      </g>
     </g>
     <g id="text_37">
      <!-- 12 -->
      <g style="fill: #262626" transform="translate(622.2875 49.769038) scale(0.144 -0.144)">
       <use xlink:href="#DejaVuSans-Bold-31"/>
       <use xlink:href="#DejaVuSans-Bold-32" x="69.580078"/>
      </g>
     </g>
    </g>
    <g id="ytick_15">
     <g id="line2d_15">
      <g>
       <use xlink:href="#mbd5de2628f" x="612.7875" y="12.670875" style="fill: #262626; stroke: #262626; stroke-width: 1.25"/>
      </g>
     </g>
     <g id="text_38">
      <!-- 14 -->
      <g style="fill: #262626" transform="translate(622.2875 18.14175) scale(0.144 -0.144)">
       <use xlink:href="#DejaVuSans-Bold-31"/>
       <use xlink:href="#DejaVuSans-Bold-34" x="69.580078"/>
      </g>
     </g>
    </g>
    <g id="text_39">
     <!-- Amount (fmol$\cdot$GC$^{-1}$) -->
     <g style="fill: #262626" transform="translate(658.30725 204.334875) rotate(-90) scale(0.144 -0.144)">
      <defs>
       <path id="DejaVuSans-Bold-41" d="M 3419 850 
L 1538 850 
L 1241 0 
L 31 0 
L 1759 4666 
L 3194 4666 
L 4922 0 
L 3713 0 
L 3419 850 
z
M 1838 1716 
L 3116 1716 
L 2478 3572 
L 1838 1716 
z
" transform="scale(0.015625)"/>
       <path id="DejaVuSans-Bold-66" d="M 2841 4863 
L 2841 4128 
L 2222 4128 
Q 1984 4128 1890 4042 
Q 1797 3956 1797 3744 
L 1797 3500 
L 2753 3500 
L 2753 2700 
L 1797 2700 
L 1797 0 
L 678 0 
L 678 2700 
L 122 2700 
L 122 3500 
L 678 3500 
L 678 3744 
Q 678 4316 997 4589 
Q 1316 4863 1984 4863 
L 2841 4863 
z
" transform="scale(0.015625)"/>
       <path id="DejaVuSans-Bold-22c5" d="M 653 2828 
L 1778 2828 
L 1778 1619 
L 653 1619 
L 653 2828 
z
" transform="scale(0.015625)"/>
      </defs>
      <use xlink:href="#DejaVuSans-Bold-41" transform="translate(0 0.684375)"/>
      <use xlink:href="#DejaVuSans-Bold-6d" transform="translate(77.392578 0.684375)"/>
      <use xlink:href="#DejaVuSans-Bold-6f" transform="translate(181.591797 0.684375)"/>
      <use xlink:href="#DejaVuSans-Bold-75" transform="translate(250.292969 0.684375)"/>
      <use xlink:href="#DejaVuSans-Bold-6e" transform="translate(321.484375 0.684375)"/>
      <use xlink:href="#DejaVuSans-Bold-74" transform="translate(392.675781 0.684375)"/>
      <use xlink:href="#DejaVuSans-Bold-20" transform="translate(440.478516 0.684375)"/>
      <use xlink:href="#DejaVuSans-Bold-28" transform="translate(475.292969 0.684375)"/>
      <use xlink:href="#DejaVuSans-Bold-66" transform="translate(520.996094 0.684375)"/>
      <use xlink:href="#DejaVuSans-Bold-6d" transform="translate(564.501953 0.684375)"/>
      <use xlink:href="#DejaVuSans-Bold-6f" transform="translate(668.701172 0.684375)"/>
      <use xlink:href="#DejaVuSans-Bold-6c" transform="translate(737.402344 0.684375)"/>
      <use xlink:href="#DejaVuSans-Bold-22c5" transform="translate(771.679688 0.684375)"/>
      <use xlink:href="#DejaVuSans-Bold-47" transform="translate(809.667969 0.684375)"/>
      <use xlink:href="#DejaVuSans-Bold-43" transform="translate(891.748047 0.684375)"/>
      <use xlink:href="#DejaVuSans-Bold-2212" transform="translate(966.09375 38.965625) scale(0.7)"/>
      <use xlink:href="#DejaVuSans-Bold-31" transform="translate(1024.746094 38.965625) scale(0.7)"/>
      <use xlink:href="#DejaVuSans-Bold-29" transform="translate(1076.186523 0.684375)"/>
     </g>
    </g>
   </g>
   <g id="patch_48">
    <path d="M 559.227575 234.06189 
L 549.459807 234.06189 
L 549.459807 234.06189 
L 559.227575 234.06189 
z
" clip-path="url(#p260a90433e)" style="fill: #999999; stroke: #999999; stroke-linejoin: miter"/>
   </g>
   <g id="patch_49">
    <path d="M 562.483497 234.06189 
L 572.251265 234.06189 
L 572.251265 234.06189 
L 562.483497 234.06189 
z
" clip-path="url(#p260a90433e)" style="fill: #ff7043; stroke: #ff7043; stroke-linejoin: miter"/>
   </g>
   <g id="patch_50">
    <path d="M 591.7868 234.06189 
L 582.019032 234.06189 
L 582.019032 234.06189 
L 591.7868 234.06189 
z
" clip-path="url(#p260a90433e)" style="fill: url(#hfc8d4808ff); stroke: #999999; stroke-linejoin: miter"/>
   </g>
   <g id="patch_51">
    <path d="M 595.042722 234.06189 
L 604.81049 234.06189 
L 604.81049 234.06189 
L 595.042722 234.06189 
z
" clip-path="url(#p260a90433e)" style="fill: url(#hc98f61fc3d); stroke: #ff7043; stroke-linejoin: miter"/>
   </g>
   <g id="LineCollection_8">
    <path d="M 547.831846 247.714336 
L 609.694374 247.714336 
" style="fill: none; stroke: #000000; stroke-opacity: 0.9; stroke-width: 1.5"/>
   </g>
   <g id="patch_52">
    <path d="M 612.7875 234.430875 
L 612.7875 12.670875 
" style="fill: none; stroke: #262626; stroke-width: 1.25; stroke-linejoin: miter; stroke-linecap: square"/>
   </g>
   <g id="patch_53">
    <path d="M 544.73872 234.430875 
L 612.7875 234.430875 
" style="fill: none; stroke: #262626; stroke-width: 1.25; stroke-linejoin: miter; stroke-linecap: square"/>
   </g>
   <g id="text_40">
    <!-- WT -->
    <g style="fill: #262626" transform="translate(551.933325 244.199862) scale(0.09996 -0.09996)">
     <use xlink:href="#DejaVuSans-Bold-57"/>
     <use xlink:href="#DejaVuSans-Bold-54" x="110.302734"/>
    </g>
   </g>
   <g id="text_41">
    <!-- KO -->
    <g style="fill: #262626" transform="translate(585.517921 244.199862) scale(0.09996 -0.09996)">
     <use xlink:href="#DejaVuSans-Bold-4b"/>
     <use xlink:href="#DejaVuSans-Bold-4f" x="72.990234"/>
    </g>
   </g>
  </g>
 </g>
 <defs>
  <clipPath id="pc08aaa996c">
   <rect x="54.7875" y="12.670875" width="476.341463" height="221.76"/>
  </clipPath>
  <clipPath id="p260a90433e">
   <rect x="544.73872" y="12.670875" width="68.04878" height="221.76"/>
  </clipPath>
 </defs>
 <defs>
  <pattern id="he3ff46e55a" patternUnits="userSpaceOnUse" x="0" y="0" width="72" height="72">
   <rect x="0" y="0" width="73" height="73" fill="#999999"/>
   <path d="M -36 36 
L 36 -36 
M -30 42 
L 42 -30 
M -24 48 
L 48 -24 
M -18 54 
L 54 -18 
M -12 60 
L 60 -12 
M -6 66 
L 66 -6 
M 0 72 
L 72 0 
M 6 78 
L 78 6 
M 12 84 
L 84 12 
M 18 90 
L 90 18 
M 24 96 
L 96 24 
M 30 102 
L 102 30 
M 36 108 
L 108 36 
" style="fill: #ffffff; stroke: #ffffff; stroke-width: 1.5; stroke-linecap: butt; stroke-linejoin: miter"/>
  </pattern>
  <pattern id="hec320d5816" patternUnits="userSpaceOnUse" x="0" y="0" width="72" height="72">
   <rect x="0" y="0" width="73" height="73" fill="#ff7043"/>
   <path d="M -36 36 
L 36 -36 
M -30 42 
L 42 -30 
M -24 48 
L 48 -24 
M -18 54 
L 54 -18 
M -12 60 
L 60 -12 
M -6 66 
L 66 -6 
M 0 72 
L 72 0 
M 6 78 
L 78 6 
M 12 84 
L 84 12 
M 18 90 
L 90 18 
M 24 96 
L 96 24 
M 30 102 
L 102 30 
M 36 108 
L 108 36 
" style="fill: #ffffff; stroke: #ffffff; stroke-width: 1.5; stroke-linecap: butt; stroke-linejoin: miter"/>
  </pattern>
  <pattern id="hfc8d4808ff" patternUnits="userSpaceOnUse" x="0" y="0" width="72" height="72">
   <rect x="0" y="0" width="73" height="73" fill="#999999"/>
   <path d="M -36 36 
L 36 -36 
M -30 42 
L 42 -30 
M -24 48 
L 48 -24 
M -18 54 
L 54 -18 
M -12 60 
L 60 -12 
M -6 66 
L 66 -6 
M 0 72 
L 72 0 
M 6 78 
L 78 6 
M 12 84 
L 84 12 
M 18 90 
L 90 18 
M 24 96 
L 96 24 
M 30 102 
L 102 30 
M 36 108 
L 108 36 
" style="fill: #999999; stroke: #999999; stroke-width: 1.5; stroke-linecap: butt; stroke-linejoin: miter"/>
  </pattern>
  <pattern id="hc98f61fc3d" patternUnits="userSpaceOnUse" x="0" y="0" width="72" height="72">
   <rect x="0" y="0" width="73" height="73" fill="#ff7043"/>
   <path d="M -36 36 
L 36 -36 
M -30 42 
L 42 -30 
M -24 48 
L 48 -24 
M -18 54 
L 54 -18 
M -12 60 
L 60 -12 
M -6 66 
L 66 -6 
M 0 72 
L 72 0 
M 6 78 
L 78 6 
M 12 84 
L 84 12 
M 18 90 
L 90 18 
M 24 96 
L 96 24 
M 30 102 
L 102 30 
M 36 108 
L 108 36 
" style="fill: #ff7043; stroke: #ff7043; stroke-width: 1.5; stroke-linecap: butt; stroke-linejoin: miter"/>
  </pattern>
 </defs>
</svg>
