<?xml version="1.0" encoding="utf-8" standalone="no"?>
<!DOCTYPE svg PUBLIC "-//W3C//DTD SVG 1.1//EN"
  "http://www.w3.org/Graphics/SVG/1.1/DTD/svg11.dtd">
<svg xmlns:xlink="http://www.w3.org/1999/xlink" width="576pt" height="432pt" viewBox="0 0 576 432" xmlns="http://www.w3.org/2000/svg" version="1.1">
 <metadata>
  <rdf:RDF xmlns:dc="http://purl.org/dc/elements/1.1/" xmlns:cc="http://creativecommons.org/ns#" xmlns:rdf="http://www.w3.org/1999/02/22-rdf-syntax-ns#">
   <cc:Work>
    <dc:type rdf:resource="http://purl.org/dc/dcmitype/StillImage"/>
    <dc:date>2023-03-09T13:07:33.571765</dc:date>
    <dc:format>image/svg+xml</dc:format>
    <dc:creator>
     <cc:Agent>
      <dc:title>Matplotlib v3.7.1, https://matplotlib.org/</dc:title>
     </cc:Agent>
    </dc:creator>
   </cc:Work>
  </rdf:RDF>
 </metadata>
 <defs>
  <style type="text/css">*{stroke-linejoin: round; stroke-linecap: butt}</style>
 </defs>
 <g id="figure_1">
  <g id="patch_1">
   <path d="M 0 432 
L 576 432 
L 576 0 
L 0 0 
z
" style="fill: #ffffff"/>
  </g>
  <g id="axes_1">
   <g id="patch_2">
    <path d="M 116.73 361.81975 
L 357.132031 361.81975 
L 357.132031 18.430875 
L 116.73 18.430875 
z
" style="fill: #ffffff"/>
   </g>
   <g id="matplotlib.axis_1">
    <g id="xtick_1">
     <g id="line2d_1">
      <defs>
       <path id="mdd4173b8cf" d="M 0 0 
L 0 6 
" style="stroke: #262626; stroke-width: 1.25"/>
      </defs>
      <g>
       <use xlink:href="#mdd4173b8cf" x="176.830508" y="361.81975" style="fill: #262626; stroke: #262626; stroke-width: 1.25"/>
      </g>
     </g>
     <g id="text_1">
      <!-- Blue -->
      <g style="fill: #262626" transform="translate(180.804008 407.25) rotate(-90) scale(0.144 -0.144)">
       <defs>
        <path id="DejaVuSans-Bold-42" d="M 2456 2859 
Q 2741 2859 2887 2984 
Q 3034 3109 3034 3353 
Q 3034 3594 2887 3720 
Q 2741 3847 2456 3847 
L 1791 3847 
L 1791 2859 
L 2456 2859 
z
M 2497 819 
Q 2859 819 3042 972 
Q 3225 1125 3225 1434 
Q 3225 1738 3044 1889 
Q 2863 2041 2497 2041 
L 1791 2041 
L 1791 819 
L 2497 819 
z
M 3616 2497 
Q 4003 2384 4215 2081 
Q 4428 1778 4428 1338 
Q 4428 663 3972 331 
Q 3516 0 2584 0 
L 588 0 
L 588 4666 
L 2394 4666 
Q 3366 4666 3802 4372 
Q 4238 4078 4238 3431 
Q 4238 3091 4078 2852 
Q 3919 2613 3616 2497 
z
" transform="scale(0.015625)"/>
        <path id="DejaVuSans-Bold-6c" d="M 538 4863 
L 1656 4863 
L 1656 0 
L 538 0 
L 538 4863 
z
" transform="scale(0.015625)"/>
        <path id="DejaVuSans-Bold-75" d="M 500 1363 
L 500 3500 
L 1625 3500 
L 1625 3150 
Q 1625 2866 1622 2436 
Q 1619 2006 1619 1863 
Q 1619 1441 1641 1255 
Q 1663 1069 1716 984 
Q 1784 875 1895 815 
Q 2006 756 2150 756 
Q 2500 756 2700 1025 
Q 2900 1294 2900 1772 
L 2900 3500 
L 4019 3500 
L 4019 0 
L 2900 0 
L 2900 506 
Q 2647 200 2364 54 
Q 2081 -91 1741 -91 
Q 1134 -91 817 281 
Q 500 653 500 1363 
z
" transform="scale(0.015625)"/>
        <path id="DejaVuSans-Bold-65" d="M 4031 1759 
L 4031 1441 
L 1416 1441 
Q 1456 1047 1700 850 
Q 1944 653 2381 653 
Q 2734 653 3104 758 
Q 3475 863 3866 1075 
L 3866 213 
Q 3469 63 3072 -14 
Q 2675 -91 2278 -91 
Q 1328 -91 801 392 
Q 275 875 275 1747 
Q 275 2603 792 3093 
Q 1309 3584 2216 3584 
Q 3041 3584 3536 3087 
Q 4031 2591 4031 1759 
z
M 2881 2131 
Q 2881 2450 2695 2645 
Q 2509 2841 2209 2841 
Q 1884 2841 1681 2658 
Q 1478 2475 1428 2131 
L 2881 2131 
z
" transform="scale(0.015625)"/>
       </defs>
       <use xlink:href="#DejaVuSans-Bold-42"/>
       <use xlink:href="#DejaVuSans-Bold-6c" x="76.220703"/>
       <use xlink:href="#DejaVuSans-Bold-75" x="110.498047"/>
       <use xlink:href="#DejaVuSans-Bold-65" x="181.689453"/>
      </g>
     </g>
    </g>
    <g id="xtick_2">
     <g id="line2d_2">
      <g>
       <use xlink:href="#mdd4173b8cf" x="297.031523" y="361.81975" style="fill: #262626; stroke: #262626; stroke-width: 1.25"/>
      </g>
     </g>
     <g id="text_2">
      <!-- White -->
      <g style="fill: #262626" transform="translate(301.005023 419.04) rotate(-90) scale(0.144 -0.144)">
       <defs>
        <path id="DejaVuSans-Bold-57" d="M 191 4666 
L 1344 4666 
L 2150 1275 
L 2950 4666 
L 4109 4666 
L 4909 1275 
L 5716 4666 
L 6859 4666 
L 5759 0 
L 4372 0 
L 3525 3547 
L 2688 0 
L 1300 0 
L 191 4666 
z
" transform="scale(0.015625)"/>
        <path id="DejaVuSans-Bold-68" d="M 4056 2131 
L 4056 0 
L 2931 0 
L 2931 347 
L 2931 1625 
Q 2931 2084 2911 2256 
Q 2891 2428 2841 2509 
Q 2775 2619 2662 2680 
Q 2550 2741 2406 2741 
Q 2056 2741 1856 2470 
Q 1656 2200 1656 1722 
L 1656 0 
L 538 0 
L 538 4863 
L 1656 4863 
L 1656 2988 
Q 1909 3294 2193 3439 
Q 2478 3584 2822 3584 
Q 3428 3584 3742 3212 
Q 4056 2841 4056 2131 
z
" transform="scale(0.015625)"/>
        <path id="DejaVuSans-Bold-69" d="M 538 3500 
L 1656 3500 
L 1656 0 
L 538 0 
L 538 3500 
z
M 538 4863 
L 1656 4863 
L 1656 3950 
L 538 3950 
L 538 4863 
z
" transform="scale(0.015625)"/>
        <path id="DejaVuSans-Bold-74" d="M 1759 4494 
L 1759 3500 
L 2913 3500 
L 2913 2700 
L 1759 2700 
L 1759 1216 
Q 1759 972 1856 886 
Q 1953 800 2241 800 
L 2816 800 
L 2816 0 
L 1856 0 
Q 1194 0 917 276 
Q 641 553 641 1216 
L 641 2700 
L 84 2700 
L 84 3500 
L 641 3500 
L 641 4494 
L 1759 4494 
z
" transform="scale(0.015625)"/>
       </defs>
       <use xlink:href="#DejaVuSans-Bold-57"/>
       <use xlink:href="#DejaVuSans-Bold-68" x="110.302734"/>
       <use xlink:href="#DejaVuSans-Bold-69" x="181.494141"/>
       <use xlink:href="#DejaVuSans-Bold-74" x="215.771484"/>
       <use xlink:href="#DejaVuSans-Bold-65" x="263.574219"/>
      </g>
     </g>
    </g>
   </g>
   <g id="matplotlib.axis_2">
    <g id="ytick_1">
     <g id="line2d_3">
      <defs>
       <path id="m48d5042e1f" d="M 0 0 
L -6 0 
" style="stroke: #262626; stroke-width: 1.25"/>
      </defs>
      <g>
       <use xlink:href="#m48d5042e1f" x="116.73" y="323.292367" style="fill: #262626; stroke: #262626; stroke-width: 1.25"/>
      </g>
     </g>
     <g id="text_3">
      <!-- −0.035 -->
      <g style="fill: #262626" transform="translate(49.6165 328.763242) scale(0.144 -0.144)">
       <defs>
        <path id="DejaVuSans-Bold-2212" d="M 678 2375 
L 4684 2375 
L 4684 1638 
L 678 1638 
L 678 2375 
z
" transform="scale(0.015625)"/>
        <path id="DejaVuSans-Bold-30" d="M 2944 2338 
Q 2944 3213 2780 3570 
Q 2616 3928 2228 3928 
Q 1841 3928 1675 3570 
Q 1509 3213 1509 2338 
Q 1509 1453 1675 1090 
Q 1841 728 2228 728 
Q 2613 728 2778 1090 
Q 2944 1453 2944 2338 
z
M 4147 2328 
Q 4147 1169 3647 539 
Q 3147 -91 2228 -91 
Q 1306 -91 806 539 
Q 306 1169 306 2328 
Q 306 3491 806 4120 
Q 1306 4750 2228 4750 
Q 3147 4750 3647 4120 
Q 4147 3491 4147 2328 
z
" transform="scale(0.015625)"/>
        <path id="DejaVuSans-Bold-2e" d="M 653 1209 
L 1778 1209 
L 1778 0 
L 653 0 
L 653 1209 
z
" transform="scale(0.015625)"/>
        <path id="DejaVuSans-Bold-33" d="M 2981 2516 
Q 3453 2394 3698 2092 
Q 3944 1791 3944 1325 
Q 3944 631 3412 270 
Q 2881 -91 1863 -91 
Q 1503 -91 1142 -33 
Q 781 25 428 141 
L 428 1069 
Q 766 900 1098 814 
Q 1431 728 1753 728 
Q 2231 728 2486 893 
Q 2741 1059 2741 1369 
Q 2741 1688 2480 1852 
Q 2219 2016 1709 2016 
L 1228 2016 
L 1228 2791 
L 1734 2791 
Q 2188 2791 2409 2933 
Q 2631 3075 2631 3366 
Q 2631 3634 2415 3781 
Q 2200 3928 1806 3928 
Q 1516 3928 1219 3862 
Q 922 3797 628 3669 
L 628 4550 
Q 984 4650 1334 4700 
Q 1684 4750 2022 4750 
Q 2931 4750 3382 4451 
Q 3834 4153 3834 3553 
Q 3834 3144 3618 2883 
Q 3403 2622 2981 2516 
z
" transform="scale(0.015625)"/>
        <path id="DejaVuSans-Bold-35" d="M 678 4666 
L 3669 4666 
L 3669 3781 
L 1638 3781 
L 1638 3059 
Q 1775 3097 1914 3117 
Q 2053 3138 2203 3138 
Q 3056 3138 3531 2711 
Q 4006 2284 4006 1522 
Q 4006 766 3489 337 
Q 2972 -91 2053 -91 
Q 1656 -91 1267 -14 
Q 878 63 494 219 
L 494 1166 
Q 875 947 1217 837 
Q 1559 728 1863 728 
Q 2300 728 2551 942 
Q 2803 1156 2803 1522 
Q 2803 1891 2551 2103 
Q 2300 2316 1863 2316 
Q 1603 2316 1309 2248 
Q 1016 2181 678 2041 
L 678 4666 
z
" transform="scale(0.015625)"/>
       </defs>
       <use xlink:href="#DejaVuSans-Bold-2212"/>
       <use xlink:href="#DejaVuSans-Bold-30" x="83.789062"/>
       <use xlink:href="#DejaVuSans-Bold-2e" x="153.369141"/>
       <use xlink:href="#DejaVuSans-Bold-30" x="191.357422"/>
       <use xlink:href="#DejaVuSans-Bold-33" x="260.9375"/>
       <use xlink:href="#DejaVuSans-Bold-35" x="330.517578"/>
      </g>
     </g>
    </g>
    <g id="ytick_2">
     <g id="line2d_4">
      <g>
       <use xlink:href="#m48d5042e1f" x="116.73" y="279.740725" style="fill: #262626; stroke: #262626; stroke-width: 1.25"/>
      </g>
     </g>
     <g id="text_4">
      <!-- −0.030 -->
      <g style="fill: #262626" transform="translate(49.6165 285.2116) scale(0.144 -0.144)">
       <use xlink:href="#DejaVuSans-Bold-2212"/>
       <use xlink:href="#DejaVuSans-Bold-30" x="83.789062"/>
       <use xlink:href="#DejaVuSans-Bold-2e" x="153.369141"/>
       <use xlink:href="#DejaVuSans-Bold-30" x="191.357422"/>
       <use xlink:href="#DejaVuSans-Bold-33" x="260.9375"/>
       <use xlink:href="#DejaVuSans-Bold-30" x="330.517578"/>
      </g>
     </g>
    </g>
    <g id="ytick_3">
     <g id="line2d_5">
      <g>
       <use xlink:href="#m48d5042e1f" x="116.73" y="236.189083" style="fill: #262626; stroke: #262626; stroke-width: 1.25"/>
      </g>
     </g>
     <g id="text_5">
      <!-- −0.025 -->
      <g style="fill: #262626" transform="translate(49.6165 241.659958) scale(0.144 -0.144)">
       <defs>
        <path id="DejaVuSans-Bold-32" d="M 1844 884 
L 3897 884 
L 3897 0 
L 506 0 
L 506 884 
L 2209 2388 
Q 2438 2594 2547 2791 
Q 2656 2988 2656 3200 
Q 2656 3528 2436 3728 
Q 2216 3928 1850 3928 
Q 1569 3928 1234 3808 
Q 900 3688 519 3450 
L 519 4475 
Q 925 4609 1322 4679 
Q 1719 4750 2100 4750 
Q 2938 4750 3402 4381 
Q 3866 4013 3866 3353 
Q 3866 2972 3669 2642 
Q 3472 2313 2841 1759 
L 1844 884 
z
" transform="scale(0.015625)"/>
       </defs>
       <use xlink:href="#DejaVuSans-Bold-2212"/>
       <use xlink:href="#DejaVuSans-Bold-30" x="83.789062"/>
       <use xlink:href="#DejaVuSans-Bold-2e" x="153.369141"/>
       <use xlink:href="#DejaVuSans-Bold-30" x="191.357422"/>
       <use xlink:href="#DejaVuSans-Bold-32" x="260.9375"/>
       <use xlink:href="#DejaVuSans-Bold-35" x="330.517578"/>
      </g>
     </g>
    </g>
    <g id="ytick_4">
     <g id="line2d_6">
      <g>
       <use xlink:href="#m48d5042e1f" x="116.73" y="192.637442" style="fill: #262626; stroke: #262626; stroke-width: 1.25"/>
      </g>
     </g>
     <g id="text_6">
      <!-- −0.020 -->
      <g style="fill: #262626" transform="translate(49.6165 198.108317) scale(0.144 -0.144)">
       <use xlink:href="#DejaVuSans-Bold-2212"/>
       <use xlink:href="#DejaVuSans-Bold-30" x="83.789062"/>
       <use xlink:href="#DejaVuSans-Bold-2e" x="153.369141"/>
       <use xlink:href="#DejaVuSans-Bold-30" x="191.357422"/>
       <use xlink:href="#DejaVuSans-Bold-32" x="260.9375"/>
       <use xlink:href="#DejaVuSans-Bold-30" x="330.517578"/>
      </g>
     </g>
    </g>
    <g id="ytick_5">
     <g id="line2d_7">
      <g>
       <use xlink:href="#m48d5042e1f" x="116.73" y="149.0858" style="fill: #262626; stroke: #262626; stroke-width: 1.25"/>
      </g>
     </g>
     <g id="text_7">
      <!-- −0.015 -->
      <g style="fill: #262626" transform="translate(49.6165 154.556675) scale(0.144 -0.144)">
       <defs>
        <path id="DejaVuSans-Bold-31" d="M 750 831 
L 1813 831 
L 1813 3847 
L 722 3622 
L 722 4441 
L 1806 4666 
L 2950 4666 
L 2950 831 
L 4013 831 
L 4013 0 
L 750 0 
L 750 831 
z
" transform="scale(0.015625)"/>
       </defs>
       <use xlink:href="#DejaVuSans-Bold-2212"/>
       <use xlink:href="#DejaVuSans-Bold-30" x="83.789062"/>
       <use xlink:href="#DejaVuSans-Bold-2e" x="153.369141"/>
       <use xlink:href="#DejaVuSans-Bold-30" x="191.357422"/>
       <use xlink:href="#DejaVuSans-Bold-31" x="260.9375"/>
       <use xlink:href="#DejaVuSans-Bold-35" x="330.517578"/>
      </g>
     </g>
    </g>
    <g id="ytick_6">
     <g id="line2d_8">
      <g>
       <use xlink:href="#m48d5042e1f" x="116.73" y="105.534158" style="fill: #262626; stroke: #262626; stroke-width: 1.25"/>
      </g>
     </g>
     <g id="text_8">
      <!-- −0.010 -->
      <g style="fill: #262626" transform="translate(49.6165 111.005033) scale(0.144 -0.144)">
       <use xlink:href="#DejaVuSans-Bold-2212"/>
       <use xlink:href="#DejaVuSans-Bold-30" x="83.789062"/>
       <use xlink:href="#DejaVuSans-Bold-2e" x="153.369141"/>
       <use xlink:href="#DejaVuSans-Bold-30" x="191.357422"/>
       <use xlink:href="#DejaVuSans-Bold-31" x="260.9375"/>
       <use xlink:href="#DejaVuSans-Bold-30" x="330.517578"/>
      </g>
     </g>
    </g>
    <g id="ytick_7">
     <g id="line2d_9">
      <g>
       <use xlink:href="#m48d5042e1f" x="116.73" y="61.982517" style="fill: #262626; stroke: #262626; stroke-width: 1.25"/>
      </g>
     </g>
     <g id="text_9">
      <!-- −0.005 -->
      <g style="fill: #262626" transform="translate(49.6165 67.453392) scale(0.144 -0.144)">
       <use xlink:href="#DejaVuSans-Bold-2212"/>
       <use xlink:href="#DejaVuSans-Bold-30" x="83.789062"/>
       <use xlink:href="#DejaVuSans-Bold-2e" x="153.369141"/>
       <use xlink:href="#DejaVuSans-Bold-30" x="191.357422"/>
       <use xlink:href="#DejaVuSans-Bold-30" x="260.9375"/>
       <use xlink:href="#DejaVuSans-Bold-35" x="330.517578"/>
      </g>
     </g>
    </g>
    <g id="ytick_8">
     <g id="line2d_10">
      <g>
       <use xlink:href="#m48d5042e1f" x="116.73" y="18.430875" style="fill: #262626; stroke: #262626; stroke-width: 1.25"/>
      </g>
     </g>
     <g id="text_10">
      <!-- 0.000 -->
      <g style="fill: #262626" transform="translate(61.68325 23.90175) scale(0.144 -0.144)">
       <use xlink:href="#DejaVuSans-Bold-30"/>
       <use xlink:href="#DejaVuSans-Bold-2e" x="69.580078"/>
       <use xlink:href="#DejaVuSans-Bold-30" x="107.568359"/>
       <use xlink:href="#DejaVuSans-Bold-30" x="177.148438"/>
       <use xlink:href="#DejaVuSans-Bold-30" x="246.728516"/>
      </g>
     </g>
    </g>
    <g id="text_11">
     <!-- Reduction in overall phloem output compared to  -->
     <g style="fill: #262626" transform="translate(23.90175 390.110937) rotate(-90) scale(0.144 -0.144)">
      <defs>
       <path id="DejaVuSans-Bold-52" d="M 2297 2597 
Q 2675 2597 2839 2737 
Q 3003 2878 3003 3200 
Q 3003 3519 2839 3656 
Q 2675 3794 2297 3794 
L 1791 3794 
L 1791 2597 
L 2297 2597 
z
M 1791 1766 
L 1791 0 
L 588 0 
L 588 4666 
L 2425 4666 
Q 3347 4666 3776 4356 
Q 4206 4047 4206 3378 
Q 4206 2916 3982 2619 
Q 3759 2322 3309 2181 
Q 3556 2125 3751 1926 
Q 3947 1728 4147 1325 
L 4800 0 
L 3519 0 
L 2950 1159 
Q 2778 1509 2601 1637 
Q 2425 1766 2131 1766 
L 1791 1766 
z
" transform="scale(0.015625)"/>
       <path id="DejaVuSans-Bold-64" d="M 2919 2988 
L 2919 4863 
L 4044 4863 
L 4044 0 
L 2919 0 
L 2919 506 
Q 2688 197 2409 53 
Q 2131 -91 1766 -91 
Q 1119 -91 703 423 
Q 288 938 288 1747 
Q 288 2556 703 3070 
Q 1119 3584 1766 3584 
Q 2128 3584 2408 3439 
Q 2688 3294 2919 2988 
z
M 2181 722 
Q 2541 722 2730 984 
Q 2919 1247 2919 1747 
Q 2919 2247 2730 2509 
Q 2541 2772 2181 2772 
Q 1825 2772 1636 2509 
Q 1447 2247 1447 1747 
Q 1447 1247 1636 984 
Q 1825 722 2181 722 
z
" transform="scale(0.015625)"/>
       <path id="DejaVuSans-Bold-63" d="M 3366 3391 
L 3366 2478 
Q 3138 2634 2908 2709 
Q 2678 2784 2431 2784 
Q 1963 2784 1702 2511 
Q 1441 2238 1441 1747 
Q 1441 1256 1702 982 
Q 1963 709 2431 709 
Q 2694 709 2930 787 
Q 3166 866 3366 1019 
L 3366 103 
Q 3103 6 2833 -42 
Q 2563 -91 2291 -91 
Q 1344 -91 809 395 
Q 275 881 275 1747 
Q 275 2613 809 3098 
Q 1344 3584 2291 3584 
Q 2566 3584 2833 3536 
Q 3100 3488 3366 3391 
z
" transform="scale(0.015625)"/>
       <path id="DejaVuSans-Bold-6f" d="M 2203 2784 
Q 1831 2784 1636 2517 
Q 1441 2250 1441 1747 
Q 1441 1244 1636 976 
Q 1831 709 2203 709 
Q 2569 709 2762 976 
Q 2956 1244 2956 1747 
Q 2956 2250 2762 2517 
Q 2569 2784 2203 2784 
z
M 2203 3584 
Q 3106 3584 3614 3096 
Q 4122 2609 4122 1747 
Q 4122 884 3614 396 
Q 3106 -91 2203 -91 
Q 1297 -91 786 396 
Q 275 884 275 1747 
Q 275 2609 786 3096 
Q 1297 3584 2203 3584 
z
" transform="scale(0.015625)"/>
       <path id="DejaVuSans-Bold-6e" d="M 4056 2131 
L 4056 0 
L 2931 0 
L 2931 347 
L 2931 1631 
Q 2931 2084 2911 2256 
Q 2891 2428 2841 2509 
Q 2775 2619 2662 2680 
Q 2550 2741 2406 2741 
Q 2056 2741 1856 2470 
Q 1656 2200 1656 1722 
L 1656 0 
L 538 0 
L 538 3500 
L 1656 3500 
L 1656 2988 
Q 1909 3294 2193 3439 
Q 2478 3584 2822 3584 
Q 3428 3584 3742 3212 
Q 4056 2841 4056 2131 
z
" transform="scale(0.015625)"/>
       <path id="DejaVuSans-Bold-20" transform="scale(0.015625)"/>
       <path id="DejaVuSans-Bold-76" d="M 97 3500 
L 1216 3500 
L 2088 1081 
L 2956 3500 
L 4078 3500 
L 2700 0 
L 1472 0 
L 97 3500 
z
" transform="scale(0.015625)"/>
       <path id="DejaVuSans-Bold-72" d="M 3138 2547 
Q 2991 2616 2845 2648 
Q 2700 2681 2553 2681 
Q 2122 2681 1889 2404 
Q 1656 2128 1656 1613 
L 1656 0 
L 538 0 
L 538 3500 
L 1656 3500 
L 1656 2925 
Q 1872 3269 2151 3426 
Q 2431 3584 2822 3584 
Q 2878 3584 2943 3579 
Q 3009 3575 3134 3559 
L 3138 2547 
z
" transform="scale(0.015625)"/>
       <path id="DejaVuSans-Bold-61" d="M 2106 1575 
Q 1756 1575 1579 1456 
Q 1403 1338 1403 1106 
Q 1403 894 1545 773 
Q 1688 653 1941 653 
Q 2256 653 2472 879 
Q 2688 1106 2688 1447 
L 2688 1575 
L 2106 1575 
z
M 3816 1997 
L 3816 0 
L 2688 0 
L 2688 519 
Q 2463 200 2181 54 
Q 1900 -91 1497 -91 
Q 953 -91 614 226 
Q 275 544 275 1050 
Q 275 1666 698 1953 
Q 1122 2241 2028 2241 
L 2688 2241 
L 2688 2328 
Q 2688 2594 2478 2717 
Q 2269 2841 1825 2841 
Q 1466 2841 1156 2769 
Q 847 2697 581 2553 
L 581 3406 
Q 941 3494 1303 3539 
Q 1666 3584 2028 3584 
Q 2975 3584 3395 3211 
Q 3816 2838 3816 1997 
z
" transform="scale(0.015625)"/>
       <path id="DejaVuSans-Bold-70" d="M 1656 506 
L 1656 -1331 
L 538 -1331 
L 538 3500 
L 1656 3500 
L 1656 2988 
Q 1888 3294 2169 3439 
Q 2450 3584 2816 3584 
Q 3463 3584 3878 3070 
Q 4294 2556 4294 1747 
Q 4294 938 3878 423 
Q 3463 -91 2816 -91 
Q 2450 -91 2169 54 
Q 1888 200 1656 506 
z
M 2400 2772 
Q 2041 2772 1848 2508 
Q 1656 2244 1656 1747 
Q 1656 1250 1848 986 
Q 2041 722 2400 722 
Q 2759 722 2948 984 
Q 3138 1247 3138 1747 
Q 3138 2247 2948 2509 
Q 2759 2772 2400 2772 
z
" transform="scale(0.015625)"/>
       <path id="DejaVuSans-Bold-6d" d="M 3781 2919 
Q 3994 3244 4286 3414 
Q 4578 3584 4928 3584 
Q 5531 3584 5847 3212 
Q 6163 2841 6163 2131 
L 6163 0 
L 5038 0 
L 5038 1825 
Q 5041 1866 5042 1909 
Q 5044 1953 5044 2034 
Q 5044 2406 4934 2573 
Q 4825 2741 4581 2741 
Q 4263 2741 4089 2478 
Q 3916 2216 3909 1719 
L 3909 0 
L 2784 0 
L 2784 1825 
Q 2784 2406 2684 2573 
Q 2584 2741 2328 2741 
Q 2006 2741 1831 2477 
Q 1656 2213 1656 1722 
L 1656 0 
L 531 0 
L 531 3500 
L 1656 3500 
L 1656 2988 
Q 1863 3284 2130 3434 
Q 2397 3584 2719 3584 
Q 3081 3584 3359 3409 
Q 3638 3234 3781 2919 
z
" transform="scale(0.015625)"/>
      </defs>
      <use xlink:href="#DejaVuSans-Bold-52"/>
      <use xlink:href="#DejaVuSans-Bold-65" x="77.001953"/>
      <use xlink:href="#DejaVuSans-Bold-64" x="144.824219"/>
      <use xlink:href="#DejaVuSans-Bold-75" x="216.40625"/>
      <use xlink:href="#DejaVuSans-Bold-63" x="287.597656"/>
      <use xlink:href="#DejaVuSans-Bold-74" x="346.875"/>
      <use xlink:href="#DejaVuSans-Bold-69" x="394.677734"/>
      <use xlink:href="#DejaVuSans-Bold-6f" x="428.955078"/>
      <use xlink:href="#DejaVuSans-Bold-6e" x="497.65625"/>
      <use xlink:href="#DejaVuSans-Bold-20" x="568.847656"/>
      <use xlink:href="#DejaVuSans-Bold-69" x="603.662109"/>
      <use xlink:href="#DejaVuSans-Bold-6e" x="637.939453"/>
      <use xlink:href="#DejaVuSans-Bold-20" x="709.130859"/>
      <use xlink:href="#DejaVuSans-Bold-6f" x="743.945312"/>
      <use xlink:href="#DejaVuSans-Bold-76" x="812.646484"/>
      <use xlink:href="#DejaVuSans-Bold-65" x="877.832031"/>
      <use xlink:href="#DejaVuSans-Bold-72" x="945.654297"/>
      <use xlink:href="#DejaVuSans-Bold-61" x="994.970703"/>
      <use xlink:href="#DejaVuSans-Bold-6c" x="1062.451172"/>
      <use xlink:href="#DejaVuSans-Bold-6c" x="1096.728516"/>
      <use xlink:href="#DejaVuSans-Bold-20" x="1131.005859"/>
      <use xlink:href="#DejaVuSans-Bold-70" x="1165.820312"/>
      <use xlink:href="#DejaVuSans-Bold-68" x="1237.402344"/>
      <use xlink:href="#DejaVuSans-Bold-6c" x="1308.59375"/>
      <use xlink:href="#DejaVuSans-Bold-6f" x="1342.871094"/>
      <use xlink:href="#DejaVuSans-Bold-65" x="1411.572266"/>
      <use xlink:href="#DejaVuSans-Bold-6d" x="1479.394531"/>
      <use xlink:href="#DejaVuSans-Bold-20" x="1583.59375"/>
      <use xlink:href="#DejaVuSans-Bold-6f" x="1618.408203"/>
      <use xlink:href="#DejaVuSans-Bold-75" x="1687.109375"/>
      <use xlink:href="#DejaVuSans-Bold-74" x="1758.300781"/>
      <use xlink:href="#DejaVuSans-Bold-70" x="1806.103516"/>
      <use xlink:href="#DejaVuSans-Bold-75" x="1877.685547"/>
      <use xlink:href="#DejaVuSans-Bold-74" x="1948.876953"/>
      <use xlink:href="#DejaVuSans-Bold-20" x="1996.679688"/>
      <use xlink:href="#DejaVuSans-Bold-63" x="2031.494141"/>
      <use xlink:href="#DejaVuSans-Bold-6f" x="2090.771484"/>
      <use xlink:href="#DejaVuSans-Bold-6d" x="2159.472656"/>
      <use xlink:href="#DejaVuSans-Bold-70" x="2263.671875"/>
      <use xlink:href="#DejaVuSans-Bold-61" x="2335.253906"/>
      <use xlink:href="#DejaVuSans-Bold-72" x="2402.734375"/>
      <use xlink:href="#DejaVuSans-Bold-65" x="2452.050781"/>
      <use xlink:href="#DejaVuSans-Bold-64" x="2519.873047"/>
      <use xlink:href="#DejaVuSans-Bold-20" x="2591.455078"/>
      <use xlink:href="#DejaVuSans-Bold-74" x="2626.269531"/>
      <use xlink:href="#DejaVuSans-Bold-6f" x="2674.072266"/>
      <use xlink:href="#DejaVuSans-Bold-20" x="2742.773438"/>
     </g>
     <!--  unconstrained WT in specified light(fmol gc$^{-1}$ h$^{-1}$) -->
     <g style="fill: #262626" transform="translate(42.4485 397.053313) rotate(-90) scale(0.144 -0.144)">
      <defs>
       <path id="DejaVuSans-Bold-73" d="M 3272 3391 
L 3272 2541 
Q 2913 2691 2578 2766 
Q 2244 2841 1947 2841 
Q 1628 2841 1473 2761 
Q 1319 2681 1319 2516 
Q 1319 2381 1436 2309 
Q 1553 2238 1856 2203 
L 2053 2175 
Q 2913 2066 3209 1816 
Q 3506 1566 3506 1031 
Q 3506 472 3093 190 
Q 2681 -91 1863 -91 
Q 1516 -91 1145 -36 
Q 775 19 384 128 
L 384 978 
Q 719 816 1070 734 
Q 1422 653 1784 653 
Q 2113 653 2278 743 
Q 2444 834 2444 1013 
Q 2444 1163 2330 1236 
Q 2216 1309 1875 1350 
L 1678 1375 
Q 931 1469 631 1722 
Q 331 1975 331 2491 
Q 331 3047 712 3315 
Q 1094 3584 1881 3584 
Q 2191 3584 2531 3537 
Q 2872 3491 3272 3391 
z
" transform="scale(0.015625)"/>
       <path id="DejaVuSans-Bold-54" d="M 31 4666 
L 4331 4666 
L 4331 3756 
L 2784 3756 
L 2784 0 
L 1581 0 
L 1581 3756 
L 31 3756 
L 31 4666 
z
" transform="scale(0.015625)"/>
       <path id="DejaVuSans-Bold-66" d="M 2841 4863 
L 2841 4128 
L 2222 4128 
Q 1984 4128 1890 4042 
Q 1797 3956 1797 3744 
L 1797 3500 
L 2753 3500 
L 2753 2700 
L 1797 2700 
L 1797 0 
L 678 0 
L 678 2700 
L 122 2700 
L 122 3500 
L 678 3500 
L 678 3744 
Q 678 4316 997 4589 
Q 1316 4863 1984 4863 
L 2841 4863 
z
" transform="scale(0.015625)"/>
       <path id="DejaVuSans-Bold-67" d="M 2919 594 
Q 2688 288 2409 144 
Q 2131 0 1766 0 
Q 1125 0 706 504 
Q 288 1009 288 1791 
Q 288 2575 706 3076 
Q 1125 3578 1766 3578 
Q 2131 3578 2409 3434 
Q 2688 3291 2919 2981 
L 2919 3500 
L 4044 3500 
L 4044 353 
Q 4044 -491 3511 -936 
Q 2978 -1381 1966 -1381 
Q 1638 -1381 1331 -1331 
Q 1025 -1281 716 -1178 
L 716 -306 
Q 1009 -475 1290 -558 
Q 1572 -641 1856 -641 
Q 2406 -641 2662 -400 
Q 2919 -159 2919 353 
L 2919 594 
z
M 2181 2772 
Q 1834 2772 1640 2515 
Q 1447 2259 1447 1791 
Q 1447 1309 1634 1061 
Q 1822 813 2181 813 
Q 2531 813 2725 1069 
Q 2919 1325 2919 1791 
Q 2919 2259 2725 2515 
Q 2531 2772 2181 2772 
z
" transform="scale(0.015625)"/>
       <path id="DejaVuSans-Bold-28" d="M 2413 -844 
L 1484 -844 
Q 1006 -72 778 623 
Q 550 1319 550 2003 
Q 550 2688 779 3389 
Q 1009 4091 1484 4856 
L 2413 4856 
Q 2013 4116 1813 3408 
Q 1613 2700 1613 2009 
Q 1613 1319 1811 609 
Q 2009 -100 2413 -844 
z
" transform="scale(0.015625)"/>
       <path id="DejaVuSans-Bold-29" d="M 513 -844 
Q 913 -100 1113 609 
Q 1313 1319 1313 2009 
Q 1313 2700 1113 3408 
Q 913 4116 513 4856 
L 1441 4856 
Q 1916 4091 2145 3389 
Q 2375 2688 2375 2003 
Q 2375 1319 2147 623 
Q 1919 -72 1441 -844 
L 513 -844 
z
" transform="scale(0.015625)"/>
      </defs>
      <use xlink:href="#DejaVuSans-Bold-20" transform="translate(0 0.684375)"/>
      <use xlink:href="#DejaVuSans-Bold-75" transform="translate(34.814453 0.684375)"/>
      <use xlink:href="#DejaVuSans-Bold-6e" transform="translate(106.005859 0.684375)"/>
      <use xlink:href="#DejaVuSans-Bold-63" transform="translate(177.197266 0.684375)"/>
      <use xlink:href="#DejaVuSans-Bold-6f" transform="translate(236.474609 0.684375)"/>
      <use xlink:href="#DejaVuSans-Bold-6e" transform="translate(305.175781 0.684375)"/>
      <use xlink:href="#DejaVuSans-Bold-73" transform="translate(376.367188 0.684375)"/>
      <use xlink:href="#DejaVuSans-Bold-74" transform="translate(435.888672 0.684375)"/>
      <use xlink:href="#DejaVuSans-Bold-72" transform="translate(483.691406 0.684375)"/>
      <use xlink:href="#DejaVuSans-Bold-61" transform="translate(533.007812 0.684375)"/>
      <use xlink:href="#DejaVuSans-Bold-69" transform="translate(600.488281 0.684375)"/>
      <use xlink:href="#DejaVuSans-Bold-6e" transform="translate(634.765625 0.684375)"/>
      <use xlink:href="#DejaVuSans-Bold-65" transform="translate(705.957031 0.684375)"/>
      <use xlink:href="#DejaVuSans-Bold-64" transform="translate(773.779297 0.684375)"/>
      <use xlink:href="#DejaVuSans-Bold-20" transform="translate(845.361328 0.684375)"/>
      <use xlink:href="#DejaVuSans-Bold-57" transform="translate(880.175781 0.684375)"/>
      <use xlink:href="#DejaVuSans-Bold-54" transform="translate(990.478516 0.684375)"/>
      <use xlink:href="#DejaVuSans-Bold-20" transform="translate(1058.691406 0.684375)"/>
      <use xlink:href="#DejaVuSans-Bold-69" transform="translate(1093.505859 0.684375)"/>
      <use xlink:href="#DejaVuSans-Bold-6e" transform="translate(1127.783203 0.684375)"/>
      <use xlink:href="#DejaVuSans-Bold-20" transform="translate(1198.974609 0.684375)"/>
      <use xlink:href="#DejaVuSans-Bold-73" transform="translate(1233.789062 0.684375)"/>
      <use xlink:href="#DejaVuSans-Bold-70" transform="translate(1293.310547 0.684375)"/>
      <use xlink:href="#DejaVuSans-Bold-65" transform="translate(1364.892578 0.684375)"/>
      <use xlink:href="#DejaVuSans-Bold-63" transform="translate(1432.714844 0.684375)"/>
      <use xlink:href="#DejaVuSans-Bold-69" transform="translate(1491.992188 0.684375)"/>
      <use xlink:href="#DejaVuSans-Bold-66" transform="translate(1526.269531 0.684375)"/>
      <use xlink:href="#DejaVuSans-Bold-69" transform="translate(1569.775391 0.684375)"/>
      <use xlink:href="#DejaVuSans-Bold-65" transform="translate(1604.052734 0.684375)"/>
      <use xlink:href="#DejaVuSans-Bold-64" transform="translate(1671.875 0.684375)"/>
      <use xlink:href="#DejaVuSans-Bold-20" transform="translate(1743.457031 0.684375)"/>
      <use xlink:href="#DejaVuSans-Bold-6c" transform="translate(1778.271484 0.684375)"/>
      <use xlink:href="#DejaVuSans-Bold-69" transform="translate(1812.548828 0.684375)"/>
      <use xlink:href="#DejaVuSans-Bold-67" transform="translate(1846.826172 0.684375)"/>
      <use xlink:href="#DejaVuSans-Bold-68" transform="translate(1918.408203 0.684375)"/>
      <use xlink:href="#DejaVuSans-Bold-74" transform="translate(1989.599609 0.684375)"/>
      <use xlink:href="#DejaVuSans-Bold-28" transform="translate(2037.402344 0.684375)"/>
      <use xlink:href="#DejaVuSans-Bold-66" transform="translate(2083.105469 0.684375)"/>
      <use xlink:href="#DejaVuSans-Bold-6d" transform="translate(2126.611328 0.684375)"/>
      <use xlink:href="#DejaVuSans-Bold-6f" transform="translate(2230.810547 0.684375)"/>
      <use xlink:href="#DejaVuSans-Bold-6c" transform="translate(2299.511719 0.684375)"/>
      <use xlink:href="#DejaVuSans-Bold-20" transform="translate(2333.789062 0.684375)"/>
      <use xlink:href="#DejaVuSans-Bold-67" transform="translate(2368.603516 0.684375)"/>
      <use xlink:href="#DejaVuSans-Bold-63" transform="translate(2440.185547 0.684375)"/>
      <use xlink:href="#DejaVuSans-Bold-2212" transform="translate(2500.419922 38.965625) scale(0.7)"/>
      <use xlink:href="#DejaVuSans-Bold-31" transform="translate(2559.072266 38.965625) scale(0.7)"/>
      <use xlink:href="#DejaVuSans-Bold-20" transform="translate(2610.512695 0.684375)"/>
      <use xlink:href="#DejaVuSans-Bold-68" transform="translate(2645.327148 0.684375)"/>
      <use xlink:href="#DejaVuSans-Bold-2212" transform="translate(2717.475586 38.965625) scale(0.7)"/>
      <use xlink:href="#DejaVuSans-Bold-31" transform="translate(2776.12793 38.965625) scale(0.7)"/>
      <use xlink:href="#DejaVuSans-Bold-29" transform="translate(2827.568359 0.684375)"/>
     </g>
    </g>
   </g>
   <g id="patch_3">
    <path d="M 146.780254 18.430875 
L 161.805381 18.430875 
L 161.805381 18.430875 
L 146.780254 18.430875 
z
" clip-path="url(#p88bae86df7)" style="fill: #332288; stroke: #ffffff; stroke-linejoin: miter"/>
   </g>
   <g id="patch_4">
    <path d="M 266.98127 18.430875 
L 282.006396 18.430875 
L 282.006396 18.430875 
L 266.98127 18.430875 
z
" clip-path="url(#p88bae86df7)" style="fill: #332288; stroke: #ffffff; stroke-linejoin: miter"/>
   </g>
   <g id="patch_5">
    <path d="M 161.805381 18.430875 
L 176.830508 18.430875 
L 176.830508 18.430875 
L 161.805381 18.430875 
z
" clip-path="url(#p88bae86df7)" style="fill: #88ccee; stroke: #ffffff; stroke-linejoin: miter"/>
   </g>
   <g id="patch_6">
    <path d="M 282.006396 18.430875 
L 297.031523 18.430875 
L 297.031523 18.430875 
L 282.006396 18.430875 
z
" clip-path="url(#p88bae86df7)" style="fill: #88ccee; stroke: #ffffff; stroke-linejoin: miter"/>
   </g>
   <g id="patch_7">
    <path d="M 176.830508 18.430875 
L 191.855635 18.430875 
L 191.855635 103.164233 
L 176.830508 103.164233 
z
" clip-path="url(#p88bae86df7)" style="fill: #44aa99; stroke: #ffffff; stroke-linejoin: miter"/>
   </g>
   <g id="patch_8">
    <path d="M 297.031523 18.430875 
L 312.05665 18.430875 
L 312.05665 121.56572 
L 297.031523 121.56572 
z
" clip-path="url(#p88bae86df7)" style="fill: #44aa99; stroke: #ffffff; stroke-linejoin: miter"/>
   </g>
   <g id="patch_9">
    <path d="M 191.855635 18.430875 
L 206.880762 18.430875 
L 206.880762 285.842794 
L 191.855635 285.842794 
z
" clip-path="url(#p88bae86df7)" style="fill: #117733; stroke: #ffffff; stroke-linejoin: miter"/>
   </g>
   <g id="patch_10">
    <path d="M 312.05665 18.430875 
L 327.081777 18.430875 
L 327.081777 345.467899 
L 312.05665 345.467899 
z
" clip-path="url(#p88bae86df7)" style="fill: #117733; stroke: #ffffff; stroke-linejoin: miter"/>
   </g>
   <g id="patch_11">
    <path d="M 116.73 361.81975 
L 116.73 18.430875 
" style="fill: none; stroke: #262626; stroke-width: 1.25; stroke-linejoin: miter; stroke-linecap: square"/>
   </g>
   <g id="patch_12">
    <path d="M 116.73 361.81975 
L 357.132031 361.81975 
" style="fill: none; stroke: #262626; stroke-width: 1.25; stroke-linejoin: miter; stroke-linecap: square"/>
   </g>
   <g id="legend_1">
    <g id="patch_13">
     <path d="M 367.032031 168.941719 
L 389.032031 168.941719 
L 389.032031 161.241719 
L 367.032031 161.241719 
z
" style="fill: #332288; stroke: #ffffff; stroke-linejoin: miter"/>
    </g>
    <g id="text_12">
     <!-- (unconstrained, wt) -->
     <g style="fill: #262626" transform="translate(397.832031 168.941719) scale(0.11 -0.11)">
      <defs>
       <path id="DejaVuSans-Bold-2c" d="M 653 1209 
L 1778 1209 
L 1778 256 
L 1006 -909 
L 341 -909 
L 653 256 
L 653 1209 
z
" transform="scale(0.015625)"/>
       <path id="DejaVuSans-Bold-77" d="M 225 3500 
L 1313 3500 
L 1900 1088 
L 2491 3500 
L 3425 3500 
L 4013 1113 
L 4603 3500 
L 5691 3500 
L 4769 0 
L 3547 0 
L 2956 2406 
L 2369 0 
L 1147 0 
L 225 3500 
z
" transform="scale(0.015625)"/>
      </defs>
      <use xlink:href="#DejaVuSans-Bold-28"/>
      <use xlink:href="#DejaVuSans-Bold-75" x="45.703125"/>
      <use xlink:href="#DejaVuSans-Bold-6e" x="116.894531"/>
      <use xlink:href="#DejaVuSans-Bold-63" x="188.085938"/>
      <use xlink:href="#DejaVuSans-Bold-6f" x="247.363281"/>
      <use xlink:href="#DejaVuSans-Bold-6e" x="316.064453"/>
      <use xlink:href="#DejaVuSans-Bold-73" x="387.255859"/>
      <use xlink:href="#DejaVuSans-Bold-74" x="446.777344"/>
      <use xlink:href="#DejaVuSans-Bold-72" x="494.580078"/>
      <use xlink:href="#DejaVuSans-Bold-61" x="543.896484"/>
      <use xlink:href="#DejaVuSans-Bold-69" x="611.376953"/>
      <use xlink:href="#DejaVuSans-Bold-6e" x="645.654297"/>
      <use xlink:href="#DejaVuSans-Bold-65" x="716.845703"/>
      <use xlink:href="#DejaVuSans-Bold-64" x="784.667969"/>
      <use xlink:href="#DejaVuSans-Bold-2c" x="856.25"/>
      <use xlink:href="#DejaVuSans-Bold-20" x="894.238281"/>
      <use xlink:href="#DejaVuSans-Bold-77" x="929.052734"/>
      <use xlink:href="#DejaVuSans-Bold-74" x="1021.435547"/>
      <use xlink:href="#DejaVuSans-Bold-29" x="1069.238281"/>
     </g>
    </g>
    <g id="patch_14">
     <path d="M 367.032031 185.087656 
L 389.032031 185.087656 
L 389.032031 177.387656 
L 367.032031 177.387656 
z
" style="fill: #88ccee; stroke: #ffffff; stroke-linejoin: miter"/>
    </g>
    <g id="text_13">
     <!-- (unconstrained, starchko) -->
     <g style="fill: #262626" transform="translate(397.832031 185.087656) scale(0.11 -0.11)">
      <defs>
       <path id="DejaVuSans-Bold-6b" d="M 538 4863 
L 1656 4863 
L 1656 2216 
L 2944 3500 
L 4244 3500 
L 2534 1894 
L 4378 0 
L 3022 0 
L 1656 1459 
L 1656 0 
L 538 0 
L 538 4863 
z
" transform="scale(0.015625)"/>
      </defs>
      <use xlink:href="#DejaVuSans-Bold-28"/>
      <use xlink:href="#DejaVuSans-Bold-75" x="45.703125"/>
      <use xlink:href="#DejaVuSans-Bold-6e" x="116.894531"/>
      <use xlink:href="#DejaVuSans-Bold-63" x="188.085938"/>
      <use xlink:href="#DejaVuSans-Bold-6f" x="247.363281"/>
      <use xlink:href="#DejaVuSans-Bold-6e" x="316.064453"/>
      <use xlink:href="#DejaVuSans-Bold-73" x="387.255859"/>
      <use xlink:href="#DejaVuSans-Bold-74" x="446.777344"/>
      <use xlink:href="#DejaVuSans-Bold-72" x="494.580078"/>
      <use xlink:href="#DejaVuSans-Bold-61" x="543.896484"/>
      <use xlink:href="#DejaVuSans-Bold-69" x="611.376953"/>
      <use xlink:href="#DejaVuSans-Bold-6e" x="645.654297"/>
      <use xlink:href="#DejaVuSans-Bold-65" x="716.845703"/>
      <use xlink:href="#DejaVuSans-Bold-64" x="784.667969"/>
      <use xlink:href="#DejaVuSans-Bold-2c" x="856.25"/>
      <use xlink:href="#DejaVuSans-Bold-20" x="894.238281"/>
      <use xlink:href="#DejaVuSans-Bold-73" x="929.052734"/>
      <use xlink:href="#DejaVuSans-Bold-74" x="988.574219"/>
      <use xlink:href="#DejaVuSans-Bold-61" x="1036.376953"/>
      <use xlink:href="#DejaVuSans-Bold-72" x="1103.857422"/>
      <use xlink:href="#DejaVuSans-Bold-63" x="1153.173828"/>
      <use xlink:href="#DejaVuSans-Bold-68" x="1212.451172"/>
      <use xlink:href="#DejaVuSans-Bold-6b" x="1283.642578"/>
      <use xlink:href="#DejaVuSans-Bold-6f" x="1347.521484"/>
      <use xlink:href="#DejaVuSans-Bold-29" x="1416.222656"/>
     </g>
    </g>
    <g id="patch_15">
     <path d="M 367.032031 201.233594 
L 389.032031 201.233594 
L 389.032031 193.533594 
L 367.032031 193.533594 
z
" style="fill: #44aa99; stroke: #ffffff; stroke-linejoin: miter"/>
    </g>
    <g id="text_14">
     <!-- (constrained, wt) -->
     <g style="fill: #262626" transform="translate(397.832031 201.233594) scale(0.11 -0.11)">
      <use xlink:href="#DejaVuSans-Bold-28"/>
      <use xlink:href="#DejaVuSans-Bold-63" x="45.703125"/>
      <use xlink:href="#DejaVuSans-Bold-6f" x="104.980469"/>
      <use xlink:href="#DejaVuSans-Bold-6e" x="173.681641"/>
      <use xlink:href="#DejaVuSans-Bold-73" x="244.873047"/>
      <use xlink:href="#DejaVuSans-Bold-74" x="304.394531"/>
      <use xlink:href="#DejaVuSans-Bold-72" x="352.197266"/>
      <use xlink:href="#DejaVuSans-Bold-61" x="401.513672"/>
      <use xlink:href="#DejaVuSans-Bold-69" x="468.994141"/>
      <use xlink:href="#DejaVuSans-Bold-6e" x="503.271484"/>
      <use xlink:href="#DejaVuSans-Bold-65" x="574.462891"/>
      <use xlink:href="#DejaVuSans-Bold-64" x="642.285156"/>
      <use xlink:href="#DejaVuSans-Bold-2c" x="713.867188"/>
      <use xlink:href="#DejaVuSans-Bold-20" x="751.855469"/>
      <use xlink:href="#DejaVuSans-Bold-77" x="786.669922"/>
      <use xlink:href="#DejaVuSans-Bold-74" x="879.052734"/>
      <use xlink:href="#DejaVuSans-Bold-29" x="926.855469"/>
     </g>
    </g>
    <g id="patch_16">
     <path d="M 367.032031 217.379531 
L 389.032031 217.379531 
L 389.032031 209.679531 
L 367.032031 209.679531 
z
" style="fill: #117733; stroke: #ffffff; stroke-linejoin: miter"/>
    </g>
    <g id="text_15">
     <!-- (constrained, starchko) -->
     <g style="fill: #262626" transform="translate(397.832031 217.379531) scale(0.11 -0.11)">
      <use xlink:href="#DejaVuSans-Bold-28"/>
      <use xlink:href="#DejaVuSans-Bold-63" x="45.703125"/>
      <use xlink:href="#DejaVuSans-Bold-6f" x="104.980469"/>
      <use xlink:href="#DejaVuSans-Bold-6e" x="173.681641"/>
      <use xlink:href="#DejaVuSans-Bold-73" x="244.873047"/>
      <use xlink:href="#DejaVuSans-Bold-74" x="304.394531"/>
      <use xlink:href="#DejaVuSans-Bold-72" x="352.197266"/>
      <use xlink:href="#DejaVuSans-Bold-61" x="401.513672"/>
      <use xlink:href="#DejaVuSans-Bold-69" x="468.994141"/>
      <use xlink:href="#DejaVuSans-Bold-6e" x="503.271484"/>
      <use xlink:href="#DejaVuSans-Bold-65" x="574.462891"/>
      <use xlink:href="#DejaVuSans-Bold-64" x="642.285156"/>
      <use xlink:href="#DejaVuSans-Bold-2c" x="713.867188"/>
      <use xlink:href="#DejaVuSans-Bold-20" x="751.855469"/>
      <use xlink:href="#DejaVuSans-Bold-73" x="786.669922"/>
      <use xlink:href="#DejaVuSans-Bold-74" x="846.191406"/>
      <use xlink:href="#DejaVuSans-Bold-61" x="893.994141"/>
      <use xlink:href="#DejaVuSans-Bold-72" x="961.474609"/>
      <use xlink:href="#DejaVuSans-Bold-63" x="1010.791016"/>
      <use xlink:href="#DejaVuSans-Bold-68" x="1070.068359"/>
      <use xlink:href="#DejaVuSans-Bold-6b" x="1141.259766"/>
      <use xlink:href="#DejaVuSans-Bold-6f" x="1205.138672"/>
      <use xlink:href="#DejaVuSans-Bold-29" x="1273.839844"/>
     </g>
    </g>
   </g>
  </g>
 </g>
 <defs>
  <clipPath id="p88bae86df7">
   <rect x="116.73" y="18.430875" width="240.402031" height="343.388875"/>
  </clipPath>
 </defs>
</svg>
